<svg width="235" height="90.00000000000001" xmlns="http://www.w3.org/2000/svg" version="1.1" enable-background="new 0 0 1256 306" xml:space="preserve">
 <g>
  <title>Layer 1</title>
  <g id="svg_27">
   <path fill="#dbdbdb" d="m6.05202,44.56206c-2.44488,-2.02586 -3.79134,-4.28419 -3.08268,-7.37279c0.14173,-0.53137 -0.1063,-1.32843 -0.46063,-1.82659c-1.09843,-1.42806 -1.09843,-2.7897 -0.17717,-4.3174c0.28346,-0.46495 0.28346,-1.5277 -0.07087,-1.8598c-2.16142,-2.09228 -1.24016,-4.81556 -1.73622,-7.23995c-0.07087,-0.39853 0.38976,-1.12917 0.85039,-1.36164c2.12599,-1.12917 1.84252,-3.35429 2.65748,-5.08125c0.38976,-0.89669 0.7441,-1.82659 1.34646,-2.55723c1.06299,-1.36164 2.37402,-2.49081 2.72835,-4.28419c0.35433,-1.72696 3.01181,-2.98897 5.52756,-2.62365c1.59449,0.23248 2.23229,-0.43174 2.83465,-1.5277c1.16929,-2.12549 2.69292,-3.6864 5.49213,-4.08493c3.47244,-0.53137 6.05906,1.42806 7.29922,3.88566c0.60236,1.2288 0.60236,2.75649 1.13386,4.08493c0.56693,1.32843 1.38189,2.59044 2.16142,3.85245c1.27559,2.02586 2.58662,4.0185 3.89764,5.97794c0.17717,0.23248 0.38976,0.46495 0.6378,0.59779c3.33071,1.95944 4.11024,5.14767 4.67717,8.43554c0.35433,2.29154 0.6378,4.58309 1.06299,6.87463c0.1063,0.46495 0.7441,0.9299 1.20473,1.29522c1.70079,1.32843 3.68504,2.4576 4.32284,4.64951c0.3189,1.09596 0.4252,2.25833 0.46063,3.3875c0.03543,1.49448 0.49606,2.65686 1.80709,3.55355c1.84252,1.29522 2.72835,2.95576 2.26772,5.14767c-0.1063,0.49816 0.03543,1.09596 0.24803,1.59412c1.48819,3.61997 0.77953,6.94105 -1.41732,10.12929c-0.28346,0.43174 -0.5315,0.99632 -0.49606,1.49448c0.35433,3.0886 0.81496,6.1772 1.20473,9.29902c0.2126,1.66054 -0.7441,2.92255 -2.01969,3.78603c-3.47244,2.32475 -7.08662,4.51667 -10.66536,6.74179c-0.35433,0.19926 -0.88583,0.33211 -1.31102,0.26569c-3.96851,-0.66422 -7.33465,0.73064 -10.62993,2.65686c-1.84252,1.06274 -2.40945,1.02953 -3.33071,-0.79706c-1.38189,-2.75649 -2.55118,-5.64583 -3.57874,-8.56838c-1.24016,-3.48713 -2.40945,-7.00747 -3.29528,-10.56103c-0.81496,-3.35429 -1.02756,-6.80821 -1.77166,-10.19571c-0.35433,-1.66054 -1.20473,-3.22144 -1.91339,-4.98162c-2.33858,0.36532 -3.50788,-1.09596 -4.21654,-2.95576c-0.67323,-1.76017 -1.16929,-3.55355 -1.77166,-5.44657c-0.5315,0 -1.13386,0 -1.87795,-0.06642m3.18898,-3.78603c-1.38189,0.06642 -2.72835,0.16605 -4.57087,0.23248c0.70866,1.19559 1.16929,2.05907 1.70079,2.95576c1.27559,-0.99632 2.23229,-1.79338 3.47244,-2.62365c0.60236,-0.16605 1.27559,-0.23248 1.80709,-0.53137c0.38976,-0.19926 0.56693,-0.69743 0.81496,-1.09596c-0.1063,-0.06642 -0.24803,-0.09963 -0.35433,-0.16605c-0.85039,0.43174 -1.70079,0.89669 -2.87008,1.2288m30.8268,2.65686c0,0 -0.03543,0.03321 0.17717,0.36532c0.85039,-0.09963 1.94882,-1.02953 2.09055,0.631c-0.03543,0.39853 -0.07087,0.83027 0.2126,1.09596c1.48819,-0.69743 1.27559,-2.02586 0.92126,-3.02218c-0.28346,-0.76385 -1.27559,-1.29522 -1.91339,-1.89301c0,-0.96311 0.07087,-2.12549 -0.03543,-3.22144c-0.28346,-3.42071 -0.49606,-6.84142 -0.99213,-10.19571c-0.4252,-3.05539 -1.48819,-5.81189 -4.28741,-7.87095c-1.41732,-1.02953 -2.37402,-2.69007 -3.36614,-4.15135c-0.88583,-1.2288 -1.45276,-2.65686 -2.37402,-3.85245c-0.3189,-0.46495 -1.20473,-0.83027 -1.80709,-0.76385c-0.99213,0.13284 -2.16142,0.43174 -2.90551,1.02953c-2.58662,2.19191 -5.10237,4.48345 -7.54725,6.80821c-0.49606,0.46495 -0.5315,1.39485 -1.02756,1.82659c-2.05512,1.89301 -2.48032,4.35061 -2.26772,6.70858c0.1063,1.62733 -0.07087,3.02218 -0.88583,4.25098c-1.55906,2.42439 -1.09843,5.04804 -0.85039,7.53885c0.3189,3.28787 1.06299,6.50931 1.59449,9.76397c0.4252,2.42439 0.46063,4.98162 1.24016,7.27316c1.45276,4.11814 4.35827,7.47242 8.00788,10.06286c3.68504,2.62365 7.72442,4.35061 12.68505,3.95208c3.36614,-0.26569 6.73229,-0.36532 9.49607,-2.42439c2.12599,-1.56091 4.6063,-2.92255 5.563,-5.5462c0.95669,-2.62365 1.62992,-5.2473 0.24803,-7.97059c-0.3189,-0.59779 -0.35433,-1.39485 -0.28346,-2.09228c0.2126,-1.49448 -0.14173,-2.65686 -1.59449,-3.55355c-1.62992,-0.99632 -2.48032,-2.4576 -2.40945,-4.45024c0.03543,-1.16238 -0.03543,-2.55723 -0.6378,-3.48713c-1.02756,-1.66054 -2.55118,-3.02218 -3.86221,-4.51667c-0.24803,0.09963 -0.5315,0.19926 -0.77953,0.33211c0.35433,1.46127 0.24803,3.25466 1.13386,4.3174c1.31102,1.59412 1.52362,3.15502 0.81496,4.71593c-0.3189,0.76385 -1.80709,1.06274 -2.76378,1.56091c-0.24803,-0.43174 -0.5315,-0.86348 -0.67323,-1.46127c-0.3189,0.09963 -0.6378,0.16605 -1.06299,0.46495c-2.48032,1.2288 -4.11024,-0.39853 -5.59843,-1.69375c-0.28346,0.83027 -0.35433,1.62733 -0.77953,1.99265c-0.4252,0.2989 -1.45276,0.39853 -1.87795,0.09963c-0.7441,-0.43174 -1.45276,-1.19559 -1.66536,-1.95944c-0.56693,-1.79338 1.41732,-4.88198 3.33071,-5.47978c0.17717,-0.06642 0.4252,0.06642 0.77953,0.13284c-0.95669,1.12917 -2.05512,2.05907 -2.65748,3.22144c-0.99213,1.79338 -0.5315,2.72328 0.85039,2.98897c0.49606,-0.73064 0.77953,-1.72696 1.45276,-2.02586c1.06299,-0.53137 1.77166,0.39853 2.37402,1.19559c0.1063,0.13284 0.2126,0.33211 0.35433,0.36532c0.88583,0.13284 1.80709,0.43174 2.65748,0.33211c0.35433,-0.06642 0.6378,-0.9299 0.92126,-1.39485m-13.28741,25.14055c-3.11811,-2.35796 -6.23623,-4.68272 -9.28347,-6.94105c-0.24803,2.55723 5.563,21.25489 7.58268,24.3435c1.52362,-0.83027 2.94095,-2.12549 4.53544,-2.42439c5.17323,-0.86348 9.03544,-4.54988 14.13781,-5.47978c0.77953,-0.16605 1.52362,-0.73064 2.23229,-1.19559c1.55906,-1.06274 3.08268,-2.1587 4.74804,-3.32108c-0.24803,-2.39118 -0.5315,-4.98162 -0.81496,-7.50563c-7.08662,5.34693 -14.59844,6.775 -23.13782,2.52402m-16.75986,-52.4066c3.11811,2.25833 7.47638,1.39485 11.12599,-2.12549c-1.34646,-1.16238 -2.65748,-2.29154 -4.78347,-1.29522c-0.4252,0.19926 -1.62992,-0.49816 -2.12599,-1.06274c-0.85039,-0.89669 -1.38189,-2.02586 -1.98425,-2.95576c-2.48032,1.92622 -4.28741,4.05171 -2.23229,7.43921m22.28742,68.54703c1.77166,-0.09963 3.50788,-0.19926 5.27953,-0.36532c0.70866,-0.06642 1.55906,-0.13284 2.16142,-0.46495c2.51575,-1.39485 5.0315,-2.7897 7.44095,-4.35061c1.73622,-1.16238 3.72048,-2.25833 4.03937,-4.64951c-1.41732,0.631 -2.69292,1.46127 -4.00394,2.22512c-1.62992,0.9299 -3.25985,1.89301 -4.99607,2.69007c-1.66536,0.79706 -3.47244,1.32843 -5.20867,2.02586c-1.73622,0.66422 -3.40158,1.39485 -5.10237,2.09228c-1.73622,0.69743 -3.47244,1.36164 -5.10237,2.1587c-0.4252,0.16605 -0.60236,0.79706 -0.88583,1.2288c0.49606,0 1.09843,0.09963 1.52362,-0.09963c1.55906,-0.73064 3.08268,-1.56091 4.85434,-2.49081m-28.73625,-50.31432c0.28346,0.59779 0.60236,1.16238 0.81496,1.59412c0.88583,0.09963 1.70079,0.23248 2.51575,0.23248c0.85039,-0.03321 2.01969,0.06642 2.48032,-0.39853c2.23229,-2.19191 4.11024,-4.64951 4.14567,-8.07022c-0.5315,0.16605 -0.92126,0.2989 -1.27559,0.43174c-1.59449,0.66422 -3.18898,1.46127 -4.85434,1.95944c-2.30315,0.66422 -3.82678,2.05907 -3.82678,4.25098m8.43308,-8.43554c0.56693,-0.36532 1.41732,-0.631 1.62992,-1.12917c0.70866,-1.5277 1.16929,-3.18823 1.80709,-5.01483c-0.95669,0.13284 -1.70079,0.13284 -2.40945,0.33211c-2.55118,0.76385 -3.11811,0.59779 -4.85434,-1.29522c-0.7441,-0.79706 -1.66536,-1.49448 -2.48032,-2.19191c0.28346,1.46127 0.77953,2.65686 1.16929,3.85245c0.35433,1.12917 0.5315,2.32475 0.88583,3.48713c0.60236,1.89301 2.33858,1.89301 4.25197,1.95944m15.66143,-22.21801c-2.23229,-2.88934 -6.80316,-3.22144 -8.78741,-0.49816c2.12599,0 3.04725,1.26201 3.93307,2.82292c0.4252,0.76385 1.55906,1.36164 2.51575,1.69375c1.13386,0.36532 2.40945,0.2989 4.14567,0.49816c-0.60236,-1.56091 -1.09843,-2.95576 -1.80709,-4.51667m-2.87008,7.17353c-0.2126,-0.09963 -0.38976,-0.33211 -0.60236,-0.33211c-3.01181,0.03321 -5.84646,-0.19926 -7.93702,-2.82292c-0.92126,-1.12917 -2.87008,-0.69743 -3.50788,0.19926c0.49606,0.69743 0.99213,1.32843 1.38189,1.99265c0.70866,1.32843 1.48819,2.09228 3.29528,1.56091c0.85039,-0.23248 2.19685,0.03321 2.79922,0.56458c1.16929,0.99632 2.12599,0.69743 3.15355,0.09963c0.49606,-0.26569 0.92126,-0.66422 1.41732,-1.26201m-3.79134,-5.71225c-1.70079,-1.39485 -2.83465,-1.12917 -4.46457,1.09596c0.28346,0.33211 0.5315,0.66422 0.81496,0.99632c1.09843,1.26201 2.30315,2.29154 4.28741,2.09228c1.06299,-0.06642 2.48032,-0.16605 3.25985,0.36532c1.41732,0.96311 2.16142,0.13284 3.22441,-0.43174c-2.94095,-0.39853 -5.95276,-0.59779 -7.12205,-4.11814m-17.36222,14.812c-1.13386,0.83027 -2.58662,1.5277 -1.80709,3.28787c0.81496,1.82659 3.04725,2.75649 5.63386,2.42439c-0.88583,-2.55723 -1.77166,-5.11446 -2.62205,-7.67169c-0.14173,0.03321 -0.28346,0.06642 -0.4252,0.13284c-0.2126,0.56458 -0.38976,1.09596 -0.77953,1.82659m6.16536,26.93394c0.70866,1.49448 1.34646,3.02218 2.16142,4.45024c0.17717,0.33211 0.85039,0.39853 1.31102,0.59779c0.17717,-0.43174 0.5315,-0.86348 0.49606,-1.26201c-0.14173,-1.32843 -0.46063,-2.62365 -0.67323,-3.88566c-0.81496,0.43174 -1.45276,0.76385 -2.09055,1.09596c-0.14173,-0.16605 -0.28346,-0.33211 -0.4252,-0.46495c3.08268,-1.5277 -0.49606,-3.45392 0.77953,-5.14767c-2.65748,0.46495 -2.65748,0.46495 -2.05512,2.59044c0.14173,0.59779 0.28346,1.16238 0.49606,2.02586m1.87795,-9.09975c0.03543,-0.66422 0.1063,-1.29522 0.1063,-1.5277c-1.87795,0.33211 -3.54331,0.96311 -5.17323,0.89669c-2.58662,-0.13284 -3.25985,0.43174 -2.55118,2.75649c1.45276,-0.13284 2.90551,-0.49816 4.28741,-0.36532c1.55906,0.13284 2.48032,-0.43174 3.33071,-1.76017m-5.27953,-10.95955c-1.52362,-0.46495 -3.08268,-0.89669 -4.96063,-1.46127c0.92126,1.72696 1.80709,3.42071 2.58662,4.88198c1.87795,-0.59779 3.86221,-1.19559 5.84646,-1.82659c0,-0.13284 0,-0.2989 0.03543,-0.43174c-1.06299,-0.39853 -2.12599,-0.79706 -3.50788,-1.16238m4.9252,-8.76764c-2.01969,-1.12917 -3.68504,-2.52402 -3.61418,-5.47978c-1.09843,0.76385 -1.77166,1.2288 -2.58662,1.79338c1.66536,1.62733 3.04725,3.12181 4.57087,4.45024c0.5315,0.43174 1.48819,0.59779 2.23229,0.56458c1.45276,-0.06642 2.87008,-0.33211 4.28741,-0.56458c0.2126,-0.03321 0.38976,-0.26569 0.88583,-0.66422c-2.05512,0 -3.79134,0 -5.7756,-0.09963m-1.77166,-8.03701c0.67323,-0.76385 1.34646,-1.56091 2.16142,-2.49081c-2.30315,0.06642 -3.01181,0.96311 -2.16142,2.49081m23.59845,35.137c0,0 -0.03543,0.03321 0,0z" id="svg_1"/>
   <path fill="#d1d1d1" d="m40.10324,43.39969c-0.6378,-0.03321 -1.27559,-0.06642 -1.91339,-0.09963c0.03543,-0.13284 0.03543,-0.26569 0.03543,-0.39853c0.77953,-0.43174 1.59449,-0.89669 2.37402,-1.32843c0.14173,0.03321 0.28346,0.03321 0.4252,0.06642c-0.24803,0.56458 -0.49606,1.12917 -0.85039,1.76017c-0.14173,0.06642 -0.1063,0.03321 -0.07087,0z" id="svg_14"/>
   <path fill="#d1d1d1" d="m42.33552,45.06023c0,0.13284 0,0.2989 -0.07087,0.53137c0,-0.33211 0.03543,-0.76385 0.17717,-1.19559c0.14173,-0.03321 0.1063,-0.03321 0.03543,0.03321c-0.1063,0.23248 -0.1063,0.43174 -0.14173,0.631l0,0.00001z" id="svg_16"/>
   <path fill="#d1d1d1" d="m40.95363,45.2927c-0.24803,0.06642 -0.4252,0.03321 -0.7441,0.09963c0.14173,-0.03321 0.46063,-0.09963 0.7441,-0.09963z" id="svg_17"/>
   <path fill="#d1d1d1" d="m33.12291,45.25949c0,0 0.03543,-0.03321 0,0z" id="svg_18"/>
   <path fill="#d8d8d8" d="m29.22527,54.06034c-0.46063,-0.16605 -0.95669,-0.36532 -1.45276,-0.53137c0.24803,-0.43174 0.38976,-0.96311 0.77953,-1.26201c1.55906,-1.12917 3.08268,-2.35796 4.8189,-3.25466c0.81496,-0.43174 2.05512,-0.26569 3.08268,-0.26569c0.81496,0 1.77166,0.43174 2.48032,0.16605c1.62992,-0.56458 2.79922,-0.06642 3.89764,0.96311c0.85039,0.79706 1.70079,1.62733 2.58662,2.35796c0.24803,0.23248 0.70866,0.23248 1.62992,0.53137c-1.13386,0.53137 -1.84252,0.86348 -2.79922,1.2288c-0.38976,0.03321 -0.5315,0.03321 -0.81496,0c-4.53544,-0.26569 -8.92914,-2.22512 -13.42915,0.03321c-0.35433,0 -0.56693,0.03321 -0.77953,0.03321m2.83465,-1.72696c1.70079,-0.06642 3.36614,-0.19926 5.06693,-0.16605c2.26772,0.06642 4.5,0.2989 7.15749,0.49816c-0.56693,-0.49816 -0.81496,-0.66422 -0.99213,-0.86348c-1.24016,-1.36164 -2.40945,-2.7897 -4.67717,-1.59412c-0.35433,0.19926 -1.02756,0.03321 -1.52362,-0.13284c-2.79922,-0.76385 -5.42126,0.16605 -7.47638,3.02218c0.99213,-0.2989 1.59449,-0.46495 2.44488,-0.76385z" id="svg_19"/>
   <path fill="#d8d8d8" d="m31.84732,29.45116c0.38976,0.59779 0.77953,1.19559 1.41732,2.19191c-1.31102,0.23248 -2.44488,0.66422 -3.57874,0.66422c-2.90551,0 -5.7756,-0.16605 -8.68111,-0.2989c-0.24803,0 -0.49606,-0.26569 -0.7441,-0.631c-0.07087,-0.49816 -0.07087,-0.73064 -0.07087,-1.09596c0.03543,-0.23248 0.03543,-0.36532 0,-0.49816c0,0 0,0 0.1063,0.09963c0.5315,-0.23248 0.99213,-0.59779 1.45276,-0.9299c3.93307,-2.95576 6.55512,-2.82292 10.09843,0.49816m-1.70079,1.72696c0.4252,-0.03321 0.85039,-0.06642 1.45276,-0.06642c-1.27559,-2.05907 -2.79922,-3.42071 -5.27953,-3.05539c-1.94882,0.26569 -3.82678,0.79706 -4.96063,3.0886c3.01181,0 5.74016,0 8.78741,0.03321l-0.00001,0z" id="svg_20"/>
   <path fill="#d8d8d8" d="m28.65834,23.47322c-4.18111,0.53137 -8.29135,0.76385 -11.69292,3.3875c0.85039,-1.82659 2.44488,-2.7897 4.18111,-3.28787c3.61418,-1.09596 7.29922,-1.56091 11.05513,-0.43174c2.01969,0.631 4.11024,3.15502 4.03937,5.11446c-0.03543,0.39853 -0.28346,0.76385 -0.56693,1.46127c-0.38976,-0.66422 -0.70866,-0.96311 -0.70866,-1.26201c-0.07087,-2.65686 -1.45276,-4.18456 -4.25197,-4.58309c-0.6378,-0.09963 -1.27559,-0.26569 -2.05512,-0.39853l-0.00001,0.00001z" id="svg_21"/>
   <path fill="#d1d1d1" d="m20.18983,30.41427c0,0.23248 0,0.46495 0.03543,0.83027c-0.46063,0.03321 -0.92126,-0.06642 -1.38189,-0.13284c-0.4252,-2.59044 2.40945,-5.61262 5.74016,-6.1772c4.88977,-0.79706 8.39765,1.02953 9.31891,5.18088c-0.60236,-0.23248 -0.99213,-0.43174 -1.52362,-0.76385c-2.23229,-3.65318 -4.96063,-3.75282 -8.36221,-3.12181c-1.84252,0.36532 -3.40158,1.56091 -3.82678,3.55355c0,0 0,0 -0.1063,0c-0.03543,0.19926 0.03543,0.43174 0.1063,0.631z" id="svg_22"/>
   <path fill="#d1d1d1" d="m29.36701,54.12677c0.07087,-0.06642 0.28346,-0.09963 0.56693,0c0.70866,0.56458 1.34646,1.29522 2.05512,1.36164c2.87008,0.2989 5.74016,0.56458 8.57481,0.46495c1.06299,-0.06642 2.01969,-1.26201 3.01181,-1.92622c0.14173,0 0.28346,0 0.5315,-0.03321c0.03543,0.43174 0.1063,0.99632 -0.14173,1.26201c-1.52362,1.62733 -3.43701,2.22512 -5.81103,1.82659c-1.27559,-0.23248 -2.65748,0 -4.00394,-0.16605c-1.24016,-0.16605 -2.51575,-0.46495 -3.64961,-0.96311c-0.49606,-0.23248 -0.67323,-1.16238 -1.13386,-1.82659l0,-0.00001z" id="svg_23"/>
   <path fill="#dbdbdb" d="m42.44182,44.9938c-0.07087,-0.13284 -0.07087,-0.33211 0.03543,-0.56458c0.07087,0.13284 0.07087,0.33211 -0.03543,0.56458z" id="svg_24"/>
   <path fill="#191919" d="m20.18983,30.28143c-0.07087,-0.06642 -0.14173,-0.2989 -0.1063,-0.49816c0.14173,0.13284 0.14173,0.26569 0.1063,0.49816z" id="svg_25"/>
  </g>
  <g id="svg_26">
   <path fill="#eeeeee" d="m135.85975,32.87027c-1.35656,-2.19854 -2.61622,-4.39708 -3.82744,-6.6221c-2.20441,-3.99975 -4.40882,-7.9995 -6.58901,-11.99925c-0.16957,-0.31786 -0.36336,-0.63572 -0.7025,-1.21847c0,5.4831 0,10.62186 0,15.84007c0.67828,0.18542 1.35656,0.4503 2.05907,0.50328c1.06587,0.07947 1.40501,0.60923 1.25966,1.69526c-0.07267,0.55626 0,1.11251 0,1.74824c-3.56097,0 -6.95237,0 -10.61024,0c0.0969,-1.05954 -0.14535,-2.41045 0.36336,-3.07266c0.53293,-0.66221 1.76837,-0.60923 2.71312,-0.87412c0,-6.75455 0,-13.45612 0,-20.18418c-0.9932,-0.26488 -1.91372,-0.50328 -2.93114,-0.79465c0,-0.92709 0,-1.88068 0,-3.09915c1.8895,0 3.82744,0.18542 5.74116,-0.07947c1.84105,-0.2384 2.73735,0.50328 3.63365,2.22503c2.85847,5.61554 5.93495,11.09865 8.91454,16.63473c0.19379,0.37084 0.38759,0.71519 0.82363,1.03305c0,-0.50328 0,-1.00656 0,-1.50984c0,-4.37059 -0.04845,-8.74118 0.02422,-13.11177c0.02422,-1.03305 -0.26647,-1.50984 -1.18699,-1.64228c-0.58138,-0.07947 -1.16277,-0.26488 -1.7926,-0.42381c0,-1.00656 0,-1.96014 0,-3.04617c3.36718,0 6.68591,0 10.05308,0c0,0.98007 0,1.96014 0,3.01968c-0.96897,0.26488 -1.8895,0.50328 -2.97959,0.79465c0,8.05248 0,16.07847 0,24.21042c-1.71993,0 -3.2945,0 -4.96598,-0.02649m1.74415,-5.29768c-0.02422,0.21191 -0.04845,0.4503 -0.07267,0.92709c-0.31492,-0.55626 -0.50871,-0.90061 -0.67828,-1.21847c-3.68209,-6.83401 -7.36419,-13.64154 -11.07051,-20.44906c-0.21802,-0.42381 -0.62983,-0.98007 -0.96897,-1.00656c-2.10751,-0.07947 -4.23925,-0.02649 -6.24987,-0.02649c-0.31492,1.08603 0,1.48335 0.75095,1.58931c0.48449,0.05298 0.9932,0.15893 1.40501,0.39733c0.29069,0.18542 0.67828,0.60923 0.7025,0.92709c0.02422,6.96645 0.02422,13.93291 0.02422,20.95234c-1.01742,0.26488 -1.98639,0.52977 -2.95536,0.79465c0,0.50328 0,0.92709 0,1.3774c2.90692,0 5.74116,0 8.64808,0c-0.02422,-0.50328 -0.02422,-0.90061 -0.04845,-1.35091c-1.16277,-0.29137 -2.22864,-0.55626 -3.27028,-0.82114c0,-6.75455 0,-13.40314 0,-20.34311c0.33914,0.60923 0.53293,0.98007 0.72673,1.32442c3.70632,6.75455 7.38841,13.53558 11.11895,20.26364c0.19379,0.39733 0.55716,0.90061 0.87207,0.95358c1.09009,0.10595 2.20441,0.02649 3.3914,0.02649c0,-0.63572 0,-1.11251 0,-1.58931c0,-6.27776 0,-12.52902 0,-18.80678c0,-1.11251 -0.33914,-2.48991 0.14535,-3.23159c0.48449,-0.74168 1.7926,-0.84763 2.76157,-1.24496c0,-0.34435 0,-0.76816 0,-1.11251c-2.76157,0 -5.47469,0 -8.23626,0c0.04845,0.47679 0.07267,0.87412 0.0969,1.21847c0.9932,0.29137 1.91372,0.55626 2.90692,0.84763c0,6.48966 0,12.92635 0,19.60143l0,0.00002z" id="svg_2"/>
   <path fill="#e6e6e6" d="m151.38752,32.89675c-1.71993,0 -3.34295,0 -5.01443,0c0,-1.11251 0,-2.11907 0,-3.23159c0.92052,-0.26488 1.84105,-0.50328 2.83424,-0.76816c0,-6.70157 0,-13.40314 0,-20.21066c-0.92052,-0.2384 -1.86527,-0.50328 -2.88269,-0.79465c0,-0.98007 0,-1.93365 0,-3.04617c6.12875,0 12.20905,0 18.36202,0c0,2.35747 0,4.7944 0,7.33729c-0.94475,0 -1.93794,0 -3.02804,0c-0.29069,-1.05954 -0.58138,-2.17205 -0.8963,-3.31105c-2.22864,0 -4.45727,0 -6.73436,0c0,2.41045 0,4.82089 0,7.25783c2.6889,0 5.30512,0 7.99402,0c0,1.3774 0,2.67533 0,4.07922c-2.61622,0 -5.25667,0 -7.96979,0c0,2.88724 0,5.64203 0,8.47629c2.32553,0 4.69951,0 7.21884,0c0.21802,-1.16549 0.48449,-2.43693 0.72673,-3.70838c1.06587,0 2.05907,0 3.10071,0c0,2.62235 0,5.21822 0,7.92004c-4.57839,0 -9.08411,0 -13.71095,0m-1.18699,-21.29669c0,6.03936 0,12.05223 0,18.0651c-1.06587,0.29137 -1.98639,0.55626 -2.93114,0.79465c0,0.50328 0,0.92709 0,1.3774c5.66849,0 11.24008,0 16.88434,0c0,-1.96014 0,-3.8938 0,-5.80096c-1.04164,-0.37084 -1.5988,-0.02649 -1.67148,1.21847c-0.04845,0.82114 -0.31492,1.64228 -0.46026,2.41045c-3.02804,0 -5.9834,0 -8.93877,0c0,-3.49647 0,-6.88699 0,-10.43644c2.71312,0 5.40202,0 8.01824,0c0,-0.79465 0,-1.3774 0,-2.09259c-2.71312,0 -5.35357,0 -7.99402,0c0,-3.17861 0,-6.19829 0,-9.27095c2.83424,0 5.59581,0 8.35738,0c0.21802,0.79465 0.46026,1.48335 0.58138,2.22503c0.16957,1.24496 0.77518,1.45686 1.74415,1.08603c0,-1.8277 0,-3.60242 0,-5.32417c-5.57159,0 -11.04628,0 -16.61787,0c0.12112,2.41045 2.20441,1.19198 3.02804,2.38396c0,0.90061 0,2.01312 0,3.36403l0.00001,-0.00001z" id="svg_5"/>
   <path fill="#ededed" d="m184.9624,13.48074c-0.87207,0 -1.64725,0 -2.44665,0c-0.36336,-1.21847 -0.7025,-2.41045 -1.09009,-3.54945c-0.0969,-0.29137 -0.29069,-0.71519 -0.50871,-0.76816c-1.81682,-0.42381 -3.65787,-0.92709 -5.45047,-0.05298c-2.30131,1.11251 -2.56778,3.62891 -0.48449,5.13875c1.13854,0.82114 2.4951,1.32442 3.77899,1.96014c1.52613,0.76816 3.14916,1.3774 4.57839,2.30449c4.1908,2.64884 3.56097,8.79416 1.04164,11.57544c-2.76157,3.01968 -6.20142,3.57594 -9.85929,3.01968c-1.62303,-0.2384 -3.19761,-0.82114 -4.79641,-1.19198c-0.65406,-0.15893 -0.92052,-0.47679 -0.8963,-1.24496c0.04845,-2.19854 0.02422,-4.39708 0.02422,-6.67508c1.21122,0 2.37398,0 3.65787,0c0.21802,1.11251 0.41181,2.30449 0.67828,3.46998c0.0969,0.37084 0.36336,0.79465 0.65406,0.92709c1.7926,0.74168 3.63365,0.84763 5.45047,0.10595c1.30811,-0.55626 2.32553,-1.43037 2.42243,-3.12563c0.07267,-1.64228 -0.96897,-2.43693 -2.13174,-2.99319c-2.25286,-1.11251 -4.57839,-1.98663 -6.7828,-3.15212c-3.94856,-2.14556 -5.13555,-7.41676 -2.592,-11.36353c1.64725,-2.5164 4.11813,-3.31105 6.75858,-3.49647c3.02804,-0.21191 5.91073,0.55626 8.59963,1.58931c0,2.41045 0,4.68845 -0.02422,6.96645c0,0.18542 -0.31492,0.37084 -0.58138,0.55626m-9.39903,-5.4831c1.42923,-0.05298 2.88269,-0.15893 4.31193,-0.13244c1.50191,0 2.51933,0.74168 2.6889,2.48991c0.02422,0.31786 0.19379,0.58275 0.24224,0.90061c0.14535,1.24496 0.7994,1.45686 1.8895,1.05954c0,-1.8277 0,-3.70838 0,-5.64203c-3.12493,-0.98007 -6.27409,-1.72175 -9.59282,-1.03305c-2.61622,0.55626 -4.72374,2.72831 -5.13555,5.43013c-0.46026,3.28456 0.60561,5.80096 3.22183,7.28432c1.01742,0.58275 2.10751,1.05954 3.17338,1.53633c1.40501,0.66221 2.90692,1.11251 4.21503,1.96014c2.85847,1.8277 2.76157,5.40364 -0.14535,7.12538c-2.44665,1.45686 -4.96598,1.21847 -7.46108,0.10595c-0.29069,-0.13244 -0.53293,-0.60923 -0.60561,-0.98007c-0.24224,-1.03305 -0.38759,-2.0661 -0.58138,-3.07266c-0.7025,0 -1.33234,0 -2.01062,0c0,1.74824 -0.02422,3.41701 0.02422,5.08578c0.02422,0.31786 0.24224,0.82114 0.46026,0.90061c3.82744,1.35091 7.70333,2.0661 11.50654,0.02649c2.47088,-1.32442 3.60942,-3.68189 3.68209,-6.6221c0.07267,-2.78128 -1.40501,-4.50303 -3.4883,-5.69501c-0.7025,-0.42381 -1.45346,-0.76816 -2.18019,-1.08603c-1.50191,-0.66221 -3.02804,-1.21847 -4.45727,-1.98663c-0.7994,-0.4503 -1.5988,-1.11251 -2.08329,-1.93365c-1.30811,-2.14556 -0.43604,-4.26464 2.32553,-5.7215l0.00001,-0.00002z" id="svg_6"/>
   <path fill="#eeeeee" d="m197.65594,20.97697c-1.8895,-1.08603 -3.90011,-1.85419 -5.42624,-3.25808c-2.20441,-2.03961 -2.51933,-4.95333 -1.67148,-7.89355c0.92052,-3.15212 3.19761,-4.63547 6.00763,-5.21822c3.3914,-0.71519 6.66168,0.02649 9.85929,1.24496c0.24224,0.07947 0.55716,0.50328 0.58138,0.76816c0.04845,2.25152 0.02422,4.47654 0.02422,6.78104c-1.23544,0 -2.20441,0 -3.27028,0c-0.31492,-1.05954 -0.58138,-2.19854 -1.01742,-3.25808c-0.19379,-0.47679 -0.7025,-1.00656 -1.11432,-1.08603c-1.38079,-0.18542 -2.81002,-0.34435 -4.16658,-0.18542c-1.23544,0.15893 -2.30131,0.95358 -2.56778,2.43693c-0.24224,1.45686 0.43604,2.5164 1.55036,3.12563c1.40501,0.76816 2.88269,1.32442 4.2877,2.0661c1.64725,0.87412 3.4883,1.58931 4.84486,2.86075c3.24606,3.07266 2.56778,9.16499 -1.16277,11.8933c-2.592,1.93365 -5.52314,2.35747 -8.55118,1.88068c-1.8895,-0.31786 -3.75477,-0.87412 -5.66849,-1.32442c0,-2.72831 0,-5.2712 0,-7.84057c1.18699,0 2.34976,0 3.5852,0c0.19379,1.08603 0.31492,2.22503 0.62983,3.31105c0.14535,0.47679 0.58138,1.05954 0.9932,1.21847c1.81682,0.71519 3.65787,0.74168 5.42624,-0.13244c1.18699,-0.55626 2.13174,-1.48335 2.15596,-3.04617c0.02422,-1.53633 -0.94475,-2.30449 -2.01062,-2.88724c-1.04164,-0.55626 -2.15596,-0.95358 -3.31873,-1.45686m-2.66467,-11.76086c1.35656,-1.48335 3.05226,-1.56282 4.84486,-1.48335c3.14916,0.15893 3.27028,0.21191 4.16658,3.41701c0.29069,1.139 0.75095,1.64228 1.96217,1.16549c0,-1.8277 0,-3.6554 0,-5.56257c-2.64045,-1.24496 -7.14617,-1.74824 -9.85929,-1.05954c-2.66467,0.66221 -4.62684,2.94021 -4.94176,5.66852c-0.36336,3.23159 0.7994,5.64203 3.51252,7.12538c1.01742,0.55626 2.05907,0.98007 3.10071,1.45686c1.38079,0.63572 2.83424,1.11251 4.09391,1.93365c2.81002,1.80121 2.71312,5.29768 -0.12112,7.07241c-2.22864,1.3774 -4.55417,1.16549 -6.92815,0.4503c-0.82363,-0.26488 -1.25966,-0.76816 -1.33234,-1.74824c-0.04845,-0.90061 -0.31492,-1.80121 -0.46026,-2.64884c-0.7025,0 -1.30811,0 -1.98639,0c0,1.77472 -0.02422,3.49647 0.02422,5.19173c0,0.29137 0.21802,0.74168 0.41181,0.82114c4.04546,1.3774 8.09092,2.14556 12.0637,-0.29137c3.46407,-2.11907 5.01443,-9.05904 -0.12112,-11.86681c-1.06587,-0.58275 -2.20441,-1.03305 -3.31873,-1.56282c-1.55036,-0.79465 -3.19761,-1.45686 -4.65107,-2.46342c-1.81682,-1.24496 -1.98639,-3.57594 -0.46026,-5.61554l0.00001,0.00001z" id="svg_7"/>
   <path fill="#ededed" d="m78.47238,4.68659c1.57458,0 3.00381,0 4.52994,0c0,2.48991 0,4.87387 0,7.33729c-0.96897,0 -1.93794,0 -3.00381,0c-0.29069,-1.00656 -0.58138,-2.03961 -0.8963,-3.15212c-2.20441,0 -4.45727,0 -6.7828,0c0,2.5164 0,5.00631 0,7.62866c2.64045,0 5.32935,0 8.04247,0c0,1.45686 0,2.7548 0,4.18517c-2.6889,0 -5.37779,0 -8.09092,0c0,2.78128 0,5.43013 0,8.18492c1.13854,0.26488 2.32553,0.52977 3.4883,0.82114c0,1.05954 0,2.0661 0,3.12563c-3.70632,0 -7.36419,0 -11.07051,0c0,-1.03305 0,-2.0661 0,-3.15212c0.94475,-0.26488 1.8895,-0.50328 2.85847,-0.76816c0,-6.70157 0,-13.40314 0,-20.21066c-0.94475,-0.26488 -1.8895,-0.52977 -2.88269,-0.79465c0,-0.98007 0,-1.96014 0,-3.2051c4.57839,0 9.13256,0 13.80785,0m-3.02804,12.87337c-1.35656,0 -2.71312,0 -3.99701,0c0,-3.33754 0,-6.51615 0,-9.77423c2.61622,0 5.13555,0 7.6791,0.05298c0.29069,0 0.67828,0.37084 0.7994,0.66221c0.31492,0.84763 0.53293,1.74824 0.77518,2.59587c0.50871,0 0.92052,0 1.40501,0c0,-1.80121 0,-3.54945 0,-5.24471c-5.54736,0 -11.02206,0 -16.5452,0c0,0.47679 -0.0969,1.05954 0.02422,1.11251c0.94475,0.39733 1.93794,0.71519 2.90692,1.05954c0,7.23134 0,14.43619 0,21.64104c-0.7025,0.18542 -1.33234,0.4503 -2.01062,0.52977c-1.04164,0.13244 -1.13854,0.71519 -0.84785,1.64228c3.07649,0 6.12875,0 9.15679,0c0.26647,-1.00656 0.04845,-1.53633 -0.94475,-1.61579c-0.82363,-0.07947 -1.62303,-0.37084 -2.42243,-0.55626c0,-3.36403 0,-6.6221 0,-10.03911c2.71312,0 5.37779,0 8.04247,0c0,-0.74168 0,-1.35091 0,-2.0661c-1.28389,0 -2.54355,0 -4.02123,0z" id="svg_9"/>
   <path fill="#e9e9e9" d="m100.71029,32.26103c-0.02422,-2.59587 0,-2.59587 2.25286,-3.07266c0.38759,-0.10595 0.77518,-0.21191 1.21122,-0.31786c0,-6.64859 0,-13.24421 0,-19.94578c-1.21122,0 -2.42243,0 -3.75477,0c-0.29069,1.21847 -0.60561,2.46342 -0.8963,3.70838c-1.04164,0 -2.01062,0 -3.05226,0c0,-2.62235 0,-5.21822 0,-7.86706c6.71013,0 13.44449,0 20.20307,0c0,2.62235 0,5.16524 0,7.81408c-0.9932,0 -1.98639,0 -3.10071,0c-0.26647,-1.16549 -0.58138,-2.38396 -0.8963,-3.68189c-1.23544,0 -2.47088,0 -3.75477,0c0,6.6221 0,13.21772 0,19.97227c1.11432,0.26488 2.27708,0.52977 3.43985,0.82114c0,1.05954 0,2.0661 0,3.2051c-3.60942,0 -7.19462,0 -10.77981,-0.02649c-0.29069,0 -0.58138,-0.31786 -0.87207,-0.60923m15.01907,-26.38247c-0.16957,-0.05298 -0.36336,-0.18542 -0.53293,-0.18542c-5.86228,0 -11.72456,0 -17.56262,0.02649c-0.07267,0 -0.14535,0.07947 -0.24224,0.13244c0,1.90717 0,3.84082 0,5.82745c0.48449,0 0.8963,0 1.42923,0c0.24224,-1.05954 0.46026,-2.11907 0.75095,-3.15212c0.0969,-0.29137 0.43604,-0.6887 0.65406,-0.6887c1.62303,-0.07947 3.22183,-0.05298 4.84486,-0.05298c0,7.39027 0,14.6481 0,21.90592c-3.53675,0.84763 -3.53675,0.84763 -3.36718,2.14556c3.24606,0 6.49211,0 9.71394,0c0.29069,-1.08603 -0.02422,-1.53633 -0.9932,-1.61579c-0.7994,-0.07947 -1.57458,-0.34435 -2.34976,-0.52977c0,-7.3108 0,-14.56863 0,-21.90592c1.5988,0 3.12493,-0.02649 4.65107,0.05298c0.29069,0 0.72673,0.4503 0.82363,0.79465c0.31492,0.98007 0.50871,2.01312 0.75095,3.04617c0.50871,0 0.94475,0 1.47768,0c0,-1.85419 0,-3.70838 -0.04845,-5.80096l0.00001,0z" id="svg_10"/>
   <path fill="#eeeeee" d="m87.87141,16.23554c0,-2.56938 0,-4.97982 0,-7.52271c-0.9932,-0.26488 -1.93794,-0.52977 -2.97959,-0.82114c0,-0.92709 0,-1.88068 0,-2.99319c3.46407,0 6.95237,0 10.51335,0c0,0.90061 0,1.93365 0,3.01968c-0.94475,0.2384 -1.86527,0.50328 -2.83424,0.76816c0,6.70157 0,13.40314 0,20.15769c0.19379,0.07947 0.41181,0.15893 0.62983,0.2384c2.47088,0.6887 2.47088,0.6887 2.20441,3.73487c-3.4883,0 -6.95237,0 -10.51335,0c0,-1.00656 0,-2.01312 0,-3.12563c0.94475,-0.26488 1.93794,-0.55626 2.97959,-0.84763c0,-4.18517 0,-8.34385 0,-12.60849m1.62303,-10.38346c-1.23544,0 -2.4951,0 -3.68209,0c-0.21802,0.95358 -0.04845,1.45686 0.77518,1.50984c0.31492,0.02649 0.62983,0.21191 0.94475,0.2384c1.01742,0.07947 1.23544,0.66221 1.23544,1.74824c-0.04845,6.30424 -0.02422,12.63498 -0.02422,18.93922c0,0.47679 0,0.92709 0,1.3774c-1.09009,0.29137 -2.01062,0.55626 -2.95536,0.79465c0,0.50328 0,0.92709 0,1.35091c2.97959,0 5.88651,0 8.86609,0c-0.04845,-2.46342 -2.15596,-1.27144 -3.07649,-2.38396c0,-0.29137 0,-0.76816 0,-1.27144c0,-6.09234 0,-12.15818 0,-18.25052c0,-1.96014 0,-1.93365 1.76837,-2.43693c0.41181,-0.10595 0.82363,-0.26488 1.28389,-0.42381c-0.02422,-0.4503 -0.04845,-0.82114 -0.0969,-1.19198c-1.64725,0 -3.22183,0 -5.03865,0l-0.00001,-0.00002z" id="svg_13"/>
  </g>
  <g id="svg_28">
   <path fill="#eaeaea" d="m98.3996,86.60239c-11.26897,0 -22.36048,0 -33.71818,0c0.1331,-2.00706 -0.35493,-4.38754 0.53239,-5.50776c0.93169,-1.1669 3.19435,-1.12022 4.969,-1.58698c0,-11.85569 0,-23.6647 0,-35.56706c-1.73028,-0.46676 -3.41618,-0.88684 -5.23519,-1.3536c0,-1.77369 0,-3.50069 0,-5.46108c11.18024,0 22.31611,0 33.58508,0c0,4.29419 0,8.58837 0,13.02258c-1.86337,0 -3.68238,0 -5.59012,0c-0.53239,-1.86704 -1.06478,-3.78075 -1.59718,-5.83449c-4.12604,0 -8.20772,0 -12.46685,0c0,4.15416 0,8.30832 0,12.69585c4.88026,0 9.80489,0 14.77389,0c0,2.56718 0,4.90097 0,7.3748c-4.92463,0 -9.76053,0 -14.77389,0c0,5.041 0,9.8953 0,14.84295c4.4366,0 8.82884,0 13.35417,0c0.44366,-2.14709 0.84295,-4.29419 1.28661,-6.53463c1.81901,0 3.63801,0 5.67885,0c0,4.43421 0.04437,8.86843 0,13.34932c0,0.1867 -0.39929,0.37341 -0.79859,0.56011m-18.58937,-47.93618c-4.4366,0 -8.87321,0 -13.08798,0c-0.66549,2.00706 -0.1331,2.7072 1.24225,2.94058c0.53239,0.04668 1.02042,0.28006 1.50844,0.32673c1.95211,0.23338 2.6176,1.1669 2.57323,3.36067c-0.1331,10.54876 -0.08873,21.1442 -0.08873,31.69295c0,1.30693 0,2.61385 0,3.92078c-1.37535,0.37341 -2.57323,0.70014 -3.81548,1.02687c-1.95211,0.51344 -1.95211,0.51344 -1.41971,2.80056c10.24855,0 20.4971,0 30.79002,0c0,-3.50069 0,-6.86136 0,-10.22203c-1.81901,-0.56011 -2.88379,-0.28006 -3.06126,1.96039c-0.08873,1.49363 -0.57676,2.98726 -0.88732,4.48089c-5.50139,0 -10.86968,0 -16.28233,0c0,-6.11455 0,-12.13574 0,-18.39032c4.92463,0 9.76053,0 14.59642,0c0,-1.3536 0,-2.47382 0,-3.78075c-4.969,0 -9.80489,0 -14.59642,0c0,-5.60111 0,-10.92217 0,-16.42993c3.85984,0 7.63096,0 11.3577,0c3.90421,0 4.03731,0 4.92463,3.8741c0.44366,2.00706 1.24225,2.84723 3.19435,2.14709c0,-3.17396 0,-6.34793 0,-9.70859c-5.59012,0 -11.04714,0 -16.94782,0l0.00001,0.00001z" id="svg_3"/>
   <path fill="#e6e6e6" d="m202.88159,80.11444c0.88732,-0.23338 1.55281,-0.42008 2.30703,-0.60679c0,-11.85569 0,-23.61802 0,-35.56706c-1.77464,-0.42008 -3.50492,-0.88684 -5.32392,-1.40028c0,-1.68033 0,-3.40734 0,-5.36773c11.18024,0 22.27175,0 33.58508,0c0,4.20083 0,8.58837 0,13.02258c-1.81901,0 -3.59365,0 -5.50139,0c-0.53239,-1.96039 -1.10915,-3.92078 -1.68591,-5.92784c-4.08167,0 -8.11898,0 -12.33376,0c0,4.24751 0,8.49502 0,12.83588c4.92463,0 9.71616,0 14.64079,0c0,2.38047 0,4.66759 0,7.14142c-4.79153,0 -9.62743,0 -14.64079,0c0,5.08768 0,9.94197 0,14.98297c4.34787,0 8.65138,0 13.22108,0c0.44366,-2.10042 0.93169,-4.34086 1.41971,-6.58131c1.95211,0 3.77111,0 5.67885,0c0,4.57424 0,9.05513 0,13.7694c-11.44644,0 -22.8485,0 -34.38367,0c0,-1.72701 0,-3.45402 0,-5.46108c0.88732,-0.23338 1.86337,-0.51344 3.01689,-0.84017m9.2725,-8.16829c0,-3.08061 0,-6.16122 0,-9.47521c5.10209,0 9.93799,0 14.77389,0c0,-1.30693 0,-2.3338 0,-3.59405c-5.01336,0 -9.84926,0 -14.59642,0c0,-5.64779 0,-11.01552 0,-16.42993c5.14646,0 10.15982,0 14.72952,0c2.17394,1.77369 0,6.62798 4.74716,6.02119c0,-3.31399 0,-6.44128 0,-9.52189c-10.15982,0 -20.18654,0 -30.34636,0c0.04437,0.93352 0.08873,1.58698 0.08873,2.24044c1.15352,0.32673 2.12957,0.70014 3.10562,0.79349c1.81901,0.23338 2.3514,1.12022 2.30703,3.08061c-0.1331,7.84156 -0.04437,15.68311 -0.04437,23.52467c0,4.15416 0,8.26164 0,11.85569c-1.64154,2.10042 -5.67885,-0.23338 -5.45702,4.24751c10.42602,0 20.7633,0 31.01185,0c0,-3.54737 0,-6.90804 0,-10.17535c-1.99647,-0.65346 -2.88379,0 -3.06126,2.10042c-0.08873,1.49363 -0.57676,2.94058 -0.88732,4.29419c-5.59012,0 -10.95841,0 -16.37106,0c0,-2.89391 0,-5.69446 0,-8.96178l0.00001,0z" id="svg_4"/>
   <path fill="#eaeaea" d="m166.23525,47.72134c-0.2662,1.1669 -0.48803,2.14709 -0.75422,3.12729c-1.90774,0 -3.72675,0 -5.59012,0c0,-4.62092 0,-9.10181 0,-13.7694c12.24502,0 24.44568,0 36.86817,0c0,4.48089 0,9.05513 0,13.90943c-1.50844,0 -3.06126,0.09335 -4.5697,-0.04668c-0.44366,-0.04668 -1.10915,-0.70014 -1.24225,-1.21357c-0.57676,-1.77369 -0.93169,-3.59405 -1.37535,-5.46108c-2.3514,0 -4.61407,0 -6.96547,0c0,11.71566 0,23.38464 0,35.24033c2.0852,0.46676 4.21477,0.93352 6.43307,1.44695c0,1.86704 0,3.59405 0,5.50776c-7.14293,0 -14.19713,0 -21.47316,0c0,-1.44695 -0.1331,-2.84723 0.04437,-4.20083c0.08873,-0.60679 0.75422,-1.40028 1.33098,-1.58698c1.59718,-0.51344 3.28309,-0.74681 5.01336,-1.12022c0,-11.76233 0,-23.47799 0,-35.287c-2.26267,0 -4.48097,0 -6.83237,0c-0.2662,1.07355 -0.53239,2.19377 -0.88732,3.45402m9.5387,15.35638c0,5.97452 0,11.90236 0,17.8302c-2.3514,0.51344 -4.4366,0.98019 -6.56617,1.49363c0.04437,0.88684 0.08873,1.63366 0.1331,2.28712c6.12251,0 12.06756,0 18.05697,0c0,-0.84017 -0.04437,-1.54031 -0.08873,-2.3338c-2.12957,-0.51344 -4.17041,-0.98019 -6.21124,-1.40028c0,-12.92923 0,-25.71844 0,-38.50764c3.37182,0 6.52181,0 9.71616,0c0.57676,2.3338 1.15352,4.52756 1.68591,6.67466c1.02042,0 1.86337,0 2.6176,0c0,-3.54737 0,-6.90804 0,-10.31538c-11.26897,0 -22.40484,0 -33.54072,0c0,3.54737 0,6.90804 0,10.40873c0.88732,0 1.68591,0 2.57323,0c0.57676,-2.24044 1.10915,-4.43421 1.68591,-6.72133c3.28309,0 6.52181,0 9.93799,0c0,6.76801 0,13.44267 0,20.58408l-0.00001,0.00001z" id="svg_8"/>
   <path fill="#e8e8e8" d="m105.85309,86.60239c-0.79859,-0.04668 -1.37535,-0.04668 -1.90774,-0.09335c-0.70986,-5.18103 -0.70986,-5.18103 5.23519,-7.04807c0,-11.80901 0,-23.57134 0,-35.52038c-1.77464,-0.46676 -3.54928,-0.93352 -5.32392,-1.40028c0,-1.77369 0,-3.45402 0,-5.36773c6.43307,0 12.77742,0 19.29922,0c0,1.68033 0,3.50069 0,5.41441c-1.73028,0.42008 -3.46055,0.84017 -5.27956,1.3536c0,11.71566 0,23.47799 0,35.33368c3.90421,0 7.71969,0 11.66827,0c0.35493,-2.10042 0.75422,-4.15416 1.02042,-6.2079c0.1331,-1.26025 0.62112,-1.72701 1.81901,-1.63366c1.41971,0.09335 2.83943,0 4.39224,0c0,5.041 0,9.94197 0,15.16968c-10.24855,0 -20.4971,0 -30.92312,0m11.6239,-1.77369c5.90068,0 11.80136,0 17.65768,0c0,-3.96745 0,-7.70153 0,-11.48228c-1.02042,0 -1.86337,0 -2.83943,0c-0.44366,2.56718 -0.88732,5.08768 -1.33098,7.5615c-5.01336,0 -9.89362,0 -14.90699,0c0,-10.92217 0,-21.61095 0,-32.34642c0,-1.91371 -0.48803,-4.34086 0.39929,-5.64779c0.79859,-1.1669 3.19435,-1.1669 4.88026,-1.68033c0.04437,0 0.08873,-0.09335 0.1331,-0.14003c0,-0.74681 0,-1.44695 0,-2.00706c-5.45702,0 -10.78094,0 -15.97177,0c-0.35493,1.49363 -0.04437,2.3338 1.33098,2.47382c0.70986,0.09335 1.41971,0.51344 2.12957,0.56011c1.81901,0.09335 2.0852,1.12022 2.04084,2.80056c-0.08873,5.50776 -0.04437,11.01552 -0.04437,16.52328c0,6.48795 0,12.92923 0,19.46386c-1.86337,0.46676 -3.63801,0.93352 -5.50139,1.44695c0,0.79349 0,1.54031 0,2.47382c3.90421,0 7.76405,0 12.02319,0l0.00002,0.00001z" id="svg_11"/>
   <path fill="#e6e6e6" d="m144.05224,51.17536c0,-2.47382 0,-4.71427 0,-7.18809c-1.81901,-0.46676 -3.54928,-0.93352 -5.41266,-1.44695c0,-1.68033 0,-3.36067 0,-5.32106c6.38871,0 12.77742,0 19.34359,0c0,1.63366 0,3.45402 0,5.36773c-1.73028,0.42008 -3.46055,0.88684 -5.23519,1.3536c0,11.80901 0,23.61802 0,35.56706c1.68591,0.46676 3.41618,0.93352 5.27956,1.44695c0,1.82036 0,3.59405 0,5.50776c-6.43307,0 -12.82178,0 -19.34359,0c0,-1.77369 0,-3.59405 0,-5.55444c1.77464,-0.46676 3.50492,-0.93352 5.36829,-1.44695c0,-9.42854 0,-18.71705 0,-28.28561m6.87673,-0.23338c0,-2.75388 0,-5.55444 0,-8.30832c1.95211,-0.51344 3.63801,-0.98019 5.45702,-1.49363c-0.04437,-0.84017 -0.08873,-1.54031 -0.08873,-2.10042c-5.50139,0 -10.73658,0 -16.14923,0c0.2662,4.15416 4.08167,2.00706 5.41266,3.8741c0,12.64918 0,25.34503 0,38.04088c-5.41266,1.54031 -5.41266,1.54031 -5.05773,3.73407c5.27956,0 10.55911,0 15.9274,0c-0.04437,-0.93352 -0.1331,-1.63366 -0.17746,-2.38047c-1.86337,-0.51344 -3.54928,-0.93352 -5.32392,-1.40028c0,-9.8953 0,-19.69724 0,-29.96595l-0.00001,0.00002z" id="svg_12"/>
  </g>
 </g>

</svg>