<svg width="230" height="90.00000000000001" xmlns="http://www.w3.org/2000/svg" xml:space="preserve" enable-background="new 0 0 1256 306" version="1.1">
 <g>
  <title>Layer 1</title>
  <g id="svg_27">
   <path id="svg_1" d="m6.05202,44.56206c-2.44488,-2.02586 -3.79134,-4.28419 -3.08268,-7.37279c0.14173,-0.53137 -0.1063,-1.32843 -0.46063,-1.82659c-1.09843,-1.42806 -1.09843,-2.7897 -0.17717,-4.3174c0.28346,-0.46495 0.28346,-1.5277 -0.07087,-1.8598c-2.16142,-2.09228 -1.24016,-4.81556 -1.73622,-7.23995c-0.07087,-0.39853 0.38976,-1.12917 0.85039,-1.36164c2.12599,-1.12917 1.84252,-3.35429 2.65748,-5.08125c0.38976,-0.89669 0.7441,-1.82659 1.34646,-2.55723c1.06299,-1.36164 2.37402,-2.49081 2.72835,-4.28419c0.35433,-1.72696 3.01181,-2.98897 5.52756,-2.62365c1.59449,0.23248 2.23229,-0.43174 2.83465,-1.5277c1.16929,-2.12549 2.69292,-3.6864 5.49213,-4.08493c3.47244,-0.53137 6.05906,1.42806 7.29922,3.88566c0.60236,1.2288 0.60236,2.75649 1.13386,4.08493c0.56693,1.32843 1.38189,2.59044 2.16142,3.85245c1.27559,2.02586 2.58662,4.0185 3.89764,5.97794c0.17717,0.23248 0.38976,0.46495 0.6378,0.59779c3.33071,1.95944 4.11024,5.14767 4.67717,8.43554c0.35433,2.29154 0.6378,4.58309 1.06299,6.87463c0.1063,0.46495 0.7441,0.9299 1.20473,1.29522c1.70079,1.32843 3.68504,2.4576 4.32284,4.64951c0.3189,1.09596 0.4252,2.25833 0.46063,3.3875c0.03543,1.49448 0.49606,2.65686 1.80709,3.55355c1.84252,1.29522 2.72835,2.95576 2.26772,5.14767c-0.1063,0.49816 0.03543,1.09596 0.24803,1.59412c1.48819,3.61997 0.77953,6.94105 -1.41732,10.12929c-0.28346,0.43174 -0.5315,0.99632 -0.49606,1.49448c0.35433,3.0886 0.81496,6.1772 1.20473,9.29902c0.2126,1.66054 -0.7441,2.92255 -2.01969,3.78603c-3.47244,2.32475 -7.08662,4.51667 -10.66536,6.74179c-0.35433,0.19926 -0.88583,0.33211 -1.31102,0.26569c-3.96851,-0.66422 -7.33465,0.73064 -10.62993,2.65686c-1.84252,1.06274 -2.40945,1.02953 -3.33071,-0.79706c-1.38189,-2.75649 -2.55118,-5.64583 -3.57874,-8.56838c-1.24016,-3.48713 -2.40945,-7.00747 -3.29528,-10.56103c-0.81496,-3.35429 -1.02756,-6.80821 -1.77166,-10.19571c-0.35433,-1.66054 -1.20473,-3.22144 -1.91339,-4.98162c-2.33858,0.36532 -3.50788,-1.09596 -4.21654,-2.95576c-0.67323,-1.76017 -1.16929,-3.55355 -1.77166,-5.44657c-0.5315,0 -1.13386,0 -1.87795,-0.06642m3.18898,-3.78603c-1.38189,0.06642 -2.72835,0.16605 -4.57087,0.23248c0.70866,1.19559 1.16929,2.05907 1.70079,2.95576c1.27559,-0.99632 2.23229,-1.79338 3.47244,-2.62365c0.60236,-0.16605 1.27559,-0.23248 1.80709,-0.53137c0.38976,-0.19926 0.56693,-0.69743 0.81496,-1.09596c-0.1063,-0.06642 -0.24803,-0.09963 -0.35433,-0.16605c-0.85039,0.43174 -1.70079,0.89669 -2.87008,1.2288m30.8268,2.65686c0,0 -0.03543,0.03321 0.17717,0.36532c0.85039,-0.09963 1.94882,-1.02953 2.09055,0.631c-0.03543,0.39853 -0.07087,0.83027 0.2126,1.09596c1.48819,-0.69743 1.27559,-2.02586 0.92126,-3.02218c-0.28346,-0.76385 -1.27559,-1.29522 -1.91339,-1.89301c0,-0.96311 0.07087,-2.12549 -0.03543,-3.22144c-0.28346,-3.42071 -0.49606,-6.84142 -0.99213,-10.19571c-0.4252,-3.05539 -1.48819,-5.81189 -4.28741,-7.87095c-1.41732,-1.02953 -2.37402,-2.69007 -3.36614,-4.15135c-0.88583,-1.2288 -1.45276,-2.65686 -2.37402,-3.85245c-0.3189,-0.46495 -1.20473,-0.83027 -1.80709,-0.76385c-0.99213,0.13284 -2.16142,0.43174 -2.90551,1.02953c-2.58662,2.19191 -5.10237,4.48345 -7.54725,6.80821c-0.49606,0.46495 -0.5315,1.39485 -1.02756,1.82659c-2.05512,1.89301 -2.48032,4.35061 -2.26772,6.70858c0.1063,1.62733 -0.07087,3.02218 -0.88583,4.25098c-1.55906,2.42439 -1.09843,5.04804 -0.85039,7.53885c0.3189,3.28787 1.06299,6.50931 1.59449,9.76397c0.4252,2.42439 0.46063,4.98162 1.24016,7.27316c1.45276,4.11814 4.35827,7.47242 8.00788,10.06286c3.68504,2.62365 7.72442,4.35061 12.68505,3.95208c3.36614,-0.26569 6.73229,-0.36532 9.49607,-2.42439c2.12599,-1.56091 4.6063,-2.92255 5.563,-5.5462c0.95669,-2.62365 1.62992,-5.2473 0.24803,-7.97059c-0.3189,-0.59779 -0.35433,-1.39485 -0.28346,-2.09228c0.2126,-1.49448 -0.14173,-2.65686 -1.59449,-3.55355c-1.62992,-0.99632 -2.48032,-2.4576 -2.40945,-4.45024c0.03543,-1.16238 -0.03543,-2.55723 -0.6378,-3.48713c-1.02756,-1.66054 -2.55118,-3.02218 -3.86221,-4.51667c-0.24803,0.09963 -0.5315,0.19926 -0.77953,0.33211c0.35433,1.46127 0.24803,3.25466 1.13386,4.3174c1.31102,1.59412 1.52362,3.15502 0.81496,4.71593c-0.3189,0.76385 -1.80709,1.06274 -2.76378,1.56091c-0.24803,-0.43174 -0.5315,-0.86348 -0.67323,-1.46127c-0.3189,0.09963 -0.6378,0.16605 -1.06299,0.46495c-2.48032,1.2288 -4.11024,-0.39853 -5.59843,-1.69375c-0.28346,0.83027 -0.35433,1.62733 -0.77953,1.99265c-0.4252,0.2989 -1.45276,0.39853 -1.87795,0.09963c-0.7441,-0.43174 -1.45276,-1.19559 -1.66536,-1.95944c-0.56693,-1.79338 1.41732,-4.88198 3.33071,-5.47978c0.17717,-0.06642 0.4252,0.06642 0.77953,0.13284c-0.95669,1.12917 -2.05512,2.05907 -2.65748,3.22144c-0.99213,1.79338 -0.5315,2.72328 0.85039,2.98897c0.49606,-0.73064 0.77953,-1.72696 1.45276,-2.02586c1.06299,-0.53137 1.77166,0.39853 2.37402,1.19559c0.1063,0.13284 0.2126,0.33211 0.35433,0.36532c0.88583,0.13284 1.80709,0.43174 2.65748,0.33211c0.35433,-0.06642 0.6378,-0.9299 0.92126,-1.39485m-13.28741,25.14055c-3.11811,-2.35796 -6.23623,-4.68272 -9.28347,-6.94105c-0.24803,2.55723 5.563,21.25489 7.58268,24.3435c1.52362,-0.83027 2.94095,-2.12549 4.53544,-2.42439c5.17323,-0.86348 9.03544,-4.54988 14.13781,-5.47978c0.77953,-0.16605 1.52362,-0.73064 2.23229,-1.19559c1.55906,-1.06274 3.08268,-2.1587 4.74804,-3.32108c-0.24803,-2.39118 -0.5315,-4.98162 -0.81496,-7.50563c-7.08662,5.34693 -14.59844,6.775 -23.13782,2.52402m-16.75986,-52.4066c3.11811,2.25833 7.47638,1.39485 11.12599,-2.12549c-1.34646,-1.16238 -2.65748,-2.29154 -4.78347,-1.29522c-0.4252,0.19926 -1.62992,-0.49816 -2.12599,-1.06274c-0.85039,-0.89669 -1.38189,-2.02586 -1.98425,-2.95576c-2.48032,1.92622 -4.28741,4.05171 -2.23229,7.43921m22.28742,68.54703c1.77166,-0.09963 3.50788,-0.19926 5.27953,-0.36532c0.70866,-0.06642 1.55906,-0.13284 2.16142,-0.46495c2.51575,-1.39485 5.0315,-2.7897 7.44095,-4.35061c1.73622,-1.16238 3.72048,-2.25833 4.03937,-4.64951c-1.41732,0.631 -2.69292,1.46127 -4.00394,2.22512c-1.62992,0.9299 -3.25985,1.89301 -4.99607,2.69007c-1.66536,0.79706 -3.47244,1.32843 -5.20867,2.02586c-1.73622,0.66422 -3.40158,1.39485 -5.10237,2.09228c-1.73622,0.69743 -3.47244,1.36164 -5.10237,2.1587c-0.4252,0.16605 -0.60236,0.79706 -0.88583,1.2288c0.49606,0 1.09843,0.09963 1.52362,-0.09963c1.55906,-0.73064 3.08268,-1.56091 4.85434,-2.49081m-28.73625,-50.31432c0.28346,0.59779 0.60236,1.16238 0.81496,1.59412c0.88583,0.09963 1.70079,0.23248 2.51575,0.23248c0.85039,-0.03321 2.01969,0.06642 2.48032,-0.39853c2.23229,-2.19191 4.11024,-4.64951 4.14567,-8.07022c-0.5315,0.16605 -0.92126,0.2989 -1.27559,0.43174c-1.59449,0.66422 -3.18898,1.46127 -4.85434,1.95944c-2.30315,0.66422 -3.82678,2.05907 -3.82678,4.25098m8.43308,-8.43554c0.56693,-0.36532 1.41732,-0.631 1.62992,-1.12917c0.70866,-1.5277 1.16929,-3.18823 1.80709,-5.01483c-0.95669,0.13284 -1.70079,0.13284 -2.40945,0.33211c-2.55118,0.76385 -3.11811,0.59779 -4.85434,-1.29522c-0.7441,-0.79706 -1.66536,-1.49448 -2.48032,-2.19191c0.28346,1.46127 0.77953,2.65686 1.16929,3.85245c0.35433,1.12917 0.5315,2.32475 0.88583,3.48713c0.60236,1.89301 2.33858,1.89301 4.25197,1.95944m15.66143,-22.21801c-2.23229,-2.88934 -6.80316,-3.22144 -8.78741,-0.49816c2.12599,0 3.04725,1.26201 3.93307,2.82292c0.4252,0.76385 1.55906,1.36164 2.51575,1.69375c1.13386,0.36532 2.40945,0.2989 4.14567,0.49816c-0.60236,-1.56091 -1.09843,-2.95576 -1.80709,-4.51667m-2.87008,7.17353c-0.2126,-0.09963 -0.38976,-0.33211 -0.60236,-0.33211c-3.01181,0.03321 -5.84646,-0.19926 -7.93702,-2.82292c-0.92126,-1.12917 -2.87008,-0.69743 -3.50788,0.19926c0.49606,0.69743 0.99213,1.32843 1.38189,1.99265c0.70866,1.32843 1.48819,2.09228 3.29528,1.56091c0.85039,-0.23248 2.19685,0.03321 2.79922,0.56458c1.16929,0.99632 2.12599,0.69743 3.15355,0.09963c0.49606,-0.26569 0.92126,-0.66422 1.41732,-1.26201m-3.79134,-5.71225c-1.70079,-1.39485 -2.83465,-1.12917 -4.46457,1.09596c0.28346,0.33211 0.5315,0.66422 0.81496,0.99632c1.09843,1.26201 2.30315,2.29154 4.28741,2.09228c1.06299,-0.06642 2.48032,-0.16605 3.25985,0.36532c1.41732,0.96311 2.16142,0.13284 3.22441,-0.43174c-2.94095,-0.39853 -5.95276,-0.59779 -7.12205,-4.11814m-17.36222,14.812c-1.13386,0.83027 -2.58662,1.5277 -1.80709,3.28787c0.81496,1.82659 3.04725,2.75649 5.63386,2.42439c-0.88583,-2.55723 -1.77166,-5.11446 -2.62205,-7.67169c-0.14173,0.03321 -0.28346,0.06642 -0.4252,0.13284c-0.2126,0.56458 -0.38976,1.09596 -0.77953,1.82659m6.16536,26.93394c0.70866,1.49448 1.34646,3.02218 2.16142,4.45024c0.17717,0.33211 0.85039,0.39853 1.31102,0.59779c0.17717,-0.43174 0.5315,-0.86348 0.49606,-1.26201c-0.14173,-1.32843 -0.46063,-2.62365 -0.67323,-3.88566c-0.81496,0.43174 -1.45276,0.76385 -2.09055,1.09596c-0.14173,-0.16605 -0.28346,-0.33211 -0.4252,-0.46495c3.08268,-1.5277 -0.49606,-3.45392 0.77953,-5.14767c-2.65748,0.46495 -2.65748,0.46495 -2.05512,2.59044c0.14173,0.59779 0.28346,1.16238 0.49606,2.02586m1.87795,-9.09975c0.03543,-0.66422 0.1063,-1.29522 0.1063,-1.5277c-1.87795,0.33211 -3.54331,0.96311 -5.17323,0.89669c-2.58662,-0.13284 -3.25985,0.43174 -2.55118,2.75649c1.45276,-0.13284 2.90551,-0.49816 4.28741,-0.36532c1.55906,0.13284 2.48032,-0.43174 3.33071,-1.76017m-5.27953,-10.95955c-1.52362,-0.46495 -3.08268,-0.89669 -4.96063,-1.46127c0.92126,1.72696 1.80709,3.42071 2.58662,4.88198c1.87795,-0.59779 3.86221,-1.19559 5.84646,-1.82659c0,-0.13284 0,-0.2989 0.03543,-0.43174c-1.06299,-0.39853 -2.12599,-0.79706 -3.50788,-1.16238m4.9252,-8.76764c-2.01969,-1.12917 -3.68504,-2.52402 -3.61418,-5.47978c-1.09843,0.76385 -1.77166,1.2288 -2.58662,1.79338c1.66536,1.62733 3.04725,3.12181 4.57087,4.45024c0.5315,0.43174 1.48819,0.59779 2.23229,0.56458c1.45276,-0.06642 2.87008,-0.33211 4.28741,-0.56458c0.2126,-0.03321 0.38976,-0.26569 0.88583,-0.66422c-2.05512,0 -3.79134,0 -5.7756,-0.09963m-1.77166,-8.03701c0.67323,-0.76385 1.34646,-1.56091 2.16142,-2.49081c-2.30315,0.06642 -3.01181,0.96311 -2.16142,2.49081m23.59845,35.137c0,0 -0.03543,0.03321 0,0z" fill="#dbdbdb"/>
   <path id="svg_14" d="m40.10324,43.39969c-0.6378,-0.03321 -1.27559,-0.06642 -1.91339,-0.09963c0.03543,-0.13284 0.03543,-0.26569 0.03543,-0.39853c0.77953,-0.43174 1.59449,-0.89669 2.37402,-1.32843c0.14173,0.03321 0.28346,0.03321 0.4252,0.06642c-0.24803,0.56458 -0.49606,1.12917 -0.85039,1.76017c-0.14173,0.06642 -0.1063,0.03321 -0.07087,0z" fill="#d1d1d1"/>
   <path id="svg_16" d="m42.33552,45.06023c0,0.13284 0,0.2989 -0.07087,0.53137c0,-0.33211 0.03543,-0.76385 0.17717,-1.19559c0.14173,-0.03321 0.1063,-0.03321 0.03543,0.03321c-0.1063,0.23248 -0.1063,0.43174 -0.14173,0.631l0,0.00001z" fill="#d1d1d1"/>
   <path id="svg_17" d="m40.95363,45.2927c-0.24803,0.06642 -0.4252,0.03321 -0.7441,0.09963c0.14173,-0.03321 0.46063,-0.09963 0.7441,-0.09963z" fill="#d1d1d1"/>
   <path id="svg_18" d="m33.12291,45.25949c0,0 0.03543,-0.03321 0,0z" fill="#d1d1d1"/>
   <path id="svg_19" d="m29.22527,54.06034c-0.46063,-0.16605 -0.95669,-0.36532 -1.45276,-0.53137c0.24803,-0.43174 0.38976,-0.96311 0.77953,-1.26201c1.55906,-1.12917 3.08268,-2.35796 4.8189,-3.25466c0.81496,-0.43174 2.05512,-0.26569 3.08268,-0.26569c0.81496,0 1.77166,0.43174 2.48032,0.16605c1.62992,-0.56458 2.79922,-0.06642 3.89764,0.96311c0.85039,0.79706 1.70079,1.62733 2.58662,2.35796c0.24803,0.23248 0.70866,0.23248 1.62992,0.53137c-1.13386,0.53137 -1.84252,0.86348 -2.79922,1.2288c-0.38976,0.03321 -0.5315,0.03321 -0.81496,0c-4.53544,-0.26569 -8.92914,-2.22512 -13.42915,0.03321c-0.35433,0 -0.56693,0.03321 -0.77953,0.03321m2.83465,-1.72696c1.70079,-0.06642 3.36614,-0.19926 5.06693,-0.16605c2.26772,0.06642 4.5,0.2989 7.15749,0.49816c-0.56693,-0.49816 -0.81496,-0.66422 -0.99213,-0.86348c-1.24016,-1.36164 -2.40945,-2.7897 -4.67717,-1.59412c-0.35433,0.19926 -1.02756,0.03321 -1.52362,-0.13284c-2.79922,-0.76385 -5.42126,0.16605 -7.47638,3.02218c0.99213,-0.2989 1.59449,-0.46495 2.44488,-0.76385z" fill="#d8d8d8"/>
   <path id="svg_20" d="m31.84732,29.45116c0.38976,0.59779 0.77953,1.19559 1.41732,2.19191c-1.31102,0.23248 -2.44488,0.66422 -3.57874,0.66422c-2.90551,0 -5.7756,-0.16605 -8.68111,-0.2989c-0.24803,0 -0.49606,-0.26569 -0.7441,-0.631c-0.07087,-0.49816 -0.07087,-0.73064 -0.07087,-1.09596c0.03543,-0.23248 0.03543,-0.36532 0,-0.49816c0,0 0,0 0.1063,0.09963c0.5315,-0.23248 0.99213,-0.59779 1.45276,-0.9299c3.93307,-2.95576 6.55512,-2.82292 10.09843,0.49816m-1.70079,1.72696c0.4252,-0.03321 0.85039,-0.06642 1.45276,-0.06642c-1.27559,-2.05907 -2.79922,-3.42071 -5.27953,-3.05539c-1.94882,0.26569 -3.82678,0.79706 -4.96063,3.0886c3.01181,0 5.74016,0 8.78741,0.03321l-0.00001,0z" fill="#d8d8d8"/>
   <path id="svg_21" d="m28.65834,23.47322c-4.18111,0.53137 -8.29135,0.76385 -11.69292,3.3875c0.85039,-1.82659 2.44488,-2.7897 4.18111,-3.28787c3.61418,-1.09596 7.29922,-1.56091 11.05513,-0.43174c2.01969,0.631 4.11024,3.15502 4.03937,5.11446c-0.03543,0.39853 -0.28346,0.76385 -0.56693,1.46127c-0.38976,-0.66422 -0.70866,-0.96311 -0.70866,-1.26201c-0.07087,-2.65686 -1.45276,-4.18456 -4.25197,-4.58309c-0.6378,-0.09963 -1.27559,-0.26569 -2.05512,-0.39853l-0.00001,0.00001z" fill="#d8d8d8"/>
   <path id="svg_22" d="m20.18983,30.41427c0,0.23248 0,0.46495 0.03543,0.83027c-0.46063,0.03321 -0.92126,-0.06642 -1.38189,-0.13284c-0.4252,-2.59044 2.40945,-5.61262 5.74016,-6.1772c4.88977,-0.79706 8.39765,1.02953 9.31891,5.18088c-0.60236,-0.23248 -0.99213,-0.43174 -1.52362,-0.76385c-2.23229,-3.65318 -4.96063,-3.75282 -8.36221,-3.12181c-1.84252,0.36532 -3.40158,1.56091 -3.82678,3.55355c0,0 0,0 -0.1063,0c-0.03543,0.19926 0.03543,0.43174 0.1063,0.631z" fill="#d1d1d1"/>
   <path id="svg_23" d="m29.36701,54.12677c0.07087,-0.06642 0.28346,-0.09963 0.56693,0c0.70866,0.56458 1.34646,1.29522 2.05512,1.36164c2.87008,0.2989 5.74016,0.56458 8.57481,0.46495c1.06299,-0.06642 2.01969,-1.26201 3.01181,-1.92622c0.14173,0 0.28346,0 0.5315,-0.03321c0.03543,0.43174 0.1063,0.99632 -0.14173,1.26201c-1.52362,1.62733 -3.43701,2.22512 -5.81103,1.82659c-1.27559,-0.23248 -2.65748,0 -4.00394,-0.16605c-1.24016,-0.16605 -2.51575,-0.46495 -3.64961,-0.96311c-0.49606,-0.23248 -0.67323,-1.16238 -1.13386,-1.82659l0,-0.00001z" fill="#d1d1d1"/>
   <path id="svg_24" d="m42.44182,44.9938c-0.07087,-0.13284 -0.07087,-0.33211 0.03543,-0.56458c0.07087,0.13284 0.07087,0.33211 -0.03543,0.56458z" fill="#dbdbdb"/>
   <path id="svg_25" d="m20.18983,30.28143c-0.07087,-0.06642 -0.14173,-0.2989 -0.1063,-0.49816c0.14173,0.13284 0.14173,0.26569 0.1063,0.49816z" fill="#191919"/>
  </g>
  <g fill="#dbdbdb" id="svg_26">
   <path id="svg_2" d="m145.81552,40.59379c-1.55579,-2.7421 -3.00044,-5.48419 -4.38954,-8.25931c-2.52815,-4.98863 -5.0563,-9.97725 -7.55668,-14.96588c-0.19447,-0.39645 -0.41672,-0.79289 -0.80567,-1.51972c0,6.83871 0,13.24795 0,19.75628c0.77789,0.23126 1.55579,0.56163 2.36147,0.62771c1.2224,0.09912 1.61135,0.75985 1.44465,2.11439c-0.08334,0.69379 0,1.38756 0,2.18047c-4.08394,0 -7.9734,0 -12.16846,0c0.11113,-1.3215 -0.1667,-3.0064 0.41672,-3.83233c0.6112,-0.82593 2.02807,-0.75985 3.11157,-1.09023c0,-8.42451 0,-16.78294 0,-25.17441c-1.13906,-0.33037 -2.19477,-0.62771 -3.36161,-0.99112c0,-1.1563 0,-2.34565 0,-3.86537c2.16699,0 4.38954,0.23126 6.58431,-0.09912c2.11143,-0.29734 3.13936,0.62771 4.16729,2.77513c3.27827,7.0039 6.80656,13.84262 10.22373,20.74741c0.22225,0.46252 0.44451,0.89201 0.94459,1.28846c0,-0.62771 0,-1.25542 0,-1.88312c0,-5.45115 -0.05557,-10.9023 0.02778,-16.35345c0.02778,-1.28846 -0.3056,-1.88312 -1.36131,-2.04831c-0.66676,-0.09912 -1.33353,-0.33037 -2.05586,-0.52859c0,-1.25542 0,-2.44475 0,-3.79929c3.86169,0 7.66781,0 11.52948,0c0,1.22238 0,2.44475 0,3.76625c-1.11127,0.33037 -2.16699,0.62771 -3.41717,0.99112c0,10.04333 0,20.05363 0,30.19608c-1.97252,0 -3.77833,0 -5.69529,-0.03304m2.0003,-6.60745c-0.02778,0.2643 -0.05557,0.56163 -0.08334,1.1563c-0.36117,-0.69379 -0.58342,-1.12327 -0.77789,-1.51972c-4.22284,-8.52361 -8.4457,-17.0142 -12.69633,-25.50478c-0.25004,-0.52859 -0.72233,-1.22238 -1.11127,-1.25542c-2.41702,-0.09912 -4.86183,-0.03304 -7.16773,-0.03304c-0.36117,1.35453 0,1.85009 0.86123,1.98224c0.55564,0.06608 1.13906,0.19822 1.61135,0.49556c0.33338,0.23126 0.77789,0.75985 0.80567,1.1563c0.02778,8.6888 0.02778,17.37761 0.02778,26.13249c-1.16684,0.33037 -2.27811,0.66075 -3.38939,0.99112c0,0.62771 0,1.1563 0,1.71794c3.33383,0 6.58431,0 9.91814,0c-0.02778,-0.62771 -0.02778,-1.12327 -0.05557,-1.6849c-1.33353,-0.36341 -2.55594,-0.69379 -3.75055,-1.02415c0,-8.42451 0,-16.71686 0,-25.37263c0.38895,0.75985 0.6112,1.22238 0.83346,1.65186c4.25063,8.42451 8.47348,16.88205 12.75188,25.27351c0.22225,0.49556 0.63898,1.12327 1.00014,1.18934c1.25018,0.13214 2.52815,0.03304 3.88946,0.03304c0,-0.79289 0,-1.38756 0,-1.98224c0,-7.82984 0,-15.62663 0,-23.45647c0,-1.38756 -0.38895,-3.1055 0.1667,-4.03055c0.55564,-0.92505 2.05586,-1.05719 3.16714,-1.55276c0,-0.42949 0,-0.95808 0,-1.38756c-3.16714,0 -6.27871,0 -9.44584,0c0.05557,0.59467 0.08334,1.09023 0.11113,1.51972c1.13906,0.36341 2.19477,0.69379 3.33383,1.05719c0,8.09413 0,16.12219 0,24.44758l0,0.00002z" fill="#eeeeee"/>
   <path id="svg_5" d="m163.6237,40.62682c-1.97252,0 -3.8339,0 -5.75085,0c0,-1.38756 0,-2.64298 0,-4.03055c1.05571,-0.33037 2.11143,-0.62771 3.25048,-0.95808c0,-8.35843 0,-16.71686 0,-25.20744c-1.05571,-0.29734 -2.1392,-0.62771 -3.30604,-0.99112c0,-1.22238 0,-2.41172 0,-3.79929c7.02882,0 14.00208,0 21.05868,0c0,2.94032 0,5.97974 0,9.15132c-1.0835,0 -2.22255,0 -3.47274,0c-0.33338,-1.3215 -0.66676,-2.70906 -1.02793,-4.12966c-2.55594,0 -5.11187,0 -7.72337,0c0,3.0064 0,6.01278 0,9.05222c3.08379,0 6.08423,0 9.16803,0c0,1.71794 0,3.33676 0,5.08774c-3.00044,0 -6.02867,0 -9.14024,0c0,3.60107 0,7.03694 0,10.57192c2.66706,0 5.38968,0 8.279,0c0.25004,-1.45364 0.55564,-3.03942 0.83346,-4.62522c1.2224,0 2.36147,0 3.55608,0c0,3.27069 0,6.50835 0,9.87815c-5.25077,0 -10.41821,0 -15.72455,0m-1.36131,-26.56197c0,7.5325 0,15.03196 0,22.53142c-1.2224,0.36341 -2.27811,0.69379 -3.36161,0.99112c0,0.62771 0,1.1563 0,1.71794c6.50097,0 12.8908,0 19.36398,0c0,-2.44475 0,-4.85648 0,-7.23516c-1.19462,-0.46252 -1.8336,-0.03304 -1.91695,1.51972c-0.05557,1.02415 -0.36117,2.04831 -0.52785,3.0064c-3.47274,0 -6.86212,0 -10.25152,0c0,-4.36092 0,-8.58969 0,-13.01669c3.11157,0 6.19536,0 9.1958,0c0,-0.99112 0,-1.71794 0,-2.60995c-3.11157,0 -6.1398,0 -9.16803,0c0,-3.96447 0,-7.73072 0,-11.56305c3.25048,0 6.41761,0 9.58475,0c0.25004,0.99112 0.52785,1.85009 0.66676,2.77513c0.19447,1.55276 0.88902,1.81705 2.0003,1.35453c0,-2.27957 0,-4.49306 0,-6.64049c-6.38984,0 -12.66854,0 -19.05838,0c0.13891,3.0064 2.52815,1.48668 3.47274,2.97336c0,1.12327 0,2.51083 0,4.19573l0.00001,-0.00001z" fill="#e6e6e6"/>
   <path id="svg_6" d="m202.12941,16.41049c-1.00014,0 -1.88917,0 -2.80597,0c-0.41672,-1.51972 -0.80567,-3.0064 -1.25018,-4.427c-0.11113,-0.36341 -0.33338,-0.89201 -0.58342,-0.95808c-2.08364,-0.52859 -4.19507,-1.1563 -6.25093,-0.06608c-2.63928,1.38756 -2.94489,4.5261 -0.55564,6.40923c1.30575,1.02415 2.86153,1.65186 4.33397,2.44475c1.75026,0.95808 3.61165,1.71794 5.25077,2.87424c4.80626,3.30373 4.08394,10.96838 1.19462,14.43729c-3.16714,3.76625 -7.11216,4.46004 -11.30723,3.76625c-1.86139,-0.29734 -3.66721,-1.02415 -5.50081,-1.48668c-0.75012,-0.19822 -1.05571,-0.59467 -1.02793,-1.55276c0.05557,-2.7421 0.02778,-5.48419 0.02778,-8.32539c1.3891,0 2.72262,0 4.19507,0c0.25004,1.38756 0.47229,2.87424 0.77789,4.32788c0.11113,0.46252 0.41672,0.99112 0.75012,1.1563c2.05586,0.92505 4.16729,1.05719 6.25093,0.13214c1.50022,-0.69379 2.66706,-1.78401 2.77819,-3.89839c0.08334,-2.04831 -1.11127,-3.03942 -2.44481,-3.73321c-2.58372,-1.38756 -5.25077,-2.47779 -7.77893,-3.93143c-4.52845,-2.67602 -5.88976,-9.25044 -2.97266,-14.17299c1.88917,-3.13854 4.72292,-4.12966 7.75115,-4.36092c3.47274,-0.2643 6.77878,0.69379 9.86258,1.98224c0,3.0064 0,5.8476 -0.02778,8.6888c0,0.23126 -0.36117,0.46252 -0.66676,0.69379m-10.77938,-6.83871c1.63913,-0.06608 3.30604,-0.19822 4.94518,-0.16518c1.72248,0 2.88932,0.92505 3.08379,3.1055c0.02778,0.39645 0.22225,0.72683 0.27782,1.12327c0.1667,1.55276 0.9168,1.81705 2.16699,1.3215c0,-2.27957 0,-4.62522 0,-7.03694c-3.58386,-1.22238 -7.19551,-2.14743 -11.00163,-1.28846c-3.00044,0.69379 -5.41747,3.40284 -5.88976,6.77265c-0.52785,4.09662 0.69455,7.23516 3.69499,9.08526c1.16684,0.72683 2.41702,1.3215 3.63942,1.91616c1.61135,0.82593 3.33383,1.38756 4.83405,2.44475c3.27827,2.27957 3.16714,6.73961 -0.1667,8.88702c-2.80597,1.81705 -5.69529,1.51972 -8.55682,0.13214c-0.33338,-0.16518 -0.6112,-0.75985 -0.69455,-1.22238c-0.27782,-1.28846 -0.44451,-2.57691 -0.66676,-3.83233c-0.80567,0 -1.52801,0 -2.3059,0c0,2.18047 -0.02778,4.26181 0.02778,6.34316c0.02778,0.39645 0.27782,1.02415 0.52785,1.12327c4.38954,1.6849 8.83464,2.57691 13.1964,0.03304c2.83375,-1.65186 4.1395,-4.59218 4.22284,-8.25931c0.08334,-3.46891 -1.61135,-5.61634 -4.00059,-7.10301c-0.80567,-0.52859 -1.66692,-0.95808 -2.50037,-1.35453c-1.72248,-0.82593 -3.47274,-1.51972 -5.11187,-2.47779c-0.9168,-0.56163 -1.8336,-1.38756 -2.38924,-2.41172c-1.50022,-2.67602 -0.50008,-5.31901 2.66706,-7.13605l0.00001,-0.00002z" fill="#ededed"/>
   <path id="svg_7" d="m216.68713,25.76005c-2.16699,-1.35453 -4.47288,-2.31261 -6.22314,-4.06359c-2.52815,-2.54387 -2.88932,-6.17797 -1.91695,-9.84511c1.05571,-3.93143 3.66721,-5.78152 6.88991,-6.50835c3.88946,-0.89201 7.64002,0.03304 11.30723,1.55276c0.27782,0.09912 0.63898,0.62771 0.66676,0.95808c0.05557,2.80817 0.02778,5.5833 0.02778,8.45755c-1.41688,0 -2.52815,0 -3.75055,0c-0.36117,-1.3215 -0.66676,-2.7421 -1.16684,-4.06359c-0.22225,-0.59467 -0.80567,-1.25542 -1.27797,-1.35453c-1.58357,-0.23126 -3.2227,-0.42949 -4.77849,-0.23126c-1.41688,0.19822 -2.63928,1.18934 -2.94489,3.03942c-0.27782,1.81705 0.50008,3.13854 1.77805,3.89839c1.61135,0.95808 3.30604,1.65186 4.91739,2.57691c1.88917,1.09023 4.00059,1.98224 5.55638,3.56803c3.72278,3.83233 2.94489,11.43089 -1.33353,14.83374c-2.97266,2.41172 -6.33427,2.94032 -9.80701,2.34565c-2.16699,-0.39645 -4.3062,-1.09023 -6.50097,-1.65186c0,-3.40284 0,-6.57442 0,-9.77903c1.36131,0 2.69485,0 4.11172,0c0.22225,1.35453 0.36117,2.77513 0.72233,4.12966c0.1667,0.59467 0.66676,1.3215 1.13906,1.51972c2.08364,0.89201 4.19507,0.92505 6.22314,-0.16518c1.36131,-0.69379 2.44481,-1.85009 2.47259,-3.79929c0.02778,-1.91616 -1.0835,-2.87424 -2.3059,-3.60107c-1.19462,-0.69379 -2.47259,-1.18934 -3.80612,-1.81705m-3.056,-14.66855c1.55579,-1.85009 3.50052,-1.9492 5.55638,-1.85009c3.61165,0.19822 3.75055,0.2643 4.77849,4.26181c0.33338,1.4206 0.86123,2.04831 2.25034,1.45364c0,-2.27957 0,-4.55914 0,-6.93783c-3.02823,-1.55276 -8.19566,-2.18047 -11.30723,-1.3215c-3.056,0.82593 -5.30634,3.66713 -5.66751,7.06997c-0.41672,4.03055 0.9168,7.03694 4.02837,8.88702c1.16684,0.69379 2.36147,1.22238 3.55608,1.81705c1.58357,0.79289 3.25048,1.38756 4.69514,2.41172c3.2227,2.24653 3.11157,6.60745 -0.13891,8.82096c-2.55594,1.71794 -5.223,1.45364 -7.94562,0.56163c-0.94459,-0.33037 -1.44465,-0.95808 -1.52801,-2.18047c-0.05557,-1.12327 -0.36117,-2.24653 -0.52785,-3.30373c-0.80567,0 -1.50022,0 -2.27811,0c0,2.21349 -0.02778,4.36092 0.02778,6.47531c0,0.36341 0.25004,0.92505 0.47229,1.02415c4.63958,1.71794 9.27916,2.67602 13.83538,-0.36341c3.9728,-2.64298 5.75085,-11.29875 -0.13891,-14.8007c-1.2224,-0.72683 -2.52815,-1.28846 -3.80612,-1.9492c-1.77805,-0.99112 -3.66721,-1.81705 -5.33413,-3.07246c-2.08364,-1.55276 -2.27811,-4.46004 -0.52785,-7.0039l0.00001,0.00001z" fill="#eeeeee"/>
   <path id="svg_9" d="m80.00021,5.44212c1.80582,0 3.44495,0 5.19521,0c0,3.1055 0,6.07886 0,9.15132c-1.11127,0 -2.22255,0 -3.44495,0c-0.33338,-1.25542 -0.66676,-2.54387 -1.02793,-3.93143c-2.52815,0 -5.11187,0 -7.77893,0c0,3.13854 0,6.24404 0,9.51473c3.02823,0 6.11202,0 9.22359,0c0,1.81705 0,3.43588 0,5.21989c-3.08379,0 -6.16757,0 -9.27916,0c0,3.46891 0,6.77265 0,10.20852c1.30575,0.33037 2.66706,0.66075 4.00059,1.02415c0,1.3215 0,2.57691 0,3.89839c-4.25063,0 -8.4457,0 -12.69633,0c0,-1.28846 0,-2.57691 0,-3.93143c1.0835,-0.33037 2.16699,-0.62771 3.27827,-0.95808c0,-8.35843 0,-16.71686 0,-25.20744c-1.0835,-0.33037 -2.16699,-0.66075 -3.30604,-0.99112c0,-1.22238 0,-2.44475 0,-3.99751c5.25077,0 10.47377,0 15.83568,0m-3.47274,16.05611c-1.55579,0 -3.11157,0 -4.58401,0c0,-4.1627 0,-8.12717 0,-12.19076c3.00044,0 5.88976,0 8.80686,0.06608c0.33338,0 0.77789,0.46252 0.9168,0.82593c0.36117,1.05719 0.6112,2.18047 0.88902,3.23766c0.58342,0 1.05571,0 1.61135,0c0,-2.24653 0,-4.427 0,-6.54138c-6.36205,0 -12.64077,0 -18.97504,0c0,0.59467 -0.11113,1.3215 0.02778,1.38756c1.0835,0.49556 2.22255,0.89201 3.33383,1.3215c0,9.01918 0,18.00532 0,26.99146c-0.80567,0.23126 -1.52801,0.56163 -2.3059,0.66075c-1.19462,0.16518 -1.30575,0.89201 -0.97237,2.04831c3.5283,0 7.02882,0 10.50156,0c0.3056,-1.25542 0.05557,-1.91616 -1.0835,-2.01527c-0.94459,-0.09912 -1.86139,-0.46252 -2.77819,-0.69379c0,-4.19573 0,-8.25931 0,-12.52113c3.11157,0 6.16757,0 9.22359,0c0,-0.92505 0,-1.6849 0,-2.57691c-1.47244,0 -2.9171,0 -4.61179,0z" fill="#ededed"/>
   <path id="svg_10" d="m105.50399,39.83392c-0.02778,-3.23766 0,-3.23766 2.58372,-3.83233c0.44451,-0.13214 0.88902,-0.2643 1.3891,-0.39645c0,-8.29235 0,-16.51864 0,-24.87707c-1.3891,0 -2.77819,0 -4.3062,0c-0.33338,1.51972 -0.69455,3.07246 -1.02793,4.62522c-1.19462,0 -2.3059,0 -3.50052,0c0,-3.27069 0,-6.50835 0,-9.81207c7.69558,0 15.41895,0 23.1701,0c0,3.27069 0,6.44227 0,9.74599c-1.13906,0 -2.27811,0 -3.55608,0c-0.3056,-1.45364 -0.66676,-2.97336 -1.02793,-4.59218c-1.41688,0 -2.83375,0 -4.3062,0c0,8.25931 0,16.4856 0,24.91011c1.27797,0.33037 2.61149,0.66075 3.94503,1.02415c0,1.3215 0,2.57691 0,3.99751c-4.1395,0 -8.25123,0 -12.36294,-0.03304c-0.33338,0 -0.66676,-0.39645 -1.00014,-0.75985m17.22478,-32.90513c-0.19447,-0.06608 -0.41672,-0.23126 -0.6112,-0.23126c-6.72322,0 -13.44643,0 -20.14187,0.03304c-0.08334,0 -0.1667,0.09912 -0.27782,0.16518c0,2.37869 0,4.7904 0,7.2682c0.55564,0 1.02793,0 1.63913,0c0.27782,-1.3215 0.52785,-2.64298 0.86123,-3.93143c0.11113,-0.36341 0.50008,-0.85897 0.75012,-0.85897c1.86139,-0.09912 3.69499,-0.06608 5.55638,-0.06608c0,9.2174 0,18.26962 0,27.32182c-4.05616,1.05719 -4.05616,1.05719 -3.86169,2.67602c3.72278,0 7.44554,0 11.14053,0c0.33338,-1.35453 -0.02778,-1.91616 -1.13906,-2.01527c-0.9168,-0.09912 -1.80582,-0.42949 -2.69485,-0.66075c0,-9.11828 0,-18.1705 0,-27.32182c1.8336,0 3.58386,-0.03304 5.33413,0.06608c0.33338,0 0.83346,0.56163 0.94459,0.99112c0.36117,1.22238 0.58342,2.51083 0.86123,3.79929c0.58342,0 1.0835,0 1.69469,0c0,-2.31261 0,-4.62522 -0.05557,-7.23516l0.00001,0z" fill="#e9e9e9"/>
   <path id="svg_13" d="m90.77959,19.84638c0,-3.20462 0,-6.211 0,-9.38258c-1.13906,-0.33037 -2.22255,-0.66075 -3.41717,-1.02415c0,-1.1563 0,-2.34565 0,-3.73321c3.9728,0 7.9734,0 12.05735,0c0,1.12327 0,2.41172 0,3.76625c-1.0835,0.29734 -2.1392,0.62771 -3.25048,0.95808c0,8.35843 0,16.71686 0,25.14137c0.22225,0.09912 0.47229,0.19822 0.72233,0.29734c2.83375,0.85897 2.83375,0.85897 2.52815,4.65826c-4.00059,0 -7.9734,0 -12.05735,0c0,-1.25542 0,-2.51083 0,-3.89839c1.0835,-0.33037 2.22255,-0.69379 3.41717,-1.05719c0,-5.21989 0,-10.40674 0,-15.72575m1.86139,-12.95061c-1.41688,0 -2.86153,0 -4.22284,0c-0.25004,1.18934 -0.05557,1.81705 0.88902,1.88312c0.36117,0.03304 0.72233,0.2643 1.0835,0.29734c1.16684,0.09912 1.41688,0.82593 1.41688,2.18047c-0.05557,7.86287 -0.02778,15.75879 -0.02778,23.62165c0,0.59467 0,1.1563 0,1.71794c-1.25018,0.36341 -2.3059,0.69379 -3.38939,0.99112c0,0.62771 0,1.1563 0,1.6849c3.41717,0 6.75101,0 10.16817,0c-0.05557,-3.07246 -2.47259,-1.58578 -3.5283,-2.97336c0,-0.36341 0,-0.95808 0,-1.58578c0,-7.59858 0,-15.1641 0,-22.76268c0,-2.44475 0,-2.41172 2.02807,-3.03942c0.47229,-0.13214 0.94459,-0.33037 1.47244,-0.52859c-0.02778,-0.56163 -0.05557,-1.02415 -0.11113,-1.48668c-1.88917,0 -3.69499,0 -5.77863,0l-0.00001,-0.00002z" fill="#eeeeee"/>
  </g>
  <g id="svg_28">
   <path id="svg_3" d="m96.97216,84.76906c-10.90349,0 -21.63528,0 -32.62462,0c0.12878,-1.43967 -0.34342,-3.1472 0.51512,-3.95074c0.90147,-0.83702 3.09075,-0.80354 4.80784,-1.13835c0,-8.50413 0,-16.97479 0,-25.5124c-1.67416,-0.33481 -3.30539,-0.63613 -5.0654,-0.97094c0,-1.27228 0,-2.51106 0,-3.91726c10.81764,0 21.59235,0 32.49584,0c0,3.08024 0,6.16047 0,9.34115c-1.80294,0 -3.56295,0 -5.40882,0c-0.51512,-1.33924 -1.03025,-2.71195 -1.54538,-4.1851c-3.99222,0 -7.94152,0 -12.06252,0c0,2.9798 0,5.95959 0,9.10679c4.72198,0 9.48689,0 14.29474,0c0,1.84145 0,3.51549 0,5.28997c-4.76491,0 -9.44397,0 -14.29474,0c0,3.61593 0,7.09794 0,10.64691c4.29271,0 8.5425,0 12.92106,0c0.42927,-1.54012 0.81561,-3.08024 1.24488,-4.68732c1.76002,0 3.52002,0 5.49467,0c0,3.18068 0.04293,6.36136 0,9.57552c0,0.13392 -0.38634,0.26785 -0.77269,0.40177m-17.98647,-34.38482c-4.29271,0 -8.58543,0 -12.66351,0c-0.64391,1.43967 -0.12878,1.94189 1.20196,2.10929c0.51512,0.03348 0.98733,0.20089 1.45952,0.23436c1.8888,0.1674 2.53271,0.83702 2.48977,2.41062c-0.12878,7.56667 -0.08585,15.16682 -0.08585,22.73348c0,0.93747 0,1.87493 0,2.81239c-1.33074,0.26785 -2.48977,0.50221 -3.69173,0.73658c-1.8888,0.36829 -1.8888,0.36829 -1.37367,2.00885c9.91617,0 19.83233,0 29.79143,0c0,-2.51106 0,-4.92168 0,-7.3323c-1.76002,-0.40177 -2.79026,-0.20089 -2.96198,1.4062c-0.08585,1.07139 -0.55805,2.14277 -0.85854,3.21416c-5.32297,0 -10.51715,0 -15.75426,0c0,-4.38599 0,-8.70502 0,-13.19145c4.76491,0 9.44397,0 14.12302,0c0,-0.97094 0,-1.77448 0,-2.71195c-4.80784,0 -9.48689,0 -14.12302,0c0,-4.0177 0,-7.83452 0,-11.78526c3.73466,0 7.38347,0 10.98934,0c3.77759,0 3.90637,0 4.76491,2.77891c0.42927,1.43967 1.20196,2.04233 3.09075,1.54012c0,-2.27669 0,-4.5534 0,-6.96401c-5.40882,0 -10.68885,0 -16.39816,0l0.00001,0.00001z" fill="#eaeaea"/>
   <path id="svg_4" d="m198.06555,80.11523c0.85854,-0.1674 1.50245,-0.30133 2.23221,-0.43525c0,-8.50413 0,-16.9413 0,-25.5124c-1.71708,-0.30133 -3.39125,-0.63613 -5.15125,-1.00443c0,-1.20531 0,-2.4441 0,-3.85029c10.81764,0 21.54942,0 32.49584,0c0,3.01327 0,6.16047 0,9.34115c-1.76002,0 -3.4771,0 -5.32297,0c-0.51512,-1.4062 -1.07318,-2.81239 -1.63123,-4.25206c-3.94929,0 -7.85566,0 -11.93375,0c0,3.04676 0,6.09351 0,9.20723c4.76491,0 9.40104,0 14.16595,0c0,1.70752 0,3.34808 0,5.12257c-4.63613,0 -9.31519,0 -14.16595,0c0,3.64941 0,7.13142 0,10.74735c4.20686,0 8.3708,0 12.79229,0c0.42927,-1.50664 0.90147,-3.11372 1.37367,-4.7208c1.8888,0 3.6488,0 5.49467,0c0,3.28112 0,6.49528 0,9.87685c-11.0752,0 -22.10747,0 -33.26853,0c0,-1.23879 0,-2.47758 0,-3.91726c0.85854,-0.1674 1.80294,-0.36829 2.91905,-0.60266m8.97177,-5.85915c0,-2.20973 0,-4.41947 0,-6.79661c4.93662,0 9.61568,0 14.29474,0c0,-0.93747 0,-1.67404 0,-2.57803c-4.85076,0 -9.52983,0 -14.12302,0c0,-4.05118 0,-7.90148 0,-11.78526c4.97955,0 9.83031,0 14.25181,0c2.10343,1.27228 0,4.75428 4.5932,4.31902c0,-2.37714 0,-4.62036 0,-6.83009c-9.83031,0 -19.53184,0 -29.36216,0c0.04293,0.66962 0.08585,1.13835 0.08585,1.60708c1.11611,0.23436 2.0605,0.50221 3.0049,0.56917c1.76002,0.1674 2.27514,0.80354 2.23221,2.20973c-0.12878,5.62478 -0.04293,11.24956 -0.04293,16.87434c0,2.9798 0,5.92611 0,8.50413c-1.5883,1.50664 -5.49467,-0.1674 -5.28004,3.04676c10.08788,0 20.0899,0 30.00606,0c0,-2.54454 0,-4.95517 0,-7.29882c-1.93172,-0.46873 -2.79026,0 -2.96198,1.50664c-0.08585,1.07139 -0.55805,2.10929 -0.85854,3.08024c-5.40882,0 -10.603,0 -15.84011,0c0,-2.07581 0,-4.08466 0,-6.42832l0.00001,0z" fill="#e6e6e6"/>
   <path id="svg_8" d="m162.60774,56.87953c-0.25757,0.83702 -0.4722,1.54012 -0.72976,2.24322c-1.84587,0 -3.60588,0 -5.40882,0c0,-3.3146 0,-6.52877 0,-9.87685c11.84788,0 23.65285,0 35.67245,0c0,3.21416 0,6.49528 0,9.97729c-1.45952,0 -2.96198,0.06696 -4.42149,-0.03348c-0.42927,-0.03348 -1.07318,-0.50221 -1.20196,-0.8705c-0.55805,-1.27228 -0.90147,-2.57803 -1.33074,-3.91726c-2.27514,0 -4.46442,0 -6.73956,0c0,8.40369 0,16.7739 0,25.27803c2.01757,0.33481 4.07807,0.66962 6.22443,1.0379c0,1.33924 0,2.57803 0,3.95074c-6.91127,0 -13.73668,0 -20.77673,0c0,-1.0379 -0.12878,-2.04233 0.04293,-3.01327c0.08585,-0.43525 0.72976,-1.00443 1.28781,-1.13835c1.54538,-0.36829 3.17661,-0.53569 4.85076,-0.80354c0,-8.43717 0,-16.84086 0,-25.31151c-2.18929,0 -4.33564,0 -6.61078,0c-0.25757,0.77006 -0.51512,1.5736 -0.85854,2.47758m9.22934,11.01519c0,4.28555 0,8.53761 0,12.78968c-2.27514,0.36829 -4.29271,0.70309 -6.35321,1.07139c0.04293,0.63613 0.08585,1.17183 0.12878,1.64056c5.92394,0 11.67618,0 17.47134,0c0,-0.60266 -0.04293,-1.10487 -0.08585,-1.67404c-2.0605,-0.36829 -4.03515,-0.70309 -6.00979,-1.00443c0,-9.27419 0,-18.44794 0,-27.62169c3.26246,0 6.31029,0 9.40104,0c0.55805,1.67404 1.11611,3.24764 1.63123,4.78776c0.98733,0 1.80294,0 2.53271,0c0,-2.54454 0,-4.95517 0,-7.39926c-10.90349,0 -21.6782,0 -32.45291,0c0,2.54454 0,4.95517 0,7.46622c0.85854,0 1.63123,0 2.48977,0c0.55805,-1.60708 1.07318,-3.18068 1.63123,-4.82124c3.17661,0 6.31029,0 9.61568,0c0,4.85472 0,9.64248 0,14.76504l-0.00001,0.00001z" fill="#eaeaea"/>
   <path id="svg_11" d="m104.18391,84.76906c-0.77269,-0.03348 -1.33074,-0.03348 -1.84587,-0.06696c-0.68684,-3.71637 -0.68684,-3.71637 5.0654,-5.05561c0,-8.47065 0,-16.90782 0,-25.47891c-1.71708,-0.33481 -3.43417,-0.66962 -5.15125,-1.00443c0,-1.27228 0,-2.47758 0,-3.85029c6.22443,0 12.36302,0 18.6733,0c0,1.20531 0,2.51106 0,3.88378c-1.67416,0.30133 -3.34832,0.60266 -5.10833,0.97094c0,8.40369 0,16.84086 0,25.34499c3.77759,0 7.46932,0 11.28984,0c0.34342,-1.50664 0.72976,-2.9798 0.98733,-4.45295c0.12878,-0.90398 0.60098,-1.23879 1.76002,-1.17183c1.37367,0.06696 2.74734,0 4.24979,0c0,3.61593 0,7.13142 0,10.88127c-9.91617,0 -19.83233,0 -29.92021,0m11.24691,-1.27228c5.70931,0 11.41861,0 17.085,0c0,-2.84587 0,-5.52434 0,-8.23629c-0.98733,0 -1.80294,0 -2.74734,0c-0.42927,1.84145 -0.85854,3.64941 -1.28781,5.42389c-4.85076,0 -9.57275,0 -14.42352,0c0,-7.83452 0,-15.50162 0,-23.20222c0,-1.37271 -0.4722,-3.11372 0.38634,-4.05118c0.77269,-0.83702 3.09075,-0.83702 4.72198,-1.20531c0.04293,0 0.08585,-0.06696 0.12878,-0.10044c0,-0.53569 0,-1.0379 0,-1.43967c-5.28004,0 -10.43129,0 -15.45377,0c-0.34342,1.07139 -0.04293,1.67404 1.28781,1.77448c0.68684,0.06696 1.37367,0.36829 2.0605,0.40177c1.76002,0.06696 2.01757,0.80354 1.97465,2.00885c-0.08585,3.95074 -0.04293,7.90148 -0.04293,11.85222c0,4.65383 0,9.27419 0,13.96151c-1.80294,0.33481 -3.52002,0.66962 -5.32297,1.0379c0,0.56917 0,1.10487 0,1.77448c3.77759,0 7.51224,0 11.63325,0l0.00002,0.00001z" fill="#e8e8e8"/>
   <path id="svg_12" d="m141.14417,59.35711c0,-1.77448 0,-3.38157 0,-5.15605c-1.76002,-0.33481 -3.43417,-0.66962 -5.23711,-1.0379c0,-1.20531 0,-2.41062 0,-3.81682c6.18151,0 12.36302,0 18.71623,0c0,1.17183 0,2.47758 0,3.85029c-1.67416,0.30133 -3.34832,0.63613 -5.0654,0.97094c0,8.47065 0,16.9413 0,25.5124c1.63123,0.33481 3.30539,0.66962 5.10833,1.0379c0,1.30575 0,2.57803 0,3.95074c-6.22443,0 -12.40594,0 -18.71623,0c0,-1.27228 0,-2.57803 0,-3.98422c1.71708,-0.33481 3.39125,-0.66962 5.19418,-1.0379c0,-6.76313 0,-13.42582 0,-20.28938m6.6537,-0.1674c0,-1.97537 0,-3.98422 0,-5.95959c1.8888,-0.36829 3.52002,-0.70309 5.28004,-1.07139c-0.04293,-0.60266 -0.08585,-1.10487 -0.08585,-1.50664c-5.32297,0 -10.38837,0 -15.62547,0c0.25757,2.9798 3.94929,1.43967 5.23711,2.77891c0,9.07331 0,18.18009 0,27.28688c-5.23711,1.10487 -5.23711,1.10487 -4.8937,2.67846c5.10833,0 10.21665,0 15.41084,0c-0.04293,-0.66962 -0.12878,-1.17183 -0.1717,-1.70752c-1.80294,-0.36829 -3.43417,-0.66962 -5.15125,-1.00443c0,-7.09794 0,-14.12891 0,-21.4947l-0.00001,0.00001z" fill="#e6e6e6"/>
  </g>
 </g>

</svg>