<svg width="410" height="90" xmlns="http://www.w3.org/2000/svg" version="1.1" enable-background="new 0 0 1256 306" xml:space="preserve">
 <g>
  <title>Layer 1</title>
  <g id="svg_27">
   <path fill="#dbdbdb" d="m195.88745,45.06206c-2.44488,-2.02586 -3.79134,-4.28419 -3.08268,-7.37279c0.14173,-0.53137 -0.1063,-1.32843 -0.46063,-1.82659c-1.09843,-1.42806 -1.09843,-2.7897 -0.17717,-4.3174c0.28346,-0.46495 0.28346,-1.5277 -0.07087,-1.8598c-2.16142,-2.09228 -1.24016,-4.81556 -1.73622,-7.23995c-0.07087,-0.39853 0.38976,-1.12917 0.85039,-1.36164c2.12599,-1.12917 1.84252,-3.35429 2.65748,-5.08125c0.38976,-0.89669 0.7441,-1.82659 1.34646,-2.55723c1.06299,-1.36164 2.37402,-2.49081 2.72835,-4.28419c0.35433,-1.72696 3.01181,-2.98897 5.52756,-2.62365c1.59449,0.23248 2.23229,-0.43174 2.83465,-1.5277c1.16929,-2.12549 2.69292,-3.6864 5.49213,-4.08493c3.47244,-0.53137 6.05906,1.42806 7.29922,3.88566c0.60236,1.2288 0.60236,2.75649 1.13386,4.08493c0.56693,1.32843 1.38189,2.59044 2.16142,3.85245c1.27559,2.02586 2.58662,4.0185 3.89764,5.97794c0.17717,0.23248 0.38976,0.46495 0.6378,0.59779c3.33071,1.95944 4.11024,5.14767 4.67717,8.43554c0.35433,2.29154 0.6378,4.58309 1.06299,6.87463c0.1063,0.46495 0.7441,0.9299 1.20473,1.29522c1.70079,1.32843 3.68504,2.4576 4.32284,4.64951c0.3189,1.09596 0.4252,2.25833 0.46063,3.3875c0.03543,1.49448 0.49606,2.65686 1.80709,3.55355c1.84252,1.29522 2.72835,2.95576 2.26772,5.14767c-0.1063,0.49816 0.03543,1.09596 0.24803,1.59412c1.48819,3.61997 0.77953,6.94105 -1.41732,10.12929c-0.28346,0.43174 -0.5315,0.99632 -0.49606,1.49448c0.35433,3.0886 0.81496,6.1772 1.20473,9.29902c0.2126,1.66054 -0.7441,2.92255 -2.01969,3.78603c-3.47244,2.32475 -7.08662,4.51667 -10.66536,6.74179c-0.35433,0.19926 -0.88583,0.33211 -1.31102,0.26569c-3.96851,-0.66422 -7.33465,0.73064 -10.62993,2.65686c-1.84252,1.06274 -2.40945,1.02953 -3.33071,-0.79706c-1.38189,-2.75649 -2.55118,-5.64583 -3.57874,-8.56838c-1.24016,-3.48713 -2.40945,-7.00747 -3.29528,-10.56103c-0.81496,-3.35429 -1.02756,-6.80821 -1.77166,-10.19571c-0.35433,-1.66054 -1.20473,-3.22144 -1.91339,-4.98162c-2.33858,0.36532 -3.50788,-1.09596 -4.21654,-2.95576c-0.67323,-1.76017 -1.16929,-3.55355 -1.77166,-5.44657c-0.5315,0 -1.13386,0 -1.87795,-0.06642m3.18898,-3.78603c-1.38189,0.06642 -2.72835,0.16605 -4.57087,0.23248c0.70866,1.19559 1.16929,2.05907 1.70079,2.95576c1.27559,-0.99632 2.23229,-1.79338 3.47244,-2.62365c0.60236,-0.16605 1.27559,-0.23248 1.80709,-0.53137c0.38976,-0.19926 0.56693,-0.69743 0.81496,-1.09596c-0.1063,-0.06642 -0.24803,-0.09963 -0.35433,-0.16605c-0.85039,0.43174 -1.70079,0.89669 -2.87008,1.2288m30.8268,2.65686c0,0 -0.03543,0.03321 0.17717,0.36532c0.85039,-0.09963 1.94882,-1.02953 2.09055,0.631c-0.03543,0.39853 -0.07087,0.83027 0.2126,1.09596c1.48819,-0.69743 1.27559,-2.02586 0.92126,-3.02218c-0.28346,-0.76385 -1.27559,-1.29522 -1.91339,-1.89301c0,-0.96311 0.07087,-2.12549 -0.03543,-3.22144c-0.28346,-3.42071 -0.49606,-6.84142 -0.99213,-10.19571c-0.4252,-3.05539 -1.48819,-5.81189 -4.28741,-7.87095c-1.41732,-1.02953 -2.37402,-2.69007 -3.36614,-4.15135c-0.88583,-1.2288 -1.45276,-2.65686 -2.37402,-3.85245c-0.3189,-0.46495 -1.20473,-0.83027 -1.80709,-0.76385c-0.99213,0.13284 -2.16142,0.43174 -2.90551,1.02953c-2.58662,2.19191 -5.10237,4.48345 -7.54725,6.80821c-0.49606,0.46495 -0.5315,1.39485 -1.02756,1.82659c-2.05512,1.89301 -2.48032,4.35061 -2.26772,6.70858c0.1063,1.62733 -0.07087,3.02218 -0.88583,4.25098c-1.55906,2.42439 -1.09843,5.04804 -0.85039,7.53885c0.3189,3.28787 1.06299,6.50931 1.59449,9.76397c0.4252,2.42439 0.46063,4.98162 1.24016,7.27316c1.45276,4.11814 4.35827,7.47242 8.00788,10.06286c3.68504,2.62365 7.72442,4.35061 12.68505,3.95208c3.36614,-0.26569 6.73229,-0.36532 9.49607,-2.42439c2.12599,-1.56091 4.6063,-2.92255 5.563,-5.5462c0.95669,-2.62365 1.62992,-5.2473 0.24803,-7.97059c-0.3189,-0.59779 -0.35433,-1.39485 -0.28346,-2.09228c0.2126,-1.49448 -0.14173,-2.65686 -1.59449,-3.55355c-1.62992,-0.99632 -2.48032,-2.4576 -2.40945,-4.45024c0.03543,-1.16238 -0.03543,-2.55723 -0.6378,-3.48713c-1.02756,-1.66054 -2.55118,-3.02218 -3.86221,-4.51667c-0.24803,0.09963 -0.5315,0.19926 -0.77953,0.33211c0.35433,1.46127 0.24803,3.25466 1.13386,4.3174c1.31102,1.59412 1.52362,3.15502 0.81496,4.71593c-0.3189,0.76385 -1.80709,1.06274 -2.76378,1.56091c-0.24803,-0.43174 -0.5315,-0.86348 -0.67323,-1.46127c-0.3189,0.09963 -0.6378,0.16605 -1.06299,0.46495c-2.48032,1.2288 -4.11024,-0.39853 -5.59843,-1.69375c-0.28346,0.83027 -0.35433,1.62733 -0.77953,1.99265c-0.4252,0.2989 -1.45276,0.39853 -1.87795,0.09963c-0.7441,-0.43174 -1.45276,-1.19559 -1.66536,-1.95944c-0.56693,-1.79338 1.41732,-4.88198 3.33071,-5.47978c0.17717,-0.06642 0.4252,0.06642 0.77953,0.13284c-0.95669,1.12917 -2.05512,2.05907 -2.65748,3.22144c-0.99213,1.79338 -0.5315,2.72328 0.85039,2.98897c0.49606,-0.73064 0.77953,-1.72696 1.45276,-2.02586c1.06299,-0.53137 1.77166,0.39853 2.37402,1.19559c0.1063,0.13284 0.2126,0.33211 0.35433,0.36532c0.88583,0.13284 1.80709,0.43174 2.65748,0.33211c0.35433,-0.06642 0.6378,-0.9299 0.92126,-1.39485m-13.28741,25.14055c-3.11811,-2.35796 -6.23623,-4.68272 -9.28347,-6.94105c-0.24803,2.55723 5.563,21.25489 7.58268,24.3435c1.52362,-0.83027 2.94095,-2.12549 4.53544,-2.42439c5.17323,-0.86348 9.03544,-4.54988 14.13781,-5.47978c0.77953,-0.16605 1.52362,-0.73064 2.23229,-1.19559c1.55906,-1.06274 3.08268,-2.1587 4.74804,-3.32108c-0.24803,-2.39118 -0.5315,-4.98162 -0.81496,-7.50563c-7.08662,5.34693 -14.59844,6.775 -23.13782,2.52402m-16.75986,-52.4066c3.11811,2.25833 7.47638,1.39485 11.12599,-2.12549c-1.34646,-1.16238 -2.65748,-2.29154 -4.78347,-1.29522c-0.4252,0.19926 -1.62992,-0.49816 -2.12599,-1.06274c-0.85039,-0.89669 -1.38189,-2.02586 -1.98425,-2.95576c-2.48032,1.92622 -4.28741,4.05171 -2.23229,7.43921m22.28742,68.54703c1.77166,-0.09963 3.50788,-0.19926 5.27953,-0.36532c0.70866,-0.06642 1.55906,-0.13284 2.16142,-0.46495c2.51575,-1.39485 5.0315,-2.7897 7.44095,-4.35061c1.73622,-1.16238 3.72048,-2.25833 4.03937,-4.64951c-1.41732,0.631 -2.69292,1.46127 -4.00394,2.22512c-1.62992,0.9299 -3.25985,1.89301 -4.99607,2.69007c-1.66536,0.79706 -3.47244,1.32843 -5.20867,2.02586c-1.73622,0.66422 -3.40158,1.39485 -5.10237,2.09228c-1.73622,0.69743 -3.47244,1.36164 -5.10237,2.1587c-0.4252,0.16605 -0.60236,0.79706 -0.88583,1.2288c0.49606,0 1.09843,0.09963 1.52362,-0.09963c1.55906,-0.73064 3.08268,-1.56091 4.85434,-2.49081m-28.73625,-50.31432c0.28346,0.59779 0.60236,1.16238 0.81496,1.59412c0.88583,0.09963 1.70079,0.23248 2.51575,0.23248c0.85039,-0.03321 2.01969,0.06642 2.48032,-0.39853c2.23229,-2.19191 4.11024,-4.64951 4.14567,-8.07022c-0.5315,0.16605 -0.92126,0.2989 -1.27559,0.43174c-1.59449,0.66422 -3.18898,1.46127 -4.85434,1.95944c-2.30315,0.66422 -3.82678,2.05907 -3.82678,4.25098m8.43308,-8.43554c0.56693,-0.36532 1.41732,-0.631 1.62992,-1.12917c0.70866,-1.5277 1.16929,-3.18823 1.80709,-5.01483c-0.95669,0.13284 -1.70079,0.13284 -2.40945,0.33211c-2.55118,0.76385 -3.11811,0.59779 -4.85434,-1.29522c-0.7441,-0.79706 -1.66536,-1.49448 -2.48032,-2.19191c0.28346,1.46127 0.77953,2.65686 1.16929,3.85245c0.35433,1.12917 0.5315,2.32475 0.88583,3.48713c0.60236,1.89301 2.33858,1.89301 4.25197,1.95944m15.66143,-22.21801c-2.23229,-2.88934 -6.80316,-3.22144 -8.78741,-0.49816c2.12599,0 3.04725,1.26201 3.93307,2.82292c0.4252,0.76385 1.55906,1.36164 2.51575,1.69375c1.13386,0.36532 2.40945,0.2989 4.14567,0.49816c-0.60236,-1.56091 -1.09843,-2.95576 -1.80709,-4.51667m-2.87008,7.17353c-0.2126,-0.09963 -0.38976,-0.33211 -0.60236,-0.33211c-3.01181,0.03321 -5.84646,-0.19926 -7.93702,-2.82292c-0.92126,-1.12917 -2.87008,-0.69743 -3.50788,0.19926c0.49606,0.69743 0.99213,1.32843 1.38189,1.99265c0.70866,1.32843 1.48819,2.09228 3.29528,1.56091c0.85039,-0.23248 2.19685,0.03321 2.79922,0.56458c1.16929,0.99632 2.12599,0.69743 3.15355,0.09963c0.49606,-0.26569 0.92126,-0.66422 1.41732,-1.26201m-3.79134,-5.71225c-1.70079,-1.39485 -2.83465,-1.12917 -4.46457,1.09596c0.28346,0.33211 0.5315,0.66422 0.81496,0.99632c1.09843,1.26201 2.30315,2.29154 4.28741,2.09228c1.06299,-0.06642 2.48032,-0.16605 3.25985,0.36532c1.41732,0.96311 2.16142,0.13284 3.22441,-0.43174c-2.94095,-0.39853 -5.95276,-0.59779 -7.12205,-4.11814m-17.36222,14.812c-1.13386,0.83027 -2.58662,1.5277 -1.80709,3.28787c0.81496,1.82659 3.04725,2.75649 5.63386,2.42439c-0.88583,-2.55723 -1.77166,-5.11446 -2.62205,-7.67169c-0.14173,0.03321 -0.28346,0.06642 -0.4252,0.13284c-0.2126,0.56458 -0.38976,1.09596 -0.77953,1.82659m6.16536,26.93394c0.70866,1.49448 1.34646,3.02218 2.16142,4.45024c0.17717,0.33211 0.85039,0.39853 1.31102,0.59779c0.17717,-0.43174 0.5315,-0.86348 0.49606,-1.26201c-0.14173,-1.32843 -0.46063,-2.62365 -0.67323,-3.88566c-0.81496,0.43174 -1.45276,0.76385 -2.09055,1.09596c-0.14173,-0.16605 -0.28346,-0.33211 -0.4252,-0.46495c3.08268,-1.5277 -0.49606,-3.45392 0.77953,-5.14767c-2.65748,0.46495 -2.65748,0.46495 -2.05512,2.59044c0.14173,0.59779 0.28346,1.16238 0.49606,2.02586m1.87795,-9.09975c0.03543,-0.66422 0.1063,-1.29522 0.1063,-1.5277c-1.87795,0.33211 -3.54331,0.96311 -5.17323,0.89669c-2.58662,-0.13284 -3.25985,0.43174 -2.55118,2.75649c1.45276,-0.13284 2.90551,-0.49816 4.28741,-0.36532c1.55906,0.13284 2.48032,-0.43174 3.33071,-1.76017m-5.27953,-10.95955c-1.52362,-0.46495 -3.08268,-0.89669 -4.96063,-1.46127c0.92126,1.72696 1.80709,3.42071 2.58662,4.88198c1.87795,-0.59779 3.86221,-1.19559 5.84646,-1.82659c0,-0.13284 0,-0.2989 0.03543,-0.43174c-1.06299,-0.39853 -2.12599,-0.79706 -3.50788,-1.16238m4.9252,-8.76764c-2.01969,-1.12917 -3.68504,-2.52402 -3.61418,-5.47978c-1.09843,0.76385 -1.77166,1.2288 -2.58662,1.79338c1.66536,1.62733 3.04725,3.12181 4.57087,4.45024c0.5315,0.43174 1.48819,0.59779 2.23229,0.56458c1.45276,-0.06642 2.87008,-0.33211 4.28741,-0.56458c0.2126,-0.03321 0.38976,-0.26569 0.88583,-0.66422c-2.05512,0 -3.79134,0 -5.7756,-0.09963m-1.77166,-8.03701c0.67323,-0.76385 1.34646,-1.56091 2.16142,-2.49081c-2.30315,0.06642 -3.01181,0.96311 -2.16142,2.49081m23.59845,35.137c0,0 -0.03543,0.03321 0,0z" id="svg_1"/>
   <path fill="#d1d1d1" d="m229.93867,43.89969c-0.6378,-0.03321 -1.27559,-0.06642 -1.91339,-0.09963c0.03543,-0.13284 0.03543,-0.26569 0.03543,-0.39853c0.77953,-0.43174 1.59449,-0.89669 2.37402,-1.32843c0.14173,0.03321 0.28346,0.03321 0.4252,0.06642c-0.24803,0.56458 -0.49606,1.12917 -0.85039,1.76017c-0.14173,0.06642 -0.1063,0.03321 -0.07087,0z" id="svg_14"/>
   <path fill="#d1d1d1" d="m232.17095,45.56023c0,0.13284 0,0.2989 -0.07087,0.53137c0,-0.33211 0.03543,-0.76385 0.17717,-1.19559c0.14173,-0.03321 0.1063,-0.03321 0.03543,0.03321c-0.1063,0.23248 -0.1063,0.43174 -0.14173,0.631l0,0.00001z" id="svg_16"/>
   <path fill="#d1d1d1" d="m230.78906,45.7927c-0.24803,0.06642 -0.4252,0.03321 -0.7441,0.09963c0.14173,-0.03321 0.46063,-0.09963 0.7441,-0.09963z" id="svg_17"/>
   <path fill="#d1d1d1" d="m222.95834,45.75949c0,0 0.03543,-0.03321 0,0z" id="svg_18"/>
   <path fill="#d8d8d8" d="m219.0607,54.56034c-0.46063,-0.16605 -0.95669,-0.36532 -1.45276,-0.53137c0.24803,-0.43174 0.38976,-0.96311 0.77953,-1.26201c1.55906,-1.12917 3.08268,-2.35796 4.8189,-3.25466c0.81496,-0.43174 2.05512,-0.26569 3.08268,-0.26569c0.81496,0 1.77166,0.43174 2.48032,0.16605c1.62992,-0.56458 2.79922,-0.06642 3.89764,0.96311c0.85039,0.79706 1.70079,1.62733 2.58662,2.35796c0.24803,0.23248 0.70866,0.23248 1.62992,0.53137c-1.13386,0.53137 -1.84252,0.86348 -2.79922,1.2288c-0.38976,0.03321 -0.5315,0.03321 -0.81496,0c-4.53544,-0.26569 -8.92914,-2.22512 -13.42915,0.03321c-0.35433,0 -0.56693,0.03321 -0.77953,0.03321m2.83465,-1.72696c1.70079,-0.06642 3.36614,-0.19926 5.06693,-0.16605c2.26772,0.06642 4.5,0.2989 7.15749,0.49816c-0.56693,-0.49816 -0.81496,-0.66422 -0.99213,-0.86348c-1.24016,-1.36164 -2.40945,-2.7897 -4.67717,-1.59412c-0.35433,0.19926 -1.02756,0.03321 -1.52362,-0.13284c-2.79922,-0.76385 -5.42126,0.16605 -7.47638,3.02218c0.99213,-0.2989 1.59449,-0.46495 2.44488,-0.76385z" id="svg_19"/>
   <path fill="#d8d8d8" d="m221.68275,29.95116c0.38976,0.59779 0.77953,1.19559 1.41732,2.19191c-1.31102,0.23248 -2.44488,0.66422 -3.57874,0.66422c-2.90551,0 -5.7756,-0.16605 -8.68111,-0.2989c-0.24803,0 -0.49606,-0.26569 -0.7441,-0.631c-0.07087,-0.49816 -0.07087,-0.73064 -0.07087,-1.09596c0.03543,-0.23248 0.03543,-0.36532 0,-0.49816c0,0 0,0 0.1063,0.09963c0.5315,-0.23248 0.99213,-0.59779 1.45276,-0.9299c3.93307,-2.95576 6.55512,-2.82292 10.09843,0.49816m-1.70079,1.72696c0.4252,-0.03321 0.85039,-0.06642 1.45276,-0.06642c-1.27559,-2.05907 -2.79922,-3.42071 -5.27953,-3.05539c-1.94882,0.26569 -3.82678,0.79706 -4.96063,3.0886c3.01181,0 5.74016,0 8.78741,0.03321l-0.00001,0z" id="svg_20"/>
   <path fill="#d8d8d8" d="m218.49377,23.97322c-4.18111,0.53137 -8.29135,0.76385 -11.69292,3.3875c0.85039,-1.82659 2.44488,-2.7897 4.18111,-3.28787c3.61418,-1.09596 7.29922,-1.56091 11.05513,-0.43174c2.01969,0.631 4.11024,3.15502 4.03937,5.11446c-0.03543,0.39853 -0.28346,0.76385 -0.56693,1.46127c-0.38976,-0.66422 -0.70866,-0.96311 -0.70866,-1.26201c-0.07087,-2.65686 -1.45276,-4.18456 -4.25197,-4.58309c-0.6378,-0.09963 -1.27559,-0.26569 -2.05512,-0.39853l-0.00001,0.00001z" id="svg_21"/>
   <path fill="#d1d1d1" d="m210.02526,30.91427c0,0.23248 0,0.46495 0.03543,0.83027c-0.46063,0.03321 -0.92126,-0.06642 -1.38189,-0.13284c-0.4252,-2.59044 2.40945,-5.61262 5.74016,-6.1772c4.88977,-0.79706 8.39765,1.02953 9.31891,5.18088c-0.60236,-0.23248 -0.99213,-0.43174 -1.52362,-0.76385c-2.23229,-3.65318 -4.96063,-3.75282 -8.36221,-3.12181c-1.84252,0.36532 -3.40158,1.56091 -3.82678,3.55355c0,0 0,0 -0.1063,0c-0.03543,0.19926 0.03543,0.43174 0.1063,0.631z" id="svg_22"/>
   <path fill="#d1d1d1" d="m219.20244,54.62677c0.07087,-0.06642 0.28346,-0.09963 0.56693,0c0.70866,0.56458 1.34646,1.29522 2.05512,1.36164c2.87008,0.2989 5.74016,0.56458 8.57481,0.46495c1.06299,-0.06642 2.01969,-1.26201 3.01181,-1.92622c0.14173,0 0.28346,0 0.5315,-0.03321c0.03543,0.43174 0.1063,0.99632 -0.14173,1.26201c-1.52362,1.62733 -3.43701,2.22512 -5.81103,1.82659c-1.27559,-0.23248 -2.65748,0 -4.00394,-0.16605c-1.24016,-0.16605 -2.51575,-0.46495 -3.64961,-0.96311c-0.49606,-0.23248 -0.67323,-1.16238 -1.13386,-1.82659l0,-0.00001z" id="svg_23"/>
   <path fill="#dbdbdb" d="m232.27725,45.4938c-0.07087,-0.13284 -0.07087,-0.33211 0.03543,-0.56458c0.07087,0.13284 0.07087,0.33211 -0.03543,0.56458z" id="svg_24"/>
   <path fill="#191919" d="m210.02526,30.78143c-0.07087,-0.06642 -0.14173,-0.2989 -0.1063,-0.49816c0.14173,0.13284 0.14173,0.26569 0.1063,0.49816z" id="svg_25"/>
  </g>
  <g id="svg_26">
   <path fill="#eeeeee" d="m86.38296,64.95537c-1.63642,-3.10868 -3.15596,-6.21736 -4.61706,-9.36348c-2.65919,-5.65554 -5.31838,-11.31109 -7.94835,-16.96663c-0.20455,-0.44945 -0.43832,-0.89889 -0.84743,-1.72289c0,7.75296 0,15.01904 0,22.39746c0.81821,0.26218 1.63642,0.63671 2.48386,0.71163c1.28576,0.11237 1.69487,0.86144 1.51953,2.39705c-0.08766,0.78654 0,1.57306 0,2.47197c-4.29561,0 -8.38667,0 -12.79918,0c0.11689,-1.49816 -0.17534,-3.40831 0.43832,-4.34466c0.64288,-0.93635 2.13319,-0.86144 3.27285,-1.23598c0,-9.55076 0,-19.02661 0,-28.53992c-1.1981,-0.37453 -2.30853,-0.71163 -3.53585,-1.12361c0,-1.31088 0,-2.65923 0,-4.38212c2.27931,0 4.61706,0.26218 6.92558,-0.11237c2.22087,-0.33709 3.30208,0.71163 4.38329,3.14614c3.44818,7.94023 7.15935,15.69321 10.75365,23.52108c0.23377,0.52436 0.46755,1.01126 0.99355,1.46071c0,-0.71163 0,-1.42325 0,-2.13488c0,-6.1799 -0.05845,-12.35981 0.02922,-18.53971c0.02922,-1.46071 -0.32144,-2.13488 -1.43187,-2.32214c-0.70132,-0.11237 -1.40265,-0.37453 -2.16242,-0.59926c0,-1.42325 0,-2.77159 0,-4.30721c4.06184,0 8.06524,0 12.12707,0c0,1.38579 0,2.77159 0,4.26975c-1.16887,0.37453 -2.27931,0.71163 -3.59429,1.12361c0,11.386 0,22.73455 0,34.23292c-2.07476,0 -3.97417,0 -5.99048,-0.03746m2.10398,-7.49078c-0.02922,0.29964 -0.05845,0.63671 -0.08766,1.31088c-0.37989,-0.78654 -0.61366,-1.27344 -0.81821,-1.72289c-4.44172,-9.66312 -8.88345,-19.28879 -13.3544,-28.91445c-0.263,-0.59926 -0.75977,-1.38579 -1.16887,-1.42325c-2.5423,-0.11237 -5.11382,-0.03746 -7.53924,-0.03746c-0.37989,1.53562 0,2.09742 0.90587,2.24724c0.58444,0.07491 1.1981,0.22472 1.69487,0.56181c0.35066,0.26218 0.81821,0.86144 0.84743,1.31088c0.02922,9.85038 0.02922,19.70078 0.02922,29.62607c-1.22732,0.37453 -2.39619,0.74908 -3.56506,1.12361c0,0.71163 0,1.31088 0,1.94761c3.50663,0 6.92558,0 10.43221,0c-0.02922,-0.71163 -0.02922,-1.27344 -0.05845,-1.91015c-1.40265,-0.41199 -2.68842,-0.78654 -3.94495,-1.16107c0,-9.55076 0,-18.9517 0,-28.76464c0.40911,0.86144 0.64288,1.38579 0.87666,1.8727c4.47095,9.55076 8.91267,19.13897 13.41283,28.65227c0.23377,0.56181 0.6721,1.27344 1.05198,1.34834c1.31498,0.14981 2.65919,0.03746 4.09106,0.03746c0,-0.89889 0,-1.57306 0,-2.24724c0,-8.87659 0,-17.71572 0,-26.59231c0,-1.57306 -0.40911,-3.52067 0.17534,-4.56939c0.58444,-1.04872 2.16242,-1.19853 3.33129,-1.76034c0,-0.4869 0,-1.08616 0,-1.57306c-3.33129,0 -6.60414,0 -9.93543,0c0.05845,0.67417 0.08766,1.23598 0.11689,1.72289c1.1981,0.41199 2.30853,0.78654 3.50663,1.19853c0,9.17621 0,18.27753 0,27.71592l0,0.00003l-0.00001,0.00001z" id="svg_2"/>
   <path fill="#e6e6e6" d="m105.11417,64.99282c-2.07476,0 -4.03261,0 -6.04893,0c0,-1.57306 0,-2.99631 0,-4.56939c1.11043,-0.37453 2.22087,-0.71163 3.41896,-1.08616c0,-9.47585 0,-18.9517 0,-28.57736c-1.11043,-0.33709 -2.25008,-0.71163 -3.4774,-1.12361c0,-1.38579 0,-2.73413 0,-4.30721c7.39314,0 14.72783,0 22.15018,0c0,3.3334 0,6.77916 0,10.37474c-1.13966,0 -2.33774,0 -3.65274,0c-0.35066,-1.49816 -0.70132,-3.07122 -1.08121,-4.68174c-2.68842,0 -5.37682,0 -8.12369,0c0,3.40831 0,6.81662 0,10.26239c3.24363,0 6.39959,0 9.64322,0c0,1.94761 0,3.78285 0,5.76791c-3.15596,0 -6.34114,0 -9.61399,0c0,4.08248 0,7.97769 0,11.98526c2.8053,0 5.66904,0 8.70812,0c0.263,-1.64797 0.58444,-3.44576 0.87666,-5.24355c1.28576,0 2.48386,0 3.7404,0c0,3.70794 0,7.37843 0,11.19873c-5.52293,0 -10.9582,0 -16.53957,0m-1.43187,-30.11298c0,8.5395 0,17.04155 0,25.54359c-1.28576,0.41199 -2.39619,0.78654 -3.53585,1.12361c0,0.71163 0,1.31088 0,1.94761c6.83792,0 13.55895,0 20.36765,0c0,-2.77159 0,-5.50573 0,-8.20241c-1.25653,-0.52436 -1.92864,-0.03746 -2.01631,1.72289c-0.05845,1.16107 -0.37989,2.32214 -0.55521,3.40831c-3.65274,0 -7.2178,0 -10.78287,0c0,-4.94392 0,-9.73803 0,-14.75686c3.27285,0 6.51648,0 9.67244,0c0,-1.12361 0,-1.94761 0,-2.95887c-3.27285,0 -6.45803,0 -9.64322,0c0,-4.49447 0,-8.76422 0,-13.10889c3.41896,0 6.75025,0 10.08154,0c0.263,1.12361 0.55521,2.09742 0.70132,3.14614c0.20455,1.76034 0.9351,2.05996 2.10398,1.53562c0,-2.58432 0,-5.09373 0,-7.52824c-6.72103,0 -13.32517,0 -20.0462,0c0.14611,3.40831 2.65919,1.68543 3.65274,3.37086c0,1.27344 0,2.8465 0,4.75665l0.00001,-0.00001l-0.00002,0z" id="svg_5"/>
   <path fill="#ededed" d="m145.61569,37.53907c-1.05198,0 -1.98708,0 -2.9514,0c-0.43832,-1.72289 -0.84743,-3.40831 -1.31498,-5.01883c-0.11689,-0.41199 -0.35066,-1.01126 -0.61366,-1.08616c-2.19164,-0.59926 -4.4125,-1.31088 -6.57492,-0.07491c-2.77608,1.57306 -3.09752,5.13119 -0.58444,7.26606c1.37343,1.16107 3.00985,1.8727 4.55861,2.77159c1.84098,1.08616 3.79884,1.94761 5.52293,3.25849c5.05538,3.74539 4.29561,12.43472 1.25653,16.36738c-3.33129,4.26975 -7.4808,5.05629 -11.8933,4.26975c-1.95787,-0.33709 -3.85729,-1.16107 -5.78593,-1.68543c-0.789,-0.22472 -1.11043,-0.67417 -1.08121,-1.76034c0.05845,-3.10868 0.02922,-6.21736 0.02922,-9.43839c1.4611,0 2.86374,0 4.4125,0c0.263,1.57306 0.49677,3.25849 0.81821,4.90646c0.11689,0.52436 0.43832,1.12361 0.789,1.31088c2.16242,1.04872 4.38329,1.19853 6.57492,0.14981c1.57798,-0.78654 2.8053,-2.02251 2.92219,-4.41956c0.08766,-2.32214 -1.16887,-3.44576 -2.57153,-4.23229c-2.71763,-1.57306 -5.52293,-2.80904 -8.18212,-4.45702c-4.76316,-3.03377 -6.19503,-10.48711 -3.12674,-16.06774c1.98708,-3.55813 4.96772,-4.68174 8.1529,-4.94392c3.65274,-0.29964 7.13014,0.78654 10.37377,2.24724c0,3.40831 0,6.62935 -0.02922,9.85038c0,0.26218 -0.37989,0.52436 -0.70132,0.78654m-11.33809,-7.75296c1.72409,-0.07491 3.4774,-0.22472 5.2015,-0.18727c1.81176,0 3.03908,1.04872 3.24363,3.52067c0.02922,0.44945 0.23377,0.82399 0.29222,1.27344c0.17534,1.76034 0.96432,2.05996 2.27931,1.49816c0,-2.58432 0,-5.24355 0,-7.97769c-3.76962,-1.38579 -7.56846,-2.43451 -11.57186,-1.46071c-3.15596,0.78654 -5.69827,3.85776 -6.19503,7.67807c-0.55521,4.64428 0.73055,8.20241 3.88651,10.29984c1.22732,0.82399 2.5423,1.49816 3.82806,2.17233c1.69487,0.93635 3.50663,1.57306 5.08461,2.77159c3.44818,2.58432 3.33129,7.64061 -0.17534,10.07511c-2.9514,2.05996 -5.99048,1.72289 -9.00033,0.14981c-0.35066,-0.18727 -0.64288,-0.86144 -0.73055,-1.38579c-0.29222,-1.46071 -0.46755,-2.92141 -0.70132,-4.34466c-0.84743,0 -1.60721,0 -2.42542,0c0,2.47197 -0.02922,4.83157 0.02922,7.19116c0.02922,0.44945 0.29222,1.16107 0.55521,1.27344c4.61706,1.91015 9.29256,2.92141 13.88039,0.03746c2.98063,-1.8727 4.35406,-5.2061 4.44172,-9.36348c0.08766,-3.93266 -1.69487,-6.36717 -4.20795,-8.0526c-0.84743,-0.59926 -1.75331,-1.08616 -2.62997,-1.53562c-1.81176,-0.93635 -3.65274,-1.72289 -5.37682,-2.80904c-0.96432,-0.63671 -1.92864,-1.57306 -2.51308,-2.73413c-1.57798,-3.03377 -0.526,-6.03009 2.8053,-8.09006l0.00001,-0.00003l-0.00002,0z" id="svg_6"/>
   <path fill="#eeeeee" d="m160.92796,48.13855c-2.27931,-1.53562 -4.70472,-2.62178 -6.5457,-4.60684c-2.65919,-2.88396 -3.03908,-7.00388 -2.01631,-11.16128c1.11043,-4.45702 3.85729,-6.55444 7.24703,-7.37843c4.09106,-1.01126 8.03601,0.03746 11.8933,1.76034c0.29222,0.11237 0.6721,0.71163 0.70132,1.08616c0.05845,3.18359 0.02922,6.32971 0.02922,9.58822c-1.49032,0 -2.65919,0 -3.94495,0c-0.37989,-1.49816 -0.70132,-3.10868 -1.22732,-4.60684c-0.23377,-0.67417 -0.84743,-1.42325 -1.34421,-1.53562c-1.66565,-0.26218 -3.38974,-0.4869 -5.02616,-0.26218c-1.49032,0.22472 -2.77608,1.34834 -3.09752,3.44576c-0.29222,2.05996 0.526,3.55813 1.87021,4.41956c1.69487,1.08616 3.4774,1.8727 5.17227,2.92141c1.98708,1.23598 4.20795,2.24724 5.84437,4.04503c3.91574,4.34466 3.09752,12.95906 -1.40265,16.81682c-3.12674,2.73413 -6.66259,3.3334 -10.31532,2.65923c-2.27931,-0.44945 -4.52939,-1.23598 -6.83792,-1.8727c0,-3.85776 0,-7.45334 0,-11.08637c1.43187,0 2.83453,0 4.32484,0c0.23377,1.53562 0.37989,3.14614 0.75977,4.68174c0.17534,0.67417 0.70132,1.49816 1.1981,1.72289c2.19164,1.01126 4.4125,1.04872 6.5457,-0.18727c1.43187,-0.78654 2.57153,-2.09742 2.60074,-4.30721c0.02922,-2.17233 -1.13966,-3.25849 -2.42542,-4.08248c-1.25653,-0.78654 -2.60074,-1.34834 -4.0034,-2.05996m-3.2144,-16.62956c1.63642,-2.09742 3.68195,-2.20979 5.84437,-2.09742c3.79884,0.22472 3.94495,0.29964 5.02616,4.83157c0.35066,1.61052 0.90587,2.32214 2.36697,1.64797c0,-2.58432 0,-5.16864 0,-7.86533c-3.18519,-1.76034 -8.62045,-2.47197 -11.8933,-1.49816c-3.2144,0.93635 -5.58138,4.15738 -5.96127,8.01514c-0.43832,4.56939 0.96432,7.97769 4.23717,10.07511c1.22732,0.78654 2.48386,1.38579 3.7404,2.05996c1.66565,0.89889 3.41896,1.57306 4.9385,2.73413c3.38974,2.54687 3.27285,7.49078 -0.14611,10.00021c-2.68842,1.94761 -5.49371,1.64797 -8.35746,0.63671c-0.99355,-0.37453 -1.51953,-1.08616 -1.60721,-2.47197c-0.05845,-1.27344 -0.37989,-2.54687 -0.55521,-3.74539c-0.84743,0 -1.57798,0 -2.39619,0c0,2.50941 -0.02922,4.94392 0.02922,7.34097c0,0.41199 0.263,1.04872 0.49677,1.16107c4.88005,1.94761 9.76011,3.03377 14.55249,-0.41199c4.17872,-2.99631 6.04893,-12.80925 -0.14611,-16.77937c-1.28576,-0.82399 -2.65919,-1.46071 -4.0034,-2.20979c-1.87021,-1.12361 -3.85729,-2.05996 -5.6106,-3.48321c-2.19164,-1.76034 -2.39619,-5.05629 -0.55521,-7.94023l0.00001,0.00001l0.00001,0.00001z" id="svg_7"/>
   <path fill="#ededed" d="m17.15634,25.10437c1.89942,0 3.62351,0 5.46449,0c0,3.52067 0,6.89153 0,10.37474c-1.16887,0 -2.33774,0 -3.62351,0c-0.35066,-1.42325 -0.70132,-2.88396 -1.08121,-4.45702c-2.65919,0 -5.37682,0 -8.18212,0c0,3.55813 0,7.07879 0,10.78673c3.18519,0 6.42882,0 9.70166,0c0,2.05996 0,3.89522 0,5.91772c-3.24363,0 -6.48725,0 -9.76011,0c0,3.93266 0,7.67807 0,11.57327c1.37343,0.37453 2.8053,0.74908 4.20795,1.16107c0,1.49816 0,2.92141 0,4.41956c-4.47095,0 -8.88345,0 -13.3544,0c0,-1.46071 0,-2.92141 0,-4.45702c1.13966,-0.37453 2.27931,-0.71163 3.44818,-1.08616c0,-9.47585 0,-18.9517 0,-28.57736c-1.13966,-0.37453 -2.27931,-0.74908 -3.4774,-1.12361c0,-1.38579 0,-2.77159 0,-4.53193c5.52293,0 11.01664,0 16.65647,0m-3.65274,18.20262c-1.63642,0 -3.27285,0 -4.82161,0c0,-4.7192 0,-9.21367 0,-13.82051c3.15596,0 6.19503,0 9.26333,0.07491c0.35066,0 0.81821,0.52436 0.96432,0.93635c0.37989,1.19853 0.64288,2.47197 0.9351,3.67049c0.61366,0 1.11043,0 1.69487,0c0,-2.54687 0,-5.01883 0,-7.41589c-6.6918,0 -13.29596,0 -19.95854,0c0,0.67417 -0.11689,1.49816 0.02922,1.57306c1.13966,0.56181 2.33774,1.01126 3.50663,1.49816c0,10.22493 0,20.4124 0,30.59988c-0.84743,0.26218 -1.60721,0.63671 -2.42542,0.74908c-1.25653,0.18727 -1.37343,1.01126 -1.02276,2.32214c3.71118,0 7.39314,0 11.04587,0c0.32144,-1.42325 0.05845,-2.17233 -1.13966,-2.28469c-0.99355,-0.11237 -1.95787,-0.52436 -2.92219,-0.78654c0,-4.75665 0,-9.36348 0,-14.19505c3.27285,0 6.48725,0 9.70166,0c0,-1.04872 0,-1.91015 0,-2.92141c-1.54876,0 -3.06829,0 -4.85083,0l0.00001,0.00002z" id="svg_9"/>
   <path fill="#e9e9e9" d="m43.98202,64.09392c-0.02922,-3.67049 0,-3.67049 2.71763,-4.34466c0.46755,-0.14981 0.9351,-0.29964 1.4611,-0.44945c0,-9.40094 0,-18.72698 0,-28.20282c-1.4611,0 -2.92219,0 -4.52939,0c-0.35066,1.72289 -0.73055,3.48321 -1.08121,5.24355c-1.25653,0 -2.42542,0 -3.68195,0c0,-3.70794 0,-7.37843 0,-11.12382c8.09446,0 16.21814,0 24.37105,0c0,3.70794 0,7.30352 0,11.04891c-1.1981,0 -2.39619,0 -3.7404,0c-0.32144,-1.64797 -0.70132,-3.37086 -1.08121,-5.2061c-1.49032,0 -2.98063,0 -4.52939,0c0,9.36348 0,18.68952 0,28.24028c1.34421,0.37453 2.74685,0.74908 4.14951,1.16107c0,1.49816 0,2.92141 0,4.53193c-4.35406,0 -8.6789,0 -13.00373,-0.03746c-0.35066,0 -0.70132,-0.44945 -1.05198,-0.86144m18.11757,-37.30414c-0.20455,-0.07491 -0.43832,-0.26218 -0.64288,-0.26218c-7.07169,0 -14.14338,0 -21.18586,0.03746c-0.08766,0 -0.17534,0.11237 -0.29222,0.18727c0,2.69669 0,5.43082 0,8.23987c0.58444,0 1.08121,0 1.72409,0c0.29222,-1.49816 0.55521,-2.99631 0.90587,-4.45702c0.11689,-0.41199 0.526,-0.9738 0.789,-0.9738c1.95787,-0.11237 3.88651,-0.07491 5.84437,-0.07491c0,10.44965 0,20.71204 0,30.97441c-4.2664,1.19853 -4.2664,1.19853 -4.06184,3.03377c3.91574,0 7.83146,0 11.71797,0c0.35066,-1.53562 -0.02922,-2.17233 -1.1981,-2.28469c-0.96432,-0.11237 -1.89942,-0.4869 -2.83453,-0.74908c0,-10.33728 0,-20.59967 0,-30.97441c1.92864,0 3.76962,-0.03746 5.6106,0.07491c0.35066,0 0.87666,0.63671 0.99355,1.12361c0.37989,1.38579 0.61366,2.8465 0.90587,4.30721c0.61366,0 1.13966,0 1.78253,0c0,-2.62178 0,-5.24355 -0.05845,-8.20241l0.00001,0l0.00002,-0.00001z" id="svg_10"/>
   <path fill="#eeeeee" d="m28.49443,41.43429c0,-3.63304 0,-7.04134 0,-10.63692c-1.1981,-0.37453 -2.33774,-0.74908 -3.59429,-1.16107c0,-1.31088 0,-2.65923 0,-4.23229c4.17872,0 8.38667,0 12.6823,0c0,1.27344 0,2.73413 0,4.26975c-1.13966,0.33709 -2.25008,0.71163 -3.41896,1.08616c0,9.47585 0,18.9517 0,28.50246c0.23377,0.11237 0.49677,0.22472 0.75977,0.33709c2.98063,0.9738 2.98063,0.9738 2.65919,5.28101c-4.20795,0 -8.38667,0 -12.6823,0c0,-1.42325 0,-2.8465 0,-4.41956c1.13966,-0.37453 2.33774,-0.78654 3.59429,-1.19853c0,-5.91772 0,-11.79799 0,-17.82808m1.95787,-14.68195c-1.49032,0 -3.00985,0 -4.44172,0c-0.263,1.34834 -0.05845,2.05996 0.9351,2.13488c0.37989,0.03746 0.75977,0.29964 1.13966,0.33709c1.22732,0.11237 1.49032,0.93635 1.49032,2.47197c-0.05845,8.91403 -0.02922,17.86554 -0.02922,26.77957c0,0.67417 0,1.31088 0,1.94761c-1.31498,0.41199 -2.42542,0.78654 -3.56506,1.12361c0,0.71163 0,1.31088 0,1.91015c3.59429,0 7.10092,0 10.6952,0c-0.05845,-3.48321 -2.60074,-1.79778 -3.71118,-3.37086c0,-0.41199 0,-1.08616 0,-1.79778c0,-8.61441 0,-17.19136 0,-25.80577c0,-2.77159 0,-2.73413 2.13319,-3.44576c0.49677,-0.14981 0.99355,-0.37453 1.54876,-0.59926c-0.02922,-0.63671 -0.05845,-1.16107 -0.11689,-1.68543c-1.98708,0 -3.88651,0 -6.07814,0l-0.00001,-0.00003l-0.00001,0.00001z" id="svg_13"/>
  </g>
  <g id="svg_28">
   <path fill="#eaeaea" d="m288.01992,64.85135c-10.13931,0 -20.11895,0 -30.33809,0c0.11976,-1.60178 -0.31935,-3.50158 0.47902,-4.3956c0.83829,-0.93127 2.87413,-0.89402 4.47088,-1.26653c0,-9.46172 0,-18.88619 0,-28.38516c-1.55683,-0.37251 -3.07372,-0.70776 -4.71039,-1.08027c0,-1.41554 0,-2.79381 0,-4.35835c10.05947,0 20.07902,0 30.21833,0c0,3.42708 0,6.85416 0,10.39299c-1.67658,0 -3.31324,0 -5.02974,0c-0.47902,-1.49004 -0.95804,-3.01732 -1.43707,-4.65636c-3.71242,0 -7.38493,0 -11.21711,0c0,3.31533 0,6.63066 0,10.13223c4.39104,0 8.822,0 13.29288,0c0,2.0488 0,3.91134 0,5.88564c-4.43096,0 -8.78208,0 -13.29288,0c0,4.02309 0,7.89719 0,11.84578c3.99185,0 7.94379,0 12.01548,0c0.39919,-1.71354 0.75845,-3.42708 1.15763,-5.21512c1.63666,0 3.27332,0 5.10957,0c0,3.53883 0.03992,7.07767 0,10.65375c0,0.149 -0.35926,0.29801 -0.71854,0.44701m-16.72587,-38.25664c-3.99185,0 -7.98371,0 -11.77597,0c-0.59878,1.60178 -0.11976,2.16055 1.11772,2.3468c0.47902,0.03725 0.91813,0.22351 1.35723,0.26075c1.75642,0.18625 2.3552,0.93127 2.31528,2.68206c-0.11976,8.4187 -0.07984,16.87465 -0.07984,25.29333c0,1.04303 0,2.08605 0,3.12907c-1.23748,0.29801 -2.31528,0.55876 -3.433,0.81952c-1.75642,0.40976 -1.75642,0.40976 -1.27739,2.23506c9.22118,0 18.44236,0 27.70346,0c0,-2.79381 0,-5.47588 0,-8.15794c-1.63666,-0.44701 -2.5947,-0.22351 -2.75438,1.56454c-0.07984,1.19203 -0.51894,2.38406 -0.79837,3.57608c-4.9499,0 -9.78005,0 -14.6501,0c0,-4.87987 0,-9.68522 0,-14.67684c4.43096,0 8.78208,0 13.1332,0c0,-1.08027 0,-1.97429 0,-3.01732c-4.47088,0 -8.822,0 -13.1332,0c0,-4.4701 0,-8.7167 0,-13.11231c3.47291,0 6.86599,0 10.21914,0c3.51283,0 3.63259,0 4.43096,3.09182c0.39919,1.60178 1.11772,2.2723 2.87413,1.71354c0,-2.53306 0,-5.06612 0,-7.74818c-5.02974,0 -9.93972,0 -15.24888,0l0.00001,0.00001z" id="svg_3"/>
   <path fill="#e6e6e6" d="m382.02808,59.67349c0.79837,-0.18625 1.39715,-0.33526 2.07576,-0.48426c0,-9.46172 0,-18.84894 0,-28.38516c-1.59674,-0.33526 -3.15357,-0.70776 -4.79022,-1.11753c0,-1.34103 0,-2.71931 0,-4.28385c10.05947,0 20.03911,0 30.21833,0c0,3.35258 0,6.85416 0,10.39299c-1.63666,0 -3.2334,0 -4.9499,0c-0.47902,-1.56454 -0.99796,-3.12907 -1.51691,-4.73086c-3.6725,0 -7.30509,0 -11.09736,0c0,3.38983 0,6.77966 0,10.24399c4.43096,0 8.74216,0 13.17312,0c0,1.89979 0,3.72508 0,5.69938c-4.3112,0 -8.66233,0 -13.17312,0c0,4.06035 0,7.93443 0,11.95753c3.91202,0 7.78412,0 11.89573,0c0.39919,-1.67629 0.83829,-3.46433 1.27739,-5.25238c1.75642,0 3.39307,0 5.10957,0c0,3.65058 0,7.22667 0,10.98901c-10.29899,0 -20.55804,0 -30.93687,0c0,-1.37828 0,-2.75657 0,-4.35835c0.79837,-0.18625 1.67658,-0.40976 2.71446,-0.67052m8.34298,-6.5189c0,-2.45856 0,-4.91711 0,-7.56192c4.59063,0 8.94175,0 13.29288,0c0,-1.04303 0,-1.86255 0,-2.86832c-4.51079,0 -8.86192,0 -13.1332,0c0,-4.50736 0,-8.7912 0,-13.11231c4.63055,0 9.14135,0 13.25295,0c1.95601,1.41554 0,5.28962 4.27128,4.80536c0,-2.64481 0,-5.14062 0,-7.59918c-9.14135,0 -18.16293,0 -27.30428,0c0.03992,0.74502 0.07984,1.26653 0.07984,1.78804c1.03789,0.26075 1.91609,0.55876 2.7943,0.63326c1.63666,0.18625 2.11568,0.89402 2.07576,2.45856c-0.11976,6.25815 -0.03992,12.51629 -0.03992,18.77444c0,3.31533 0,6.5934 0,9.46172c-1.47698,1.67629 -5.10957,-0.18625 -4.90998,3.38983c9.38086,0 18.68188,0 27.90306,0c0,-2.83107 0,-5.51313 0,-8.12069c-1.79633,-0.52151 -2.5947,0 -2.75438,1.67629c-0.07984,1.19203 -0.51894,2.3468 -0.79837,3.42708c-5.02974,0 -9.85988,0 -14.72994,0c0,-2.30956 0,-4.5446 0,-7.15217l0.00001,0z" id="svg_4"/>
   <path fill="#eaeaea" d="m349.05536,33.82138c-0.23951,0.93127 -0.43911,1.71354 -0.67861,2.49581c-1.7165,0 -3.35316,0 -5.02974,0c0,-3.68784 0,-7.26392 0,-10.98901c11.01751,0 21.99511,0 33.17231,0c0,3.57608 0,7.22667 0,11.10076c-1.35723,0 -2.75438,0.0745 -4.11161,-0.03725c-0.39919,-0.03725 -0.99796,-0.55876 -1.11772,-0.96852c-0.51894,-1.41554 -0.83829,-2.86832 -1.23748,-4.35835c-2.11568,0 -4.15153,0 -6.26721,0c0,9.34997 0,18.66268 0,28.12441c1.87617,0.37251 3.79226,0.74502 5.78818,1.15477c0,1.49004 0,2.86832 0,4.3956c-6.42688,0 -12.77393,0 -19.32058,0c0,-1.15477 -0.11976,-2.2723 0.03992,-3.35258c0.07984,-0.48426 0.67861,-1.11753 1.19756,-1.26653c1.43707,-0.40976 2.95398,-0.59601 4.51079,-0.89402c0,-9.38721 0,-18.73718 0,-28.16165c-2.03585,0 -4.03177,0 -6.14746,0c-0.23951,0.85677 -0.47902,1.75079 -0.79837,2.75657m8.58249,12.25553c0,4.76811 0,9.49897 0,14.22983c-2.11568,0.40976 -3.99185,0.78226 -5.90794,1.19203c0.03992,0.70776 0.07984,1.30378 0.11976,1.82529c5.50876,0 10.85784,0 16.24684,0c0,-0.67052 -0.03992,-1.22928 -0.07984,-1.86255c-1.91609,-0.40976 -3.75235,-0.78226 -5.58859,-1.11753c0,-10.31849 0,-20.52523 0,-30.73196c3.03381,0 5.86803,0 8.74216,0c0.51894,1.86255 1.03789,3.61333 1.51691,5.32688c0.91813,0 1.67658,0 2.3552,0c0,-2.83107 0,-5.51313 0,-8.23244c-10.13931,0 -20.15886,0 -30.17842,0c0,2.83107 0,5.51313 0,8.30694c0.79837,0 1.51691,0 2.31528,0c0.51894,-1.78804 0.99796,-3.53883 1.51691,-5.36412c2.95398,0 5.86803,0 8.94175,0c0,5.40138 0,10.72825 0,16.42763l-0.00001,0.00001z" id="svg_8"/>
   <path fill="#e8e8e8" d="m294.72623,64.85135c-0.71854,-0.03725 -1.23748,-0.03725 -1.7165,-0.0745c-0.6387,-4.13485 -0.6387,-4.13485 4.71039,-5.62488c0,-9.42447 0,-18.81168 0,-28.34791c-1.59674,-0.37251 -3.19348,-0.74502 -4.79022,-1.11753c0,-1.41554 0,-2.75657 0,-4.28385c5.78818,0 11.49654,0 17.36456,0c0,1.34103 0,2.79381 0,4.3211c-1.55683,0.33526 -3.11365,0.67052 -4.75031,1.08027c0,9.34997 0,18.73718 0,28.19891c3.51283,0 6.94583,0 10.49858,0c0.31935,-1.67629 0.67861,-3.31533 0.91813,-4.95437c0.11976,-1.00577 0.55886,-1.37828 1.63666,-1.30378c1.27739,0.0745 2.55479,0 3.95194,0c0,4.02309 0,7.93443 0,12.10653c-9.22118,0 -18.44236,0 -27.82322,0m10.45866,-1.41554c5.30916,0 10.61833,0 15.88758,0c0,-3.16632 0,-6.14639 0,-9.16371c-0.91813,0 -1.67658,0 -2.55479,0c-0.39919,2.0488 -0.79837,4.06035 -1.19756,6.03464c-4.51079,0 -8.90183,0 -13.41263,0c0,-8.7167 0,-17.24715 0,-25.81485c0,-1.52728 -0.43911,-3.46433 0.35926,-4.50736c0.71854,-0.93127 2.87413,-0.93127 4.39104,-1.34103c0.03992,0 0.07984,-0.0745 0.11976,-0.11175c0,-0.59601 0,-1.15477 0,-1.60178c-4.90998,0 -9.7002,0 -14.37067,0c-0.31935,1.19203 -0.03992,1.86255 1.19756,1.97429c0.6387,0.0745 1.27739,0.40976 1.91609,0.44701c1.63666,0.0745 1.87617,0.89402 1.83626,2.23506c-0.07984,4.3956 -0.03992,8.7912 -0.03992,13.18681c0,5.17787 0,10.31849 0,15.53361c-1.67658,0.37251 -3.27332,0.74502 -4.9499,1.15477c0,0.63326 0,1.22928 0,1.97429c3.51283,0 6.98574,0 10.81792,0l0.00002,0.00001z" id="svg_11"/>
   <path fill="#e6e6e6" d="m329.09609,36.57795c0,-1.97429 0,-3.76234 0,-5.73663c-1.63666,-0.37251 -3.19348,-0.74502 -4.87007,-1.15477c0,-1.34103 0,-2.68206 0,-4.2466c5.74827,0 11.49654,0 17.40449,0c0,1.30378 0,2.75657 0,4.28385c-1.55683,0.33526 -3.11365,0.70776 -4.71039,1.08027c0,9.42447 0,18.84894 0,28.38516c1.51691,0.37251 3.07372,0.74502 4.75031,1.15477c0,1.45278 0,2.86832 0,4.3956c-5.78818,0 -11.53646,0 -17.40449,0c0,-1.41554 0,-2.86832 0,-4.43286c1.59674,-0.37251 3.15357,-0.74502 4.83014,-1.15477c0,-7.52468 0,-14.9376 0,-22.57402m6.18737,-0.18625c0,-2.1978 0,-4.43286 0,-6.63066c1.75642,-0.40976 3.27332,-0.78226 4.90998,-1.19203c-0.03992,-0.67052 -0.07984,-1.22928 -0.07984,-1.67629c-4.9499,0 -9.66029,0 -14.53035,0c0.23951,3.31533 3.6725,1.60178 4.87007,3.09182c0,10.09499 0,20.22722 0,30.35945c-4.87007,1.22928 -4.87007,1.22928 -4.55072,2.98007c4.75031,0 9.50061,0 14.33075,0c-0.03992,-0.74502 -0.11976,-1.30378 -0.15967,-1.89979c-1.67658,-0.40976 -3.19348,-0.74502 -4.79022,-1.11753c0,-7.89719 0,-15.71986 0,-23.91506l-0.00001,0.00002z" id="svg_12"/>
  </g>
 </g>

</svg>