<svg width="440" height="90" xmlns="http://www.w3.org/2000/svg" version="1.1" enable-background="new 0 0 1256 306" xml:space="preserve">
 <g>
  <title>Layer 1</title>
  <g id="svg_27">
   <path fill="#dbdbdb" d="m230.63741,44.81206c-2.44488,-2.02586 -3.79134,-4.28419 -3.08268,-7.37279c0.14173,-0.53137 -0.1063,-1.32843 -0.46063,-1.82659c-1.09843,-1.42806 -1.09843,-2.7897 -0.17717,-4.3174c0.28346,-0.46495 0.28346,-1.5277 -0.07087,-1.8598c-2.16142,-2.09228 -1.24016,-4.81556 -1.73622,-7.23995c-0.07087,-0.39853 0.38976,-1.12917 0.85039,-1.36164c2.12599,-1.12917 1.84252,-3.35429 2.65748,-5.08125c0.38976,-0.89669 0.7441,-1.82659 1.34646,-2.55723c1.06299,-1.36164 2.37402,-2.49081 2.72835,-4.28419c0.35433,-1.72696 3.01181,-2.98897 5.52756,-2.62365c1.59449,0.23248 2.23229,-0.43174 2.83465,-1.5277c1.16929,-2.12549 2.69292,-3.6864 5.49213,-4.08493c3.47244,-0.53137 6.05906,1.42806 7.29922,3.88566c0.60236,1.2288 0.60236,2.75649 1.13386,4.08493c0.56693,1.32843 1.38189,2.59044 2.16142,3.85245c1.27559,2.02586 2.58662,4.0185 3.89764,5.97794c0.17717,0.23248 0.38976,0.46495 0.6378,0.59779c3.33071,1.95944 4.11024,5.14767 4.67717,8.43554c0.35433,2.29154 0.6378,4.58309 1.06299,6.87463c0.1063,0.46495 0.7441,0.9299 1.20473,1.29522c1.70079,1.32843 3.68504,2.4576 4.32284,4.64951c0.3189,1.09596 0.4252,2.25833 0.46063,3.3875c0.03543,1.49448 0.49606,2.65686 1.80709,3.55355c1.84252,1.29522 2.72835,2.95576 2.26772,5.14767c-0.1063,0.49816 0.03543,1.09596 0.24803,1.59412c1.48819,3.61997 0.77953,6.94105 -1.41732,10.12929c-0.28346,0.43174 -0.5315,0.99632 -0.49606,1.49448c0.35433,3.0886 0.81496,6.1772 1.20473,9.29902c0.2126,1.66054 -0.7441,2.92255 -2.01969,3.78603c-3.47244,2.32475 -7.08662,4.51667 -10.66536,6.74179c-0.35433,0.19926 -0.88583,0.33211 -1.31102,0.26569c-3.96851,-0.66422 -7.33465,0.73064 -10.62993,2.65686c-1.84252,1.06274 -2.40945,1.02953 -3.33071,-0.79706c-1.38189,-2.75649 -2.55118,-5.64583 -3.57874,-8.56838c-1.24016,-3.48713 -2.40945,-7.00747 -3.29528,-10.56103c-0.81496,-3.35429 -1.02756,-6.80821 -1.77166,-10.19571c-0.35433,-1.66054 -1.20473,-3.22144 -1.91339,-4.98162c-2.33858,0.36532 -3.50788,-1.09596 -4.21654,-2.95576c-0.67323,-1.76017 -1.16929,-3.55355 -1.77166,-5.44657c-0.5315,0 -1.13386,0 -1.87795,-0.06642m3.18898,-3.78603c-1.38189,0.06642 -2.72835,0.16605 -4.57087,0.23248c0.70866,1.19559 1.16929,2.05907 1.70079,2.95576c1.27559,-0.99632 2.23229,-1.79338 3.47244,-2.62365c0.60236,-0.16605 1.27559,-0.23248 1.80709,-0.53137c0.38976,-0.19926 0.56693,-0.69743 0.81496,-1.09596c-0.1063,-0.06642 -0.24803,-0.09963 -0.35433,-0.16605c-0.85039,0.43174 -1.70079,0.89669 -2.87008,1.2288m30.8268,2.65686c0,0 -0.03543,0.03321 0.17717,0.36532c0.85039,-0.09963 1.94882,-1.02953 2.09055,0.631c-0.03543,0.39853 -0.07087,0.83027 0.2126,1.09596c1.48819,-0.69743 1.27559,-2.02586 0.92126,-3.02218c-0.28346,-0.76385 -1.27559,-1.29522 -1.91339,-1.89301c0,-0.96311 0.07087,-2.12549 -0.03543,-3.22144c-0.28346,-3.42071 -0.49606,-6.84142 -0.99213,-10.19571c-0.4252,-3.05539 -1.48819,-5.81189 -4.28741,-7.87095c-1.41732,-1.02953 -2.37402,-2.69007 -3.36614,-4.15135c-0.88583,-1.2288 -1.45276,-2.65686 -2.37402,-3.85245c-0.3189,-0.46495 -1.20473,-0.83027 -1.80709,-0.76385c-0.99213,0.13284 -2.16142,0.43174 -2.90551,1.02953c-2.58662,2.19191 -5.10237,4.48345 -7.54725,6.80821c-0.49606,0.46495 -0.5315,1.39485 -1.02756,1.82659c-2.05512,1.89301 -2.48032,4.35061 -2.26772,6.70858c0.1063,1.62733 -0.07087,3.02218 -0.88583,4.25098c-1.55906,2.42439 -1.09843,5.04804 -0.85039,7.53885c0.3189,3.28787 1.06299,6.50931 1.59449,9.76397c0.4252,2.42439 0.46063,4.98162 1.24016,7.27316c1.45276,4.11814 4.35827,7.47242 8.00788,10.06286c3.68504,2.62365 7.72442,4.35061 12.68505,3.95208c3.36614,-0.26569 6.73229,-0.36532 9.49607,-2.42439c2.12599,-1.56091 4.6063,-2.92255 5.563,-5.5462c0.95669,-2.62365 1.62992,-5.2473 0.24803,-7.97059c-0.3189,-0.59779 -0.35433,-1.39485 -0.28346,-2.09228c0.2126,-1.49448 -0.14173,-2.65686 -1.59449,-3.55355c-1.62992,-0.99632 -2.48032,-2.4576 -2.40945,-4.45024c0.03543,-1.16238 -0.03543,-2.55723 -0.6378,-3.48713c-1.02756,-1.66054 -2.55118,-3.02218 -3.86221,-4.51667c-0.24803,0.09963 -0.5315,0.19926 -0.77953,0.33211c0.35433,1.46127 0.24803,3.25466 1.13386,4.3174c1.31102,1.59412 1.52362,3.15502 0.81496,4.71593c-0.3189,0.76385 -1.80709,1.06274 -2.76378,1.56091c-0.24803,-0.43174 -0.5315,-0.86348 -0.67323,-1.46127c-0.3189,0.09963 -0.6378,0.16605 -1.06299,0.46495c-2.48032,1.2288 -4.11024,-0.39853 -5.59843,-1.69375c-0.28346,0.83027 -0.35433,1.62733 -0.77953,1.99265c-0.4252,0.2989 -1.45276,0.39853 -1.87795,0.09963c-0.7441,-0.43174 -1.45276,-1.19559 -1.66536,-1.95944c-0.56693,-1.79338 1.41732,-4.88198 3.33071,-5.47978c0.17717,-0.06642 0.4252,0.06642 0.77953,0.13284c-0.95669,1.12917 -2.05512,2.05907 -2.65748,3.22144c-0.99213,1.79338 -0.5315,2.72328 0.85039,2.98897c0.49606,-0.73064 0.77953,-1.72696 1.45276,-2.02586c1.06299,-0.53137 1.77166,0.39853 2.37402,1.19559c0.1063,0.13284 0.2126,0.33211 0.35433,0.36532c0.88583,0.13284 1.80709,0.43174 2.65748,0.33211c0.35433,-0.06642 0.6378,-0.9299 0.92126,-1.39485m-13.28741,25.14055c-3.11811,-2.35796 -6.23623,-4.68272 -9.28347,-6.94105c-0.24803,2.55723 5.563,21.25489 7.58268,24.3435c1.52362,-0.83027 2.94095,-2.12549 4.53544,-2.42439c5.17323,-0.86348 9.03544,-4.54988 14.13781,-5.47978c0.77953,-0.16605 1.52362,-0.73064 2.23229,-1.19559c1.55906,-1.06274 3.08268,-2.1587 4.74804,-3.32108c-0.24803,-2.39118 -0.5315,-4.98162 -0.81496,-7.50563c-7.08662,5.34693 -14.59844,6.775 -23.13782,2.52402m-16.75986,-52.4066c3.11811,2.25833 7.47638,1.39485 11.12599,-2.12549c-1.34646,-1.16238 -2.65748,-2.29154 -4.78347,-1.29522c-0.4252,0.19926 -1.62992,-0.49816 -2.12599,-1.06274c-0.85039,-0.89669 -1.38189,-2.02586 -1.98425,-2.95576c-2.48032,1.92622 -4.28741,4.05171 -2.23229,7.43921m22.28742,68.54703c1.77166,-0.09963 3.50788,-0.19926 5.27953,-0.36532c0.70866,-0.06642 1.55906,-0.13284 2.16142,-0.46495c2.51575,-1.39485 5.0315,-2.7897 7.44095,-4.35061c1.73622,-1.16238 3.72048,-2.25833 4.03937,-4.64951c-1.41732,0.631 -2.69292,1.46127 -4.00394,2.22512c-1.62992,0.9299 -3.25985,1.89301 -4.99607,2.69007c-1.66536,0.79706 -3.47244,1.32843 -5.20867,2.02586c-1.73622,0.66422 -3.40158,1.39485 -5.10237,2.09228c-1.73622,0.69743 -3.47244,1.36164 -5.10237,2.1587c-0.4252,0.16605 -0.60236,0.79706 -0.88583,1.2288c0.49606,0 1.09843,0.09963 1.52362,-0.09963c1.55906,-0.73064 3.08268,-1.56091 4.85434,-2.49081m-28.73625,-50.31432c0.28346,0.59779 0.60236,1.16238 0.81496,1.59412c0.88583,0.09963 1.70079,0.23248 2.51575,0.23248c0.85039,-0.03321 2.01969,0.06642 2.48032,-0.39853c2.23229,-2.19191 4.11024,-4.64951 4.14567,-8.07022c-0.5315,0.16605 -0.92126,0.2989 -1.27559,0.43174c-1.59449,0.66422 -3.18898,1.46127 -4.85434,1.95944c-2.30315,0.66422 -3.82678,2.05907 -3.82678,4.25098m8.43308,-8.43554c0.56693,-0.36532 1.41732,-0.631 1.62992,-1.12917c0.70866,-1.5277 1.16929,-3.18823 1.80709,-5.01483c-0.95669,0.13284 -1.70079,0.13284 -2.40945,0.33211c-2.55118,0.76385 -3.11811,0.59779 -4.85434,-1.29522c-0.7441,-0.79706 -1.66536,-1.49448 -2.48032,-2.19191c0.28346,1.46127 0.77953,2.65686 1.16929,3.85245c0.35433,1.12917 0.5315,2.32475 0.88583,3.48713c0.60236,1.89301 2.33858,1.89301 4.25197,1.95944m15.66143,-22.21801c-2.23229,-2.88934 -6.80316,-3.22144 -8.78741,-0.49816c2.12599,0 3.04725,1.26201 3.93307,2.82292c0.4252,0.76385 1.55906,1.36164 2.51575,1.69375c1.13386,0.36532 2.40945,0.2989 4.14567,0.49816c-0.60236,-1.56091 -1.09843,-2.95576 -1.80709,-4.51667m-2.87008,7.17353c-0.2126,-0.09963 -0.38976,-0.33211 -0.60236,-0.33211c-3.01181,0.03321 -5.84646,-0.19926 -7.93702,-2.82292c-0.92126,-1.12917 -2.87008,-0.69743 -3.50788,0.19926c0.49606,0.69743 0.99213,1.32843 1.38189,1.99265c0.70866,1.32843 1.48819,2.09228 3.29528,1.56091c0.85039,-0.23248 2.19685,0.03321 2.79922,0.56458c1.16929,0.99632 2.12599,0.69743 3.15355,0.09963c0.49606,-0.26569 0.92126,-0.66422 1.41732,-1.26201m-3.79134,-5.71225c-1.70079,-1.39485 -2.83465,-1.12917 -4.46457,1.09596c0.28346,0.33211 0.5315,0.66422 0.81496,0.99632c1.09843,1.26201 2.30315,2.29154 4.28741,2.09228c1.06299,-0.06642 2.48032,-0.16605 3.25985,0.36532c1.41732,0.96311 2.16142,0.13284 3.22441,-0.43174c-2.94095,-0.39853 -5.95276,-0.59779 -7.12205,-4.11814m-17.36222,14.812c-1.13386,0.83027 -2.58662,1.5277 -1.80709,3.28787c0.81496,1.82659 3.04725,2.75649 5.63386,2.42439c-0.88583,-2.55723 -1.77166,-5.11446 -2.62205,-7.67169c-0.14173,0.03321 -0.28346,0.06642 -0.4252,0.13284c-0.2126,0.56458 -0.38976,1.09596 -0.77953,1.82659m6.16536,26.93394c0.70866,1.49448 1.34646,3.02218 2.16142,4.45024c0.17717,0.33211 0.85039,0.39853 1.31102,0.59779c0.17717,-0.43174 0.5315,-0.86348 0.49606,-1.26201c-0.14173,-1.32843 -0.46063,-2.62365 -0.67323,-3.88566c-0.81496,0.43174 -1.45276,0.76385 -2.09055,1.09596c-0.14173,-0.16605 -0.28346,-0.33211 -0.4252,-0.46495c3.08268,-1.5277 -0.49606,-3.45392 0.77953,-5.14767c-2.65748,0.46495 -2.65748,0.46495 -2.05512,2.59044c0.14173,0.59779 0.28346,1.16238 0.49606,2.02586m1.87795,-9.09975c0.03543,-0.66422 0.1063,-1.29522 0.1063,-1.5277c-1.87795,0.33211 -3.54331,0.96311 -5.17323,0.89669c-2.58662,-0.13284 -3.25985,0.43174 -2.55118,2.75649c1.45276,-0.13284 2.90551,-0.49816 4.28741,-0.36532c1.55906,0.13284 2.48032,-0.43174 3.33071,-1.76017m-5.27953,-10.95955c-1.52362,-0.46495 -3.08268,-0.89669 -4.96063,-1.46127c0.92126,1.72696 1.80709,3.42071 2.58662,4.88198c1.87795,-0.59779 3.86221,-1.19559 5.84646,-1.82659c0,-0.13284 0,-0.2989 0.03543,-0.43174c-1.06299,-0.39853 -2.12599,-0.79706 -3.50788,-1.16238m4.9252,-8.76764c-2.01969,-1.12917 -3.68504,-2.52402 -3.61418,-5.47978c-1.09843,0.76385 -1.77166,1.2288 -2.58662,1.79338c1.66536,1.62733 3.04725,3.12181 4.57087,4.45024c0.5315,0.43174 1.48819,0.59779 2.23229,0.56458c1.45276,-0.06642 2.87008,-0.33211 4.28741,-0.56458c0.2126,-0.03321 0.38976,-0.26569 0.88583,-0.66422c-2.05512,0 -3.79134,0 -5.7756,-0.09963m-1.77166,-8.03701c0.67323,-0.76385 1.34646,-1.56091 2.16142,-2.49081c-2.30315,0.06642 -3.01181,0.96311 -2.16142,2.49081m23.59845,35.137c0,0 -0.03543,0.03321 0,0z" id="svg_1"/>
   <path fill="#d1d1d1" d="m264.68863,43.64969c-0.6378,-0.03321 -1.27559,-0.06642 -1.91339,-0.09963c0.03543,-0.13284 0.03543,-0.26569 0.03543,-0.39853c0.77953,-0.43174 1.59449,-0.89669 2.37402,-1.32843c0.14173,0.03321 0.28346,0.03321 0.4252,0.06642c-0.24803,0.56458 -0.49606,1.12917 -0.85039,1.76017c-0.14173,0.06642 -0.1063,0.03321 -0.07087,0z" id="svg_14"/>
   <path fill="#d1d1d1" d="m266.92091,45.31023c0,0.13284 0,0.2989 -0.07087,0.53137c0,-0.33211 0.03543,-0.76385 0.17717,-1.19559c0.14173,-0.03321 0.1063,-0.03321 0.03543,0.03321c-0.1063,0.23248 -0.1063,0.43174 -0.14173,0.631l0,0.00001z" id="svg_16"/>
   <path fill="#d1d1d1" d="m265.53902,45.5427c-0.24803,0.06642 -0.4252,0.03321 -0.7441,0.09963c0.14173,-0.03321 0.46063,-0.09963 0.7441,-0.09963z" id="svg_17"/>
   <path fill="#d1d1d1" d="m257.7083,45.50949c0,0 0.03543,-0.03321 0,0z" id="svg_18"/>
   <path fill="#d8d8d8" d="m253.81066,54.31034c-0.46063,-0.16605 -0.95669,-0.36532 -1.45276,-0.53137c0.24803,-0.43174 0.38976,-0.96311 0.77953,-1.26201c1.55906,-1.12917 3.08268,-2.35796 4.8189,-3.25466c0.81496,-0.43174 2.05512,-0.26569 3.08268,-0.26569c0.81496,0 1.77166,0.43174 2.48032,0.16605c1.62992,-0.56458 2.79922,-0.06642 3.89764,0.96311c0.85039,0.79706 1.70079,1.62733 2.58662,2.35796c0.24803,0.23248 0.70866,0.23248 1.62992,0.53137c-1.13386,0.53137 -1.84252,0.86348 -2.79922,1.2288c-0.38976,0.03321 -0.5315,0.03321 -0.81496,0c-4.53544,-0.26569 -8.92914,-2.22512 -13.42915,0.03321c-0.35433,0 -0.56693,0.03321 -0.77953,0.03321m2.83465,-1.72696c1.70079,-0.06642 3.36614,-0.19926 5.06693,-0.16605c2.26772,0.06642 4.5,0.2989 7.15749,0.49816c-0.56693,-0.49816 -0.81496,-0.66422 -0.99213,-0.86348c-1.24016,-1.36164 -2.40945,-2.7897 -4.67717,-1.59412c-0.35433,0.19926 -1.02756,0.03321 -1.52362,-0.13284c-2.79922,-0.76385 -5.42126,0.16605 -7.47638,3.02218c0.99213,-0.2989 1.59449,-0.46495 2.44488,-0.76385z" id="svg_19"/>
   <path fill="#d8d8d8" d="m256.43271,29.70116c0.38976,0.59779 0.77953,1.19559 1.41732,2.19191c-1.31102,0.23248 -2.44488,0.66422 -3.57874,0.66422c-2.90551,0 -5.7756,-0.16605 -8.68111,-0.2989c-0.24803,0 -0.49606,-0.26569 -0.7441,-0.631c-0.07087,-0.49816 -0.07087,-0.73064 -0.07087,-1.09596c0.03543,-0.23248 0.03543,-0.36532 0,-0.49816c0,0 0,0 0.1063,0.09963c0.5315,-0.23248 0.99213,-0.59779 1.45276,-0.9299c3.93307,-2.95576 6.55512,-2.82292 10.09843,0.49816m-1.70079,1.72696c0.4252,-0.03321 0.85039,-0.06642 1.45276,-0.06642c-1.27559,-2.05907 -2.79922,-3.42071 -5.27953,-3.05539c-1.94882,0.26569 -3.82678,0.79706 -4.96063,3.0886c3.01181,0 5.74016,0 8.78741,0.03321l-0.00001,0z" id="svg_20"/>
   <path fill="#d8d8d8" d="m253.24373,23.72322c-4.18111,0.53137 -8.29135,0.76385 -11.69292,3.3875c0.85039,-1.82659 2.44488,-2.7897 4.18111,-3.28787c3.61418,-1.09596 7.29922,-1.56091 11.05513,-0.43174c2.01969,0.631 4.11024,3.15502 4.03937,5.11446c-0.03543,0.39853 -0.28346,0.76385 -0.56693,1.46127c-0.38976,-0.66422 -0.70866,-0.96311 -0.70866,-1.26201c-0.07087,-2.65686 -1.45276,-4.18456 -4.25197,-4.58309c-0.6378,-0.09963 -1.27559,-0.26569 -2.05512,-0.39853l-0.00001,0.00001z" id="svg_21"/>
   <path fill="#d1d1d1" d="m244.77522,30.66427c0,0.23248 0,0.46495 0.03543,0.83027c-0.46063,0.03321 -0.92126,-0.06642 -1.38189,-0.13284c-0.4252,-2.59044 2.40945,-5.61262 5.74016,-6.1772c4.88977,-0.79706 8.39765,1.02953 9.31891,5.18088c-0.60236,-0.23248 -0.99213,-0.43174 -1.52362,-0.76385c-2.23229,-3.65318 -4.96063,-3.75282 -8.36221,-3.12181c-1.84252,0.36532 -3.40158,1.56091 -3.82678,3.55355c0,0 0,0 -0.1063,0c-0.03543,0.19926 0.03543,0.43174 0.1063,0.631z" id="svg_22"/>
   <path fill="#d1d1d1" d="m253.9524,54.37677c0.07087,-0.06642 0.28346,-0.09963 0.56693,0c0.70866,0.56458 1.34646,1.29522 2.05512,1.36164c2.87008,0.2989 5.74016,0.56458 8.57481,0.46495c1.06299,-0.06642 2.01969,-1.26201 3.01181,-1.92622c0.14173,0 0.28346,0 0.5315,-0.03321c0.03543,0.43174 0.1063,0.99632 -0.14173,1.26201c-1.52362,1.62733 -3.43701,2.22512 -5.81103,1.82659c-1.27559,-0.23248 -2.65748,0 -4.00394,-0.16605c-1.24016,-0.16605 -2.51575,-0.46495 -3.64961,-0.96311c-0.49606,-0.23248 -0.67323,-1.16238 -1.13386,-1.82659l0,-0.00001z" id="svg_23"/>
   <path fill="#dbdbdb" d="m267.02721,45.2438c-0.07087,-0.13284 -0.07087,-0.33211 0.03543,-0.56458c0.07087,0.13284 0.07087,0.33211 -0.03543,0.56458z" id="svg_24"/>
   <path fill="#191919" d="m244.77522,30.53143c-0.07087,-0.06642 -0.14173,-0.2989 -0.1063,-0.49816c0.14173,0.13284 0.14173,0.26569 0.1063,0.49816z" id="svg_25"/>
  </g>
  <g id="svg_26">
   <path fill="#eeeeee" d="m107.12044,64.59221c-1.57514,-3.08272 -3.03778,-6.16543 -4.44417,-9.28528c-2.55961,-5.60831 -5.11923,-11.21662 -7.65072,-16.82493c-0.19689,-0.4457 -0.42191,-0.89138 -0.8157,-1.7085c0,7.68821 0,14.89361 0,22.2104c0.78757,0.25999 1.57514,0.63139 2.39085,0.70569c1.23761,0.11143 1.6314,0.85425 1.46263,2.37703c-0.08438,0.77997 0,1.55992 0,2.45133c-4.13476,0 -8.07262,0 -12.3199,0c0.11251,-1.48565 -0.16877,-3.37985 0.42191,-4.30837c0.61881,-0.92853 2.05331,-0.85425 3.15029,-1.22566c0,-9.471 0,-18.86771 0,-28.30157c-1.15324,-0.3714 -2.22208,-0.70569 -3.40345,-1.11423c0,-1.29993 0,-2.63702 0,-4.34552c2.19396,0 4.44417,0.25999 6.66624,-0.11143c2.13771,-0.33427 3.17843,0.70569 4.21915,3.11986c3.31906,7.87392 6.89126,15.56215 10.35097,23.32464c0.22502,0.51998 0.45004,1.00281 0.95635,1.44851c0,-0.70569 0,-1.41136 0,-2.11705c0,-6.12829 -0.05626,-12.25659 0.02813,-18.38487c0.02813,-1.44851 -0.3094,-2.11705 -1.37825,-2.30275c-0.67506,-0.11143 -1.35013,-0.3714 -2.08145,-0.59426c0,-1.41136 0,-2.74844 0,-4.27124c3.90974,0 7.76323,0 11.67296,0c0,1.37422 0,2.74844 0,4.23409c-1.1251,0.3714 -2.19396,0.70569 -3.4597,1.11423c0,11.29091 0,22.54468 0,33.94702c-1.99707,0 -3.82535,0 -5.76616,-0.03715m2.02519,-7.42822c-0.02813,0.29714 -0.05626,0.63139 -0.08438,1.29993c-0.36566,-0.77997 -0.59068,-1.2628 -0.78757,-1.7085c-4.27539,-9.58242 -8.5508,-19.1277 -12.85433,-28.67297c-0.25315,-0.59426 -0.73132,-1.37422 -1.1251,-1.41136c-2.4471,-0.11143 -4.92233,-0.03715 -7.25692,-0.03715c-0.36566,1.5228 0,2.0799 0.87195,2.22847c0.56255,0.07428 1.15324,0.22284 1.6314,0.55712c0.33753,0.25999 0.78757,0.85425 0.8157,1.29993c0.02813,9.76811 0.02813,19.53625 0.02813,29.37864c-1.18136,0.3714 -2.30646,0.74282 -3.43156,1.11423c0,0.70569 0,1.29993 0,1.93134c3.37532,0 6.66624,0 10.04156,0c-0.02813,-0.70569 -0.02813,-1.2628 -0.05626,-1.8942c-1.35013,-0.40855 -2.58775,-0.77997 -3.79723,-1.15137c0,-9.471 0,-18.79342 0,-28.52441c0.39379,0.85425 0.61881,1.37422 0.84383,1.85706c4.30353,9.471 8.57893,18.97913 12.91057,28.41298c0.22502,0.55712 0.64693,1.2628 1.01259,1.33708c1.26574,0.14856 2.55961,0.03715 3.93787,0.03715c0,-0.89138 0,-1.55992 0,-2.22847c0,-8.80246 0,-17.56776 0,-26.37022c0,-1.55992 -0.39379,-3.49127 0.16877,-4.53123c0.56255,-1.03996 2.08145,-1.18852 3.20655,-1.74564c0,-0.48283 0,-1.07709 0,-1.55992c-3.20655,0 -6.35684,0 -9.56339,0c0.05626,0.66854 0.08438,1.22566 0.11251,1.7085c1.15324,0.40855 2.22208,0.77997 3.37532,1.18852c0,9.09957 0,18.12488 0,27.48445l0,0.00003l-0.00001,0.00001z" id="svg_2"/>
   <path fill="#e6e6e6" d="m127.66391,64.67164c-2.80173,0 -5.44558,0 -8.16839,0c0,-1.57306 0,-2.99631 0,-4.56939c1.49951,-0.37453 2.99903,-0.71163 4.61691,-1.08616c0,-9.47585 0,-18.9517 0,-28.57736c-1.49951,-0.33709 -3.03848,-0.71163 -4.69583,-1.12361c0,-1.38579 0,-2.73413 0,-4.30721c9.98359,0 19.88825,0 29.91128,0c0,3.3334 0,6.77916 0,10.37474c-1.53898,0 -3.15685,0 -4.93261,0c-0.47353,-1.49816 -0.94705,-3.07122 -1.46005,-4.68174c-3.6304,0 -7.26078,0 -10.97011,0c0,3.40831 0,6.81662 0,10.26239c4.38015,0 8.64191,0 13.02206,0c0,1.94761 0,3.78285 0,5.76791c-4.26176,0 -8.56298,0 -12.98259,0c0,4.08248 0,7.97769 0,11.98526c3.78824,0 7.65539,0 11.75932,0c0.35515,-1.64797 0.78922,-3.44576 1.18383,-5.24355c1.73627,0 3.35417,0 5.05098,0c0,3.70794 0,7.37843 0,11.19873c-7.45808,0 -14.79779,0 -22.3348,0m-1.93358,-30.11298c0,8.5395 0,17.04155 0,25.54359c-1.73627,0.41199 -3.23578,0.78654 -4.77476,1.12361c0,0.71163 0,1.31088 0,1.94761c9.23383,0 18.30981,0 27.50418,0c0,-2.77159 0,-5.50573 0,-8.20241c-1.6968,-0.52436 -2.60441,-0.03746 -2.7228,1.72289c-0.07893,1.16107 -0.513,2.32214 -0.74975,3.40831c-4.93261,0 -9.74681,0 -14.56103,0c0,-4.94392 0,-9.73803 0,-14.75686c4.41961,0 8.79976,0 13.06152,0c0,-1.12361 0,-1.94761 0,-2.95887c-4.41961,0 -8.72083,0 -13.02206,0c0,-4.49447 0,-8.76422 0,-13.10889c4.61691,0 9.11544,0 13.61397,0c0.35515,1.12361 0.74975,2.09742 0.94705,3.14614c0.27622,1.76034 1.26275,2.05996 2.84118,1.53562c0,-2.58432 0,-5.09373 0,-7.52824c-9.07598,0 -17.99412,0 -27.0701,0c0.1973,3.40831 3.59093,1.68543 4.93261,3.37086c0,1.27344 0,2.8465 0,4.75665l0.00001,-0.00001l-0.00003,0l0.00001,0z" id="svg_5"/>
   <path fill="#ededed" d="m180.4984,37.54058c-1.52198,0 -2.87486,0 -4.27002,0c-0.63415,-1.6668 -1.22604,-3.29736 -1.90248,-4.85545c-0.16911,-0.39858 -0.50733,-0.97834 -0.88783,-1.0508c-3.17082,-0.57975 -6.38391,-1.26821 -9.51245,-0.07247c-4.01637,1.52185 -4.48142,4.96415 -0.84555,7.02952c1.98705,1.12327 4.35458,1.81174 6.5953,2.68136c2.66349,1.0508 5.49608,1.88421 7.99045,3.15241c7.31401,3.62346 6.21479,12.02992 1.81792,15.83456c-4.81964,4.13075 -10.82306,4.89169 -17.20697,4.13075c-2.8326,-0.32612 -5.58064,-1.12327 -8.37096,-1.63056c-1.14151,-0.2174 -1.60655,-0.65222 -1.56427,-1.70303c0.08456,-3.00748 0.04227,-6.01496 0.04227,-9.13113c2.11389,0 4.1432,0 6.38391,0c0.3805,1.52185 0.71872,3.15241 1.18377,4.74674c0.16911,0.50729 0.63415,1.08703 1.14151,1.26821c3.12854,1.01458 6.34165,1.15951 9.51245,0.14493c2.28299,-0.76094 4.05865,-1.95667 4.22776,-4.27569c0.12682,-2.24655 -1.6911,-3.33359 -3.72043,-4.09451c-3.93181,-1.52185 -7.99045,-2.71759 -11.83771,-4.31193c-6.89124,-2.93501 -8.96283,-10.14571 -4.5237,-15.54467c2.87486,-3.4423 7.18719,-4.52933 11.79544,-4.78298c5.2847,-0.28989 10.31573,0.76094 15.00854,2.17408c0,3.29736 0,6.41354 -0.04227,9.52971c0,0.25365 -0.54962,0.50729 -1.01465,0.76094m-16.4037,-7.50057c2.49438,-0.07247 5.03103,-0.2174 7.52542,-0.18117c2.62121,0 4.39687,1.01458 4.69281,3.40606c0.04227,0.43482 0.33821,0.79717 0.42278,1.23198c0.25368,1.70303 1.39516,1.9929 3.29766,1.44939c0,-2.50019 0,-5.07285 0,-7.71799c-5.4538,-1.34068 -10.94988,-2.35526 -16.74191,-1.41316c-4.56597,0.76094 -8.24413,3.73218 -8.96283,7.42812c-0.80327,4.49309 1.05694,7.93539 5.62292,9.96454c1.77566,0.79717 3.67814,1.44939 5.53835,2.10161c2.4521,0.90587 5.07332,1.52185 7.3563,2.68136c4.98875,2.50019 4.81964,7.39188 -0.25368,9.74713c-4.27002,1.9929 -8.66689,1.6668 -13.02148,0.14493c-0.50733,-0.18117 -0.9301,-0.8334 -1.05694,-1.34068c-0.42278,-1.41316 -0.67644,-2.82631 -1.01465,-4.20322c-1.22604,0 -2.32528,0 -3.50904,0c0,2.3915 -0.04227,4.67428 0.04227,6.95706c0.04227,0.43482 0.42278,1.12327 0.80327,1.23198c6.67986,1.84797 13.44427,2.82631 20.08184,0.03624c4.31231,-1.81174 6.29936,-5.03662 6.42618,-9.05866c0.12682,-3.80464 -2.4521,-6.15989 -6.08797,-7.79046c-1.22604,-0.57975 -2.53665,-1.0508 -3.80498,-1.48563c-2.62121,-0.90587 -5.2847,-1.6668 -7.77907,-2.71759c-1.39516,-0.61598 -2.79031,-1.52185 -3.63587,-2.64512c-2.28299,-2.93501 -0.76101,-5.83379 4.05865,-7.8267l0.00001,-0.00003l-0.00003,0l-0.00001,0.00001z" id="svg_6"/>
   <path fill="#eeeeee" d="m198.51662,47.78938c-3.29859,-1.48567 -6.80861,-2.53649 -9.47286,-4.45698c-3.84835,-2.79014 -4.39812,-6.77604 -2.91798,-10.7982c1.607,-4.31203 5.58222,-6.34122 10.48781,-7.13841c5.92053,-0.97836 11.62961,0.03624 17.21183,1.70308c0.4229,0.10871 0.97265,0.68848 1.01494,1.05083c0.08459,3.08003 0.04229,6.1238 0.04229,9.27631c-2.15677,0 -3.84835,0 -5.70908,0c-0.54977,-1.44942 -1.01494,-3.00755 -1.77616,-4.45698c-0.33831,-0.65224 -1.22639,-1.37695 -1.94532,-1.48567c-2.41051,-0.25365 -4.90559,-0.47106 -7.2738,-0.25365c-2.15677,0.21741 -4.01751,1.30448 -4.48269,3.33367c-0.4229,1.99295 0.76122,3.44238 2.70654,4.27579c2.45279,1.05083 5.03245,1.81178 7.48524,2.82638c2.87568,1.19577 6.08969,2.17414 8.4579,3.91344c5.66681,4.20333 4.48269,12.5375 -2.0299,16.26976c-4.52498,2.64519 -9.64202,3.22496 -14.9282,2.57272c-3.29859,-0.43483 -6.55488,-1.19577 -9.89575,-1.81178c0,-3.73227 0,-7.21088 0,-10.72573c2.07218,0 4.1021,0 6.25885,0c0.33831,1.48567 0.54977,3.04379 1.09953,4.52944c0.25375,0.65224 1.01494,1.44942 1.73388,1.66684c3.17171,0.97836 6.38571,1.0146 9.47286,-0.18118c2.07218,-0.76095 3.72149,-2.02919 3.76376,-4.16709c0.04229,-2.10166 -1.6493,-3.15249 -3.51004,-3.94968c-1.81843,-0.76095 -3.76376,-1.30448 -5.79367,-1.99295m-4.65184,-16.08859c2.36821,-2.02919 5.32847,-2.1379 8.4579,-2.02919c5.49763,0.21741 5.70908,0.28989 7.2738,4.6744c0.50747,1.55813 1.31096,2.2466 3.42545,1.59436c0,-2.50025 0,-5.0005 0,-7.60947c-4.60957,-1.70308 -12.47541,-2.39156 -17.21183,-1.44942c-4.65184,0.90589 -8.0773,4.02214 -8.62708,7.7544c-0.63433,4.42075 1.39555,7.71817 6.13198,9.74736c1.77616,0.76095 3.59461,1.34071 5.41306,1.99295c2.41051,0.86965 4.94788,1.52189 7.14694,2.64519c4.90559,2.46402 4.73643,7.2471 -0.21145,9.6749c-3.89065,1.88425 -7.95043,1.59436 -12.09481,0.616c-1.43785,-0.36235 -2.19904,-1.05083 -2.32593,-2.39156c-0.08459,-1.23201 -0.54977,-2.46402 -0.80349,-3.62355c-1.22639,0 -2.28363,0 -3.46774,0c0,2.42778 -0.04229,4.78309 0.04229,7.10217c0,0.39859 0.38061,1.0146 0.71892,1.1233c7.06235,1.88425 14.12471,2.93508 21.06018,-0.39859c6.04739,-2.89884 8.75394,-12.39256 -0.21145,-16.23353c-1.86074,-0.79719 -3.84835,-1.41319 -5.79367,-2.1379c-2.70654,-1.08706 -5.58222,-1.99295 -8.11959,-3.3699c-3.17171,-1.70308 -3.46774,-4.89181 -0.80349,-7.68193l0.00001,0.00001l0.00001,0.00001l-0.00001,-0.00001z" id="svg_7"/>
   <path fill="#ededed" d="m23.09822,24.95175c2.60567,0 4.97082,0 7.49632,0c0,3.52067 0,6.89153 0,10.37474c-1.60348,0 -3.20697,0 -4.97082,0c-0.48104,-1.42325 -0.96209,-2.88396 -1.48323,-4.45702c-3.64794,0 -7.37605,0 -11.22443,0c0,3.55813 0,7.07879 0,10.78673c4.36952,0 8.81921,0 13.30897,0c0,2.05996 0,3.89522 0,5.91772c-4.44969,0 -8.89937,0 -13.38916,0c0,3.93266 0,7.67807 0,11.57327c1.8841,0.37453 3.84838,0.74908 5.77257,1.16107c0,1.49816 0,2.92141 0,4.41956c-6.13336,0 -12.18653,0 -18.31989,0c0,-1.46071 0,-2.92141 0,-4.45702c1.56341,-0.37453 3.12681,-0.71163 4.7303,-1.08616c0,-9.47585 0,-18.9517 0,-28.57736c-1.56341,-0.37453 -3.12681,-0.74908 -4.77038,-1.12361c0,-1.38579 0,-2.77159 0,-4.53193c7.57649,0 15.11289,0 22.84975,0m-5.01092,18.20262c-2.24488,0 -4.48977,0 -6.6144,0c0,-4.7192 0,-9.21367 0,-13.82051c4.32942,0 8.49849,0 12.70766,0.07491c0.48104,0 1.12244,0.52436 1.32288,0.93635c0.52114,1.19853 0.88192,2.47197 1.28279,3.67049c0.84183,0 1.52331,0 2.32506,0c0,-2.54687 0,-5.01883 0,-7.41589c-9.17997,0 -18.23972,0 -27.37961,0c0,0.67417 -0.16035,1.49816 0.04008,1.57306c1.56341,0.56181 3.20697,1.01126 4.81048,1.49816c0,10.22493 0,20.4124 0,30.59988c-1.16253,0.26218 -2.20481,0.63671 -3.32725,0.74908c-1.72374,0.18727 -1.8841,1.01126 -1.40305,2.32214c5.09109,0 10.14209,0 15.15299,0c0.44096,-1.42325 0.08018,-2.17233 -1.56341,-2.28469c-1.36298,-0.11237 -2.68585,-0.52436 -4.00873,-0.78654c0,-4.75665 0,-9.36348 0,-14.19505c4.48977,0 8.89937,0 13.30897,0c0,-1.04872 0,-1.91015 0,-2.92141c-2.12463,0 -4.20915,0 -6.65449,0l0.00001,0.00002l0.00002,0z" id="svg_9"/>
   <path fill="#e9e9e9" d="m58.73895,63.82893c-0.03693,-3.67049 0,-3.67049 3.43432,-4.34466c0.59085,-0.14981 1.1817,-0.29964 1.84642,-0.44945c0,-9.40094 0,-18.72698 0,-28.20282c-1.84642,0 -3.69282,0 -5.72387,0c-0.44314,1.72289 -0.92321,3.48321 -1.36634,5.24355c-1.5879,0 -3.06505,0 -4.65294,0c0,-3.70794 0,-7.37843 0,-11.12382c10.22911,0 20.49515,0 30.79812,0c0,3.70794 0,7.30352 0,11.04891c-1.51406,0 -3.02811,0 -4.72681,0c-0.40621,-1.64797 -0.88627,-3.37086 -1.36634,-5.2061c-1.88334,0 -3.76667,0 -5.72387,0c0,9.36348 0,18.68952 0,28.24028c1.6987,0.37453 3.47124,0.74908 5.24381,1.16107c0,1.49816 0,2.92141 0,4.53193c-5.5023,0 -10.96768,0 -16.43304,-0.03746c-0.44314,0 -0.88627,-0.44945 -1.32941,-0.86144m22.89549,-37.30414c-0.25849,-0.07491 -0.55391,-0.26218 -0.81242,-0.26218c-8.93662,0 -17.87324,0 -26.77294,0.03746c-0.11078,0 -0.22158,0.11237 -0.36928,0.18727c0,2.69669 0,5.43082 0,8.23987c0.73857,0 1.36634,0 2.17876,0c0.36928,-1.49816 0.70163,-2.99631 1.14476,-4.45702c0.14772,-0.41199 0.66472,-0.9738 0.99707,-0.9738c2.47419,-0.11237 4.91145,-0.07491 7.38563,-0.07491c0,10.44965 0,20.71204 0,30.97441c-5.39152,1.19853 -5.39152,1.19853 -5.13302,3.03377c4.94839,0 9.89675,0 14.8082,0c0.44314,-1.53562 -0.03693,-2.17233 -1.51406,-2.28469c-1.21863,-0.11237 -2.40033,-0.4869 -3.58205,-0.74908c0,-10.33728 0,-20.59967 0,-30.97441c2.43726,0 4.76373,-0.03746 7.09021,0.07491c0.44314,0 1.10785,0.63671 1.25557,1.12361c0.48007,1.38579 0.77549,2.8465 1.14476,4.30721c0.77549,0 1.44021,0 2.25261,0c0,-2.62178 0,-5.24355 -0.07386,-8.20241l0.00001,0l0.00003,-0.00001l0.00002,0z" id="svg_10"/>
   <path fill="#eeeeee" d="m37.98863,41.10051c0,-3.66372 0,-7.1008 0,-10.72674c-1.5476,-0.37769 -3.01969,-0.75541 -4.6428,-1.17087c0,-1.32195 0,-2.68168 0,-4.26803c5.39771,0 10.83319,0 16.38191,0c0,1.28419 0,2.75722 0,4.3058c-1.47212,0.33994 -2.90646,0.71764 -4.41632,1.09533c0,9.55586 0,19.11172 0,28.74313c0.30196,0.11332 0.64169,0.22662 0.98141,0.33994c3.85012,0.98202 3.85012,0.98202 3.43492,5.3256c-5.43547,0 -10.83319,0 -16.38191,0c0,-1.43527 0,-2.87054 0,-4.45688c1.47212,-0.37769 3.01969,-0.79318 4.6428,-1.20865c0,-5.96769 0,-11.89761 0,-17.97862m2.52901,-14.80592c-1.92507,0 -3.88787,0 -5.73744,0c-0.33972,1.35973 -0.0755,2.07735 1.20788,2.15291c0.49071,0.03778 0.98141,0.30217 1.47212,0.33994c1.58535,0.11332 1.92507,0.94426 1.92507,2.49284c-0.0755,8.9893 -0.03774,18.01639 -0.03774,27.00569c0,0.67986 0,1.32195 0,1.96406c-1.69858,0.41547 -3.13295,0.79318 -4.60504,1.1331c0,0.71764 0,1.32195 0,1.92628c4.6428,0 9.17236,0 13.81515,0c-0.0755,-3.51262 -3.35941,-1.81296 -4.79379,-3.39932c0,-0.41547 0,-1.09533 0,-1.81296c0,-8.68715 0,-17.33652 0,-26.02367c0,-2.79499 0,-2.75722 2.75547,-3.47486c0.64169,-0.15107 1.28338,-0.37769 2.00056,-0.60432c-0.03774,-0.64209 -0.0755,-1.17087 -0.15099,-1.69966c-2.56674,0 -5.02026,0 -7.85122,0l-0.00001,-0.00003l-0.00001,0.00001l-0.00001,-0.00001z" id="svg_13"/>
  </g>
  <g id="svg_28">
   <path fill="#eaeaea" d="m316.93651,64.83272c-10.13931,0 -20.11895,0 -30.33809,0c0.11976,-1.62206 -0.31935,-3.54592 0.47902,-4.45126c0.83829,-0.94306 2.87413,-0.90534 4.47088,-1.28257c0,-9.58153 0,-19.12534 0,-28.74459c-1.55683,-0.37723 -3.07372,-0.71672 -4.71039,-1.09395c0,-1.43346 0,-2.82919 0,-4.41354c10.05947,0 20.07902,0 30.21833,0c0,3.47048 0,6.94095 0,10.52459c-1.67658,0 -3.31324,0 -5.02974,0c-0.47902,-1.50891 -0.95804,-3.05553 -1.43707,-4.71532c-3.71242,0 -7.38493,0 -11.21711,0c0,3.35731 0,6.71462 0,10.26053c4.39104,0 8.822,0 13.29288,0c0,2.07474 0,3.96087 0,5.96017c-4.43096,0 -8.78208,0 -13.29288,0c0,4.07403 0,7.99719 0,11.99578c3.99185,0 7.94379,0 12.01548,0c0.39919,-1.73524 0.75845,-3.47048 1.15763,-5.28116c1.63666,0 3.27332,0 5.10957,0c0,3.58364 0.03992,7.16729 0,10.78865c0,0.15089 -0.35926,0.30178 -0.71854,0.45267m-16.72587,-38.74107c-3.99185,0 -7.98371,0 -11.77597,0c-0.59878,1.62206 -0.11976,2.18791 1.11772,2.37652c0.47902,0.03772 0.91813,0.22634 1.35723,0.26405c1.75642,0.18861 2.3552,0.94306 2.31528,2.71602c-0.11976,8.5253 -0.07984,17.08833 -0.07984,25.61361c0,1.05624 0,2.11246 0,3.16869c-1.23748,0.30178 -2.31528,0.56584 -3.433,0.8299c-1.75642,0.41495 -1.75642,0.41495 -1.27739,2.26336c9.22118,0 18.44236,0 27.70346,0c0,-2.82919 0,-5.54522 0,-8.26124c-1.63666,-0.45267 -2.5947,-0.22634 -2.75438,1.58435c-0.07984,1.20712 -0.51894,2.41425 -0.79837,3.62136c-4.9499,0 -9.78005,0 -14.6501,0c0,-4.94166 0,-9.80786 0,-14.86269c4.43096,0 8.78208,0 13.1332,0c0,-1.09395 0,-1.99929 0,-3.05553c-4.47088,0 -8.822,0 -13.1332,0c0,-4.5267 0,-8.82708 0,-13.27835c3.47291,0 6.86599,0 10.21914,0c3.51283,0 3.63259,0 4.43096,3.13097c0.39919,1.62206 1.11772,2.30107 2.87413,1.73524c0,-2.56514 0,-5.13027 0,-7.84629c-5.02974,0 -9.93972,0 -15.24888,0l0.00001,0.00001l0,0.00001z" id="svg_3"/>
   <path fill="#e6e6e6" d="m411.278,59.64588c0.79837,-0.18861 1.39715,-0.33951 2.07576,-0.49039c0,-9.58153 0,-19.08762 0,-28.74459c-1.59674,-0.33951 -3.15357,-0.71672 -4.79022,-1.13168c0,-1.35801 0,-2.75374 0,-4.33809c10.05947,0 20.03911,0 30.21833,0c0,3.39503 0,6.94095 0,10.52459c-1.63666,0 -3.2334,0 -4.9499,0c-0.47902,-1.58435 -0.99796,-3.16869 -1.51691,-4.79077c-3.6725,0 -7.30509,0 -11.09736,0c0,3.43275 0,6.86551 0,10.37371c4.43096,0 8.74216,0 13.17312,0c0,1.92385 0,3.77225 0,5.77155c-4.3112,0 -8.66233,0 -13.17312,0c0,4.11176 0,8.0349 0,12.10894c3.91202,0 7.78412,0 11.89573,0c0.39919,-1.69752 0.83829,-3.5082 1.27739,-5.31889c1.75642,0 3.39307,0 5.10957,0c0,3.69681 0,7.31818 0,11.12816c-10.29899,0 -20.55804,0 -30.93687,0c0,-1.39573 0,-2.79148 0,-4.41354c0.79837,-0.18861 1.67658,-0.41495 2.71446,-0.67901m8.34298,-6.60145c0,-2.48969 0,-4.97937 0,-7.65767c4.59063,0 8.94175,0 13.29288,0c0,-1.05624 0,-1.88613 0,-2.90464c-4.51079,0 -8.86192,0 -13.1332,0c0,-4.56444 0,-8.90252 0,-13.27835c4.63055,0 9.14135,0 13.25295,0c1.95601,1.43346 0,5.3566 4.27128,4.86621c0,-2.6783 0,-5.20571 0,-7.69541c-9.14135,0 -18.16293,0 -27.30428,0c0.03992,0.75445 0.07984,1.28257 0.07984,1.81068c1.03789,0.26405 1.91609,0.56584 2.7943,0.64128c1.63666,0.18861 2.11568,0.90534 2.07576,2.48969c-0.11976,6.33739 -0.03992,12.67478 -0.03992,19.01217c0,3.35731 0,6.67689 0,9.58153c-1.47698,1.69752 -5.10957,-0.18861 -4.90998,3.43275c9.38086,0 18.68188,0 27.90306,0c0,-2.86692 0,-5.58294 0,-8.22352c-1.79633,-0.52811 -2.5947,0 -2.75438,1.69752c-0.07984,1.20712 -0.51894,2.37652 -0.79837,3.47048c-5.02974,0 -9.85988,0 -14.72994,0c0,-2.33881 0,-4.60215 0,-7.24274l0.00001,0l-0.00001,0.00001z" id="svg_4"/>
   <path fill="#eaeaea" d="m378.30528,33.48528c-0.23951,0.94306 -0.43911,1.73524 -0.67861,2.52741c-1.7165,0 -3.35316,0 -5.02974,0c0,-3.73454 0,-7.3559 0,-11.12816c11.01751,0 21.99511,0 33.17231,0c0,3.62136 0,7.31818 0,11.24133c-1.35723,0 -2.75438,0.07544 -4.11161,-0.03772c-0.39919,-0.03772 -0.99796,-0.56584 -1.11772,-0.98078c-0.51894,-1.43346 -0.83829,-2.90464 -1.23748,-4.41354c-2.11568,0 -4.15153,0 -6.26721,0c0,9.46837 0,18.899 0,28.48054c1.87617,0.37723 3.79226,0.75445 5.78818,1.16939c0,1.50891 0,2.90464 0,4.45126c-6.42688,0 -12.77393,0 -19.32058,0c0,-1.16939 -0.11976,-2.30107 0.03992,-3.39503c0.07984,-0.49039 0.67861,-1.13168 1.19756,-1.28257c1.43707,-0.41495 2.95398,-0.60356 4.51079,-0.90534c0,-9.50608 0,-18.97444 0,-28.51825c-2.03585,0 -4.03177,0 -6.14746,0c-0.23951,0.86762 -0.47902,1.77296 -0.79837,2.79148m8.58249,12.41072c0,4.82849 0,9.61925 0,14.41002c-2.11568,0.41495 -3.99185,0.79217 -5.90794,1.20712c0.03992,0.71672 0.07984,1.32029 0.11976,1.8484c5.50876,0 10.85784,0 16.24684,0c0,-0.67901 -0.03992,-1.24485 -0.07984,-1.88613c-1.91609,-0.41495 -3.75235,-0.79217 -5.58859,-1.13168c0,-10.44915 0,-20.78513 0,-31.12111c3.03381,0 5.86803,0 8.74216,0c0.51894,1.88613 1.03789,3.65908 1.51691,5.39433c0.91813,0 1.67658,0 2.3552,0c0,-2.86692 0,-5.58294 0,-8.33668c-10.13931,0 -20.15886,0 -30.17842,0c0,2.86692 0,5.58294 0,8.41213c0.79837,0 1.51691,0 2.31528,0c0.51894,-1.81068 0.99796,-3.58364 1.51691,-5.43204c2.95398,0 5.86803,0 8.94175,0c0,5.46978 0,10.8641 0,16.63565l-0.00001,0.00001l-0.00001,-0.00001z" id="svg_8"/>
   <path fill="#e8e8e8" d="m322.30948,64.81386c-0.71854,-0.03772 -1.23748,-0.03772 -1.7165,-0.07544c-0.6387,-4.18721 -0.6387,-4.18721 4.71039,-5.69611c0,-9.54381 0,-19.04989 0,-28.70687c-1.59674,-0.37723 -3.19348,-0.75445 -4.79022,-1.13168c0,-1.43346 0,-2.79148 0,-4.33809c5.78818,0 11.49654,0 17.36456,0c0,1.35801 0,2.82919 0,4.37582c-1.55683,0.33951 -3.11365,0.67901 -4.75031,1.09395c0,9.46837 0,18.97444 0,28.55598c3.51283,0 6.94583,0 10.49858,0c0.31935,-1.69752 0.67861,-3.35731 0.91813,-5.01711c0.11976,-1.01851 0.55886,-1.39573 1.63666,-1.32029c1.27739,0.07544 2.55479,0 3.95194,0c0,4.07403 0,8.0349 0,12.25983c-9.22118,0 -18.44236,0 -27.82322,0m10.45866,-1.43346c5.30916,0 10.61833,0 15.88758,0c0,-3.20641 0,-6.22422 0,-9.27975c-0.91813,0 -1.67658,0 -2.55479,0c-0.39919,2.07474 -0.79837,4.11176 -1.19756,6.11105c-4.51079,0 -8.90183,0 -13.41263,0c0,-8.82708 0,-17.46554 0,-26.14173c0,-1.54662 -0.43911,-3.5082 0.35926,-4.56444c0.71854,-0.94306 2.87413,-0.94306 4.39104,-1.35801c0.03992,0 0.07984,-0.07544 0.11976,-0.11317c0,-0.60356 0,-1.16939 0,-1.62206c-4.90998,0 -9.7002,0 -14.37067,0c-0.31935,1.20712 -0.03992,1.88613 1.19756,1.99929c0.6387,0.07544 1.27739,0.41495 1.91609,0.45267c1.63666,0.07544 1.87617,0.90534 1.83626,2.26336c-0.07984,4.45126 -0.03992,8.90252 -0.03992,13.35379c0,5.24344 0,10.44915 0,15.73031c-1.67658,0.37723 -3.27332,0.75445 -4.9499,1.16939c0,0.64128 0,1.24485 0,1.99929c3.51283,0 6.98574,0 10.81792,0l0.00002,0.00001l-0.00002,-0.00001z" id="svg_11"/>
   <path fill="#e6e6e6" d="m357.51268,36.22016c0,-1.99929 0,-3.80998 0,-5.80927c-1.63666,-0.37723 -3.19348,-0.75445 -4.87007,-1.16939c0,-1.35801 0,-2.71602 0,-4.30037c5.74827,0 11.49654,0 17.40449,0c0,1.32029 0,2.79148 0,4.33809c-1.55683,0.33951 -3.11365,0.71672 -4.71039,1.09395c0,9.54381 0,19.08762 0,28.74459c1.51691,0.37723 3.07372,0.75445 4.75031,1.16939c0,1.47118 0,2.90464 0,4.45126c-5.78818,0 -11.53646,0 -17.40449,0c0,-1.43346 0,-2.90464 0,-4.48899c1.59674,-0.37723 3.15357,-0.75445 4.83014,-1.16939c0,-7.61996 0,-15.12675 0,-22.85987m6.18737,-0.18861c0,-2.22563 0,-4.48899 0,-6.71462c1.75642,-0.41495 3.27332,-0.79217 4.90998,-1.20712c-0.03992,-0.67901 -0.07984,-1.24485 -0.07984,-1.69752c-4.9499,0 -9.66029,0 -14.53035,0c0.23951,3.35731 3.6725,1.62206 4.87007,3.13097c0,10.22282 0,20.48335 0,30.74388c-4.87007,1.24485 -4.87007,1.24485 -4.55072,3.01781c4.75031,0 9.50061,0 14.33075,0c-0.03992,-0.75445 -0.11976,-1.32029 -0.15967,-1.92385c-1.67658,-0.41495 -3.19348,-0.75445 -4.79022,-1.13168c0,-7.99719 0,-15.91892 0,-24.21789l-0.00001,0.00002l0.00001,0z" id="svg_12"/>
  </g>
 </g>

</svg>